<svg width="31" height="31" viewBox="0 0 31 31" fill="none" xmlns="http://www.w3.org/2000/svg">
<rect x="0.986328" y="0.5" width="30" height="30" rx="15" fill="white"/>
<g clip-path="url(#clip0_51_5722)">
<path d="M18.4656 6.14355C18.5012 6.14355 18.5369 6.14355 18.5746 6.14355C18.662 7.36029 18.2497 8.26944 17.7486 8.92781C17.2569 9.58164 16.5836 10.2158 15.4947 10.1195C15.422 8.92023 15.835 8.07852 16.3354 7.42166C16.7995 6.8095 17.6504 6.26477 18.4656 6.14355Z" fill="#0A0A0A"/>
<path d="M22.1295 18.1831C22.1295 18.1945 22.1295 18.2046 22.1295 18.2154C21.8039 19.2041 21.3394 20.0515 20.7727 20.8379C20.2553 21.5519 19.6213 22.5126 18.4892 22.5126C17.511 22.5126 16.8613 21.8819 15.8587 21.8647C14.7982 21.8475 14.215 22.3921 13.2454 22.5292C13.1344 22.5292 13.0235 22.5292 12.9148 22.5292C12.2027 22.4258 11.6281 21.8604 11.2095 21.351C9.9751 19.8456 9.02122 17.9011 8.84375 15.4127C8.84375 15.1687 8.84375 14.9255 8.84375 14.6815C8.91889 12.9006 9.78189 11.4526 10.929 10.7509C11.5344 10.3778 12.3666 10.0599 13.2933 10.202C13.6905 10.2637 14.0962 10.4 14.4519 10.5349C14.7889 10.6648 15.2104 10.8951 15.6097 10.8829C15.8802 10.875 16.1492 10.7337 16.4219 10.6339C17.2205 10.3448 18.0034 10.0133 19.0352 10.169C20.2754 10.357 21.1555 10.9095 21.6994 11.7619C20.6503 12.4313 19.821 13.4402 19.9626 15.163C20.0886 16.7279 20.996 17.6435 22.1295 18.1831Z" fill="#0A0A0A"/>
</g>
<defs>
<clipPath id="clip0_51_5722">
<rect width="16.3857" height="16.3857" fill="white" transform="translate(7.51562 6.14282)"/>
</clipPath>
</defs>
</svg>
