<svg width="16" height="16" viewBox="0 0 16 16" fill="none" xmlns="http://www.w3.org/2000/svg">
<path d="M1.03362 7.43438L7.43362 1.03438C7.5845 0.888657 7.78658 0.808022 7.99634 0.809845C8.2061 0.811667 8.40675 0.895802 8.55507 1.04413C8.7034 1.19246 8.78753 1.39311 8.78936 1.60286C8.79118 1.81262 8.71055 2.0147 8.56482 2.16558L3.53042 7.19998H14.3992C14.6114 7.19998 14.8149 7.28427 14.9649 7.4343C15.1149 7.58433 15.1992 7.78781 15.1992 7.99998C15.1992 8.21216 15.1149 8.41564 14.9649 8.56567C14.8149 8.7157 14.6114 8.79998 14.3992 8.79998H3.53042L8.56482 13.8344C8.64123 13.9082 8.70217 13.9965 8.7441 14.0941C8.78603 14.1917 8.8081 14.2966 8.80902 14.4029C8.80994 14.5091 8.7897 14.6144 8.74948 14.7127C8.70925 14.8111 8.64985 14.9004 8.57473 14.9755C8.49962 15.0506 8.4103 15.11 8.31198 15.1502C8.21367 15.1905 8.10832 15.2107 8.0021 15.2098C7.89587 15.2089 7.7909 15.1868 7.6933 15.1449C7.59569 15.1029 7.50742 15.042 7.43362 14.9656L1.03362 8.56558C0.883641 8.41556 0.79939 8.21211 0.79939 7.99998C0.79939 7.78785 0.883641 7.58441 1.03362 7.43438Z" fill="#0A0A0A"/>
</svg>
