<svg width="11" height="10" viewBox="0 0 11 10" fill="none" xmlns="http://www.w3.org/2000/svg">
<g clip-path="url(#clip0_276_3543)">
<path d="M10.3635 7.31974L6.9489 1.40538C6.39117 0.428349 4.98079 0.428349 4.42506 1.40538L1.00845 7.31974C0.450723 8.29678 1.14488 9.51055 2.27037 9.51055H9.08954C10.215 9.51055 10.9212 8.28474 10.3635 7.31974ZM5.68497 8.19847C5.38805 8.19847 5.14129 7.95171 5.14129 7.65478C5.14129 7.35786 5.38805 7.1111 5.68497 7.1111C5.9819 7.1111 6.22866 7.35786 6.21662 7.66883C6.23067 7.95171 5.96986 8.19847 5.68497 8.19847ZM6.18051 4.68356C6.15644 5.10487 6.13036 5.52417 6.10628 5.94548C6.09424 6.0819 6.09424 6.20629 6.09424 6.3407C6.08221 6.5634 5.90767 6.73593 5.68497 6.73593C5.46228 6.73593 5.28975 6.57543 5.2757 6.35274C5.23959 5.69671 5.20147 5.05271 5.16536 4.39667C5.15332 4.22413 5.14129 4.04959 5.12724 3.87706C5.12724 3.59217 5.28774 3.35744 5.54855 3.28321C5.80936 3.22102 6.06816 3.34541 6.18051 3.59217C6.21863 3.67844 6.23067 3.76471 6.23067 3.86502C6.21863 4.13987 6.19255 4.41272 6.18051 4.68356Z" fill="white"/>
</g>
<defs>
<clipPath id="clip0_276_3543">
<rect width="9.74648" height="9.74648" fill="white" transform="translate(0.811745 0.218262)"/>
</clipPath>
</defs>
</svg>
