<svg width="48" height="49" viewBox="0 0 48 49" fill="none" xmlns="http://www.w3.org/2000/svg">
<rect y="0.5" width="48" height="48" rx="23" fill="#F9CF01"/>
<path d="M34.2953 22.086C33.9577 21.9659 33.6491 21.7763 33.3894 21.5295C33.1297 21.2826 32.9247 20.9841 32.7876 20.6531C32.6504 20.322 32.5843 19.9659 32.5934 19.6078C32.6025 19.2496 32.6866 18.8973 32.8403 18.5737C33.0732 18.0959 33.1513 17.5574 33.0635 17.0331C32.9757 16.5089 32.7265 16.0252 32.3507 15.6493C31.9748 15.2735 31.4911 15.0243 30.9669 14.9365C30.4426 14.8487 29.9041 14.9268 29.4263 15.1597C29.1027 15.3134 28.7504 15.3975 28.3922 15.4066C28.0341 15.4157 27.678 15.3496 27.3469 15.2124C27.0159 15.0753 26.7174 14.8703 26.4705 14.6106C26.2237 14.3509 26.0341 14.0423 25.914 13.7047C25.737 13.206 25.4099 12.7744 24.9776 12.4691C24.5454 12.1639 24.0292 12 23.5 12C22.9708 12 22.4546 12.1639 22.0224 12.4691C21.5901 12.7744 21.263 13.206 21.086 13.7047C20.9659 14.0423 20.7763 14.3509 20.5295 14.6106C20.2826 14.8703 19.9841 15.0753 19.6531 15.2124C19.322 15.3496 18.9659 15.4157 18.6078 15.4066C18.2496 15.3975 17.8973 15.3134 17.5737 15.1597C17.0959 14.9268 16.5574 14.8487 16.0331 14.9365C15.5089 15.0243 15.0252 15.2735 14.6493 15.6493C14.2735 16.0252 14.0243 16.5089 13.9365 17.0331C13.8487 17.5574 13.9268 18.0959 14.1597 18.5737C14.3134 18.8973 14.3975 19.2496 14.4066 19.6078C14.4157 19.9659 14.3496 20.322 14.2124 20.6531C14.0753 20.9841 13.8703 21.2826 13.6106 21.5295C13.3509 21.7763 13.0423 21.9659 12.7047 22.086C12.206 22.263 11.7744 22.5901 11.4691 23.0224C11.1639 23.4546 11 23.9708 11 24.5C11 25.0292 11.1639 25.5454 11.4691 25.9776C11.7744 26.4099 12.206 26.737 12.7047 26.914C13.0423 27.0341 13.3509 27.2237 13.6106 27.4705C13.8703 27.7174 14.0753 28.0159 14.2124 28.3469C14.3496 28.678 14.4157 29.0341 14.4066 29.3922C14.3975 29.7504 14.3134 30.1027 14.1597 30.4263C13.9268 30.9041 13.8487 31.4426 13.9365 31.9669C14.0243 32.4911 14.2735 32.9748 14.6493 33.3507C15.0252 33.7265 15.5089 33.9757 16.0331 34.0635C16.5574 34.1513 17.0959 34.0732 17.5737 33.8403C17.8973 33.6866 18.2496 33.6025 18.6078 33.5934C18.9659 33.5843 19.322 33.6504 19.6531 33.7876C19.9841 33.9247 20.2826 34.1297 20.5295 34.3894C20.7763 34.6491 20.9659 34.9577 21.086 35.2953C21.263 35.794 21.5901 36.2256 22.0224 36.5309C22.4546 36.8361 22.9708 37 23.5 37C24.0292 37 24.5454 36.8361 24.9776 36.5309C25.4099 36.2256 25.737 35.794 25.914 35.2953C26.0341 34.9577 26.2237 34.6491 26.4705 34.3894C26.7174 34.1297 27.0159 33.9247 27.3469 33.7876C27.678 33.6504 28.0341 33.5843 28.3922 33.5934C28.7504 33.6025 29.1027 33.6866 29.4263 33.8403C29.9041 34.0732 30.4426 34.1513 30.9669 34.0635C31.4911 33.9757 31.9748 33.7265 32.3507 33.3507C32.7265 32.9748 32.9757 32.4911 33.0635 31.9669C33.1513 31.4426 33.0732 30.9041 32.8403 30.4263C32.6866 30.1027 32.6025 29.7504 32.5934 29.3922C32.5843 29.0341 32.6504 28.678 32.7876 28.3469C32.9247 28.0159 33.1297 27.7174 33.3894 27.4705C33.6491 27.2237 33.9577 27.0341 34.2953 26.914C34.794 26.737 35.2256 26.4099 35.5309 25.9776C35.8361 25.5454 36 25.0292 36 24.5C36 23.9708 35.8361 23.4546 35.5309 23.0224C35.2256 22.5901 34.794 22.263 34.2953 22.086ZM16.7909 23.2377L16.1884 25.4877L14.9916 25.168L16.4712 19.6434L19.7048 20.5081L19.4016 21.6024L17.3523 21.0573L17.0573 22.1516L18.9384 22.6557L18.6475 23.7418L16.7909 23.2377ZM22.8115 25.4344C22.7767 25.8969 22.7767 26.3613 22.8115 26.8238L22.9221 27.2951L21.6434 26.9591L21.5983 26.7992C21.5382 26.3481 21.53 25.8916 21.5737 25.4385C21.6065 24.7828 21.4385 24.6189 21.045 24.4959L20.7254 24.4098L20.1516 26.5492L18.9548 26.2295L20.4016 20.8114H20.6352C21.0802 20.8497 21.5206 20.9292 21.9508 21.0491C22.5483 21.1505 23.0839 21.4777 23.4467 21.9631C23.57 22.1548 23.6497 22.3713 23.6801 22.5972C23.7106 22.8231 23.691 23.0529 23.623 23.2705C23.5561 23.5272 23.428 23.7639 23.2495 23.9602C23.071 24.1565 22.8476 24.3066 22.5983 24.3975C22.7652 24.7163 22.8391 25.0757 22.8115 25.4344ZM26.9345 27.1927L26.6394 28.287L23.2869 27.3894L24.7705 21.8647L28.0083 22.7336L27.7132 23.8279L25.664 23.2828L25.3935 24.2951L27.3238 24.8115L27.0329 25.8976L25.1025 25.3812L24.7705 26.6107L26.9345 27.1927ZM31.6969 24.9098L29.6477 24.3648L29.3772 25.3771L31.3075 25.8935L31.0411 26.9591L29.1108 26.4427L28.7788 27.6722L30.9305 28.2501L30.6354 29.3443L27.2829 28.4468L28.7624 22.9221L32.0043 23.791L31.6969 24.9098Z" fill="#0A0A0A"/>
<path d="M21.4422 22.3339C21.3189 22.2922 21.2166 22.2644 21.1356 22.2458L20.8359 23.7144L21.1602 23.8302C21.615 23.9877 21.9428 23.8024 22.038 23.3345C22.0732 23.1585 22.186 22.6072 21.4422 22.3339Z" fill="#0A0A0A"/>
</svg>
