<svg width="48" height="49" viewBox="0 0 48 49" fill="none" xmlns="http://www.w3.org/2000/svg">
<rect y="0.5" width="48" height="48" rx="23" fill="#F9CF01"/>
<path d="M31.0486 13H16.9514C14.7725 13 13 14.7725 13 16.9514V31.0486C13 33.2275 14.7725 35 16.9514 35H31.0486C33.2275 35 35 33.2275 35 31.0486V16.9514C35 14.7725 33.2275 13 31.0486 13ZM31.5921 30.1686H24.5414C23.9217 32.003 21.3184 32.0058 20.6979 30.1686H16.4079C15.5518 30.1686 15.5516 28.8745 16.4079 28.8745H20.6979C21.3175 27.0402 23.9208 27.0374 24.5414 28.8745H31.5921C32.4482 28.8745 32.4484 30.1686 31.5921 30.1686ZM31.5921 24.6471H30.0629C29.4432 26.4814 26.84 26.4842 26.2194 24.6471H16.4079C15.5518 24.6471 15.5516 23.3529 16.4079 23.3529H26.2194C26.8391 21.5186 29.4423 21.5158 30.063 23.3529H31.5922C32.4482 23.3529 32.4484 24.6471 31.5921 24.6471ZM31.5921 19.1255H21.7806C21.1609 20.9598 18.5577 20.9626 17.9371 19.1255H16.4079C15.5518 19.1255 15.5516 17.8314 16.4079 17.8314H17.9371C18.5567 15.997 21.16 15.9942 21.7806 17.8314H31.5921C32.4482 17.8314 32.4484 19.1255 31.5921 19.1255Z" fill="#0A0A0A"/>
<path d="M22.7777 28.8889C21.691 28.8889 21.6916 30.5185 22.7777 30.5185C23.8644 30.5186 23.8638 28.8889 22.7777 28.8889Z" fill="#0A0A0A"/>
<path d="M19.9262 17.8889C18.8394 17.8889 18.84 19.5185 19.9262 19.5185C21.0128 19.5186 21.0123 17.8889 19.9262 17.8889Z" fill="#0A0A0A"/>
<path d="M28.0746 23.1848C26.9879 23.1848 26.9884 24.8144 28.0746 24.8144C29.1613 24.8145 29.1607 23.1848 28.0746 23.1848Z" fill="#0A0A0A"/>
</svg>
