<svg width="48" height="49" viewBox="0 0 48 49" fill="none" xmlns="http://www.w3.org/2000/svg">
<rect y="0.5" width="48" height="48" rx="23" fill="#F9CF01"/>
<path fill-rule="evenodd" clip-rule="evenodd" d="M23.6376 11.0006C22.5666 10.9897 21.7936 11.7474 21.1105 12.4386C20.4273 13.1298 19.7781 13.8131 19.2808 14.0132C18.7834 14.2133 17.8418 14.1699 16.8703 14.1444C15.8988 14.1189 14.8166 14.1076 14.0515 14.8571C13.2865 15.6067 13.2758 16.689 13.2814 17.6608C13.2871 18.6326 13.3112 19.5749 13.101 20.0681C12.8908 20.5612 12.1944 21.1964 11.4894 21.8653C10.7845 22.5342 10.0111 23.2914 10.0001 24.3624C9.98919 25.4335 10.747 26.2063 11.4381 26.8894C12.1293 27.5726 12.8126 28.2219 13.0127 28.7192C13.2128 29.2166 13.1695 30.1582 13.144 31.1297C13.1185 32.1012 13.1071 33.1835 13.8567 33.9486C14.6062 34.7136 15.6886 34.7242 16.6604 34.7186C17.6322 34.7129 18.5744 34.6888 19.0676 34.899C19.5607 35.1092 20.1959 35.8057 20.8648 36.5107C21.5338 37.2156 22.2909 37.9889 23.3619 37.9999C24.433 38.0108 25.2059 37.253 25.889 36.5619C26.5722 35.8707 27.2214 35.1874 27.7187 34.9873C28.2161 34.7872 29.1577 34.8306 30.1292 34.8561C31.1007 34.8816 32.1829 34.893 32.948 34.1434C33.713 33.3939 33.7237 32.3115 33.7181 31.3397C33.7124 30.3679 33.6883 29.4255 33.8985 28.9323C34.1087 28.4392 34.8051 27.8041 35.5101 27.1352C36.2151 26.4662 36.9884 25.7091 36.9994 24.6381C36.9994 24.638 36.9994 24.638 36.9994 24.6379C37.0103 23.5669 36.2526 22.7941 35.5614 22.111C34.8702 21.4278 34.1869 20.7785 33.9868 20.2812C33.7867 19.7838 33.83 18.8423 33.8555 17.8708C33.881 16.8993 33.8924 15.817 33.1429 15.0519C32.3933 14.2869 31.3109 14.2763 30.3391 14.2819C29.3673 14.2876 28.4251 14.3117 27.9319 14.1015C27.4388 13.8913 26.8036 13.1949 26.1347 12.4899C25.4658 11.7849 24.7086 11.0116 23.6376 11.0006ZM23.4992 16.1684C28.0938 16.1684 31.8309 19.9055 31.8309 24.5C31.8309 29.0946 28.0938 32.8317 23.4992 32.8317C18.9047 32.8317 15.1676 29.0946 15.1676 24.5C15.1676 19.9055 18.9047 16.1684 23.4992 16.1684Z" fill="#0A0A0A"/>
<path fill-rule="evenodd" clip-rule="evenodd" d="M23.5 18.5798C23.0675 18.5798 22.7042 18.8271 22.4787 19.0922C22.2532 19.3573 22.1068 19.654 21.9706 19.9441C21.6982 20.5241 21.4159 21.0715 21.2764 21.1723C21.1369 21.273 20.5258 21.3708 19.8866 21.449C19.567 21.4881 19.238 21.5349 18.9146 21.6661C18.5913 21.7973 18.2424 22.0643 18.1087 22.4731C17.9751 22.8819 18.0995 23.3018 18.2835 23.5968C18.4674 23.8919 18.706 24.122 18.9415 24.3404C19.4123 24.7772 19.8488 25.2132 19.9021 25.3762C19.9553 25.5392 19.8601 26.147 19.7374 26.7754C19.6761 27.0897 19.6191 27.4153 19.6448 27.7614C19.6704 28.1076 19.818 28.52 20.1679 28.7727C20.5177 29.0254 20.9579 29.0375 21.2971 28.9547C21.6363 28.872 21.9302 28.7176 22.2119 28.5625C22.7753 28.2523 23.3274 27.9745 23.4999 27.9745C23.6723 27.9745 24.2244 28.2524 24.7878 28.5626C25.0695 28.7177 25.3634 28.8721 25.7025 28.9548C26.0417 29.0376 26.4819 29.0254 26.8317 28.7728C27.1816 28.5202 27.3293 28.1078 27.355 27.7616C27.3806 27.4155 27.3236 27.0899 27.2623 26.7756C27.1397 26.1472 27.0444 25.5394 27.0977 25.3764C27.151 25.2134 27.5875 24.7773 28.0584 24.3405C28.2938 24.1221 28.5325 23.8921 28.7165 23.597C28.9004 23.302 29.0248 22.8821 28.8912 22.4733C28.7576 22.0645 28.4086 21.7975 28.0853 21.6663C27.762 21.5351 27.4329 21.4882 27.1133 21.4491C26.4741 21.3708 25.8631 21.2731 25.7235 21.1724C25.584 21.0716 25.3018 20.5243 25.0294 19.9442C24.8932 19.6541 24.7468 19.3574 24.5213 19.0923C24.2958 18.8272 23.9325 18.5798 23.5001 18.5798H23.5Z" fill="#0A0A0A"/>
</svg>
