<svg width="48" height="49" viewBox="0 0 48 49" fill="none" xmlns="http://www.w3.org/2000/svg">
<rect y="0.5" width="48" height="48" rx="23" fill="#F9CF01"/>
<path d="M27.1113 34.3331V35.4442C27.1113 36.3019 27.8458 36.9997 28.7487 36.9997H34.3626C35.2656 36.9997 36 36.3019 36 35.4442V34.3331H27.1113Z" fill="#0A0A0A"/>
<path d="M36 32.5553V23.9595C36 23.0628 35.2656 22.3333 34.3626 22.3333H28.7487C27.8458 22.3333 27.1113 23.0628 27.1113 23.9595V32.5553H36Z" fill="#0A0A0A"/>
<path d="M28.4437 21.2536C28.4437 21.2536 34.1449 21.2476 34.2213 21.2536V20.4441C34.2213 19.525 33.4957 18.7775 32.6036 18.7775H24.2838C23.3917 18.7775 22.666 19.525 22.666 20.4441V32.1105H25.4393V24.3488C25.4393 22.6421 26.7871 21.2536 28.4437 21.2536Z" fill="#0A0A0A"/>
<path d="M25.2757 32.9998H22.666V34.1109C22.666 34.9687 23.3489 35.6664 24.1883 35.6664H25.3326C25.2954 35.4796 25.2757 35.2864 25.2757 35.0887V32.9998Z" fill="#0A0A0A"/>
<path d="M24.5703 17.1741H33.0447C33.4616 17.1741 33.8592 17.2569 34.2217 17.4063V15.5509C34.2217 14.1444 33.0602 13.0002 31.6323 13.0002H14.5894C13.1615 13.0002 12 14.1444 12 15.5509V23.6667H21.5101V20.1885C21.5101 18.5264 22.883 17.1741 24.5703 17.1741Z" fill="#0A0A0A"/>
<path d="M12 25V25.2222C12 26.5701 13.1399 27.6666 14.5412 27.6666H21.3331V25H12Z" fill="#0A0A0A"/>
<path d="M21.7775 29.4439H19.9956L19.0271 32.3337C17.8426 32.3549 16.8887 33.316 16.8887 34.4994C16.8887 34.8983 17.2137 35.2216 17.6147 35.2216H21.7775" fill="#0A0A0A"/>
</svg>
