<svg width="50" height="50" viewBox="0 0 50 50" fill="none" xmlns="http://www.w3.org/2000/svg">
<g clip-path="url(#clip0_59_6157)">
<path d="M47.8633 20.0352C46.8255 19.0306 45.7858 18.0186 44.7441 16.999C44.7148 15.5869 44.6781 14.1755 44.6338 12.7646C44.5752 10.875 43.7549 9.07227 42.3574 7.67188C40.96 6.27148 39.1475 5.45996 37.2559 5.40039C35.8418 5.35677 34.4277 5.32031 33.0137 5.29102C31.9941 4.25326 30.9834 3.2168 29.9814 2.18164C28.625 0.79297 26.8691 0.0166025 25.001 0.017579C23.1328 0.0185556 21.376 0.798829 20.0283 2.18164C19.0212 3.21875 18.0072 4.25749 16.9863 5.29785C15.5723 5.3265 14.1585 5.36296 12.7451 5.40723C8.85058 5.54004 5.49902 8.88672 5.36621 12.7705C5.32259 14.1826 5.28581 15.5941 5.25586 17.0049C4.21419 18.0238 3.17448 19.0355 2.13672 20.04C0.750977 21.3867 -0.0273438 23.1445 -0.0273438 25C-0.0273438 26.8555 0.746094 28.6133 2.13672 29.9648C3.17448 30.9688 4.21615 31.9795 5.26172 32.9971C5.28971 34.4092 5.32617 35.8216 5.37109 37.2344C5.43066 39.127 6.25 40.9248 7.64648 42.3271C9.04297 43.7295 10.8545 44.5391 12.749 44.5977C14.1631 44.6426 15.5771 44.6794 16.9912 44.708C18.0107 45.7451 19.0234 46.7809 20.0293 47.8154C21.3799 49.2041 23.1377 49.9805 25.0098 49.9795C26.8818 49.9785 28.6348 49.2041 29.9902 47.8164C30.9961 46.7799 32.0091 45.7422 33.0293 44.7031C34.4434 44.6738 35.8571 44.637 37.2705 44.5928C41.1641 44.4609 44.5156 41.1143 44.6484 37.2295C44.6927 35.8187 44.7292 34.4079 44.7578 32.9971C45.7995 31.9775 46.8395 30.9655 47.8779 29.9609C49.2637 28.6152 50.042 26.8594 50.042 24.9971C50.042 23.1348 49.251 21.3867 47.8633 20.0352ZM37.4326 21.833C33.2158 26.2148 28.9316 30.6943 24.7188 35.1377C24.3764 35.5004 23.9637 35.7896 23.5058 35.9874C23.0479 36.1852 22.5545 36.2875 22.0557 36.2881H22.0391C21.5408 36.2848 21.0483 36.1818 20.5904 35.9852C20.1325 35.7887 19.7186 35.5025 19.373 35.1436C17.1204 32.8174 14.8607 30.4997 12.5937 28.1904C12.251 27.8457 11.9805 27.436 11.7983 26.9853C11.6161 26.5346 11.5258 26.052 11.5327 25.5659C11.5396 25.0798 11.6436 24.6 11.8386 24.1547C12.0335 23.7094 12.3155 23.3075 12.668 22.9727C13.3782 22.2864 14.3306 21.9083 15.3181 21.9206C16.3057 21.9328 17.2484 22.3344 17.9414 23.0381C19.2884 24.4189 20.637 25.8037 21.9873 27.1924C25.332 23.6875 28.6934 20.1611 32.002 16.6904C33.4062 15.2129 35.749 15.1885 37.2549 16.6143C38.7607 18.04 38.8477 20.3633 37.4326 21.833Z" fill="#F9CF01"/>
</g>
<defs>
<clipPath id="clip0_59_6157">
<rect width="50" height="50" fill="white"/>
</clipPath>
</defs>
</svg>
