<svg width="16" height="16" viewBox="0 0 16 16" fill="none" xmlns="http://www.w3.org/2000/svg">
<g clip-path="url(#clip0_59_10237)">
<path d="M15.9941 8C15.9941 12.4183 12.4124 16 7.99414 16C5.665 16 3.56834 15.0047 2.10647 13.4162C1.72247 12.9992 1.38255 12.5411 1.09324 12.0496C0.394794 10.8617 -0.00585938 9.47755 -0.00585938 8C-0.00585938 3.58171 3.57585 0 7.99414 0C9.47202 0 10.8562 0.400653 12.0438 1.09943C12.5352 1.38841 12.993 1.72833 13.41 2.11265C14.9985 3.57388 15.9941 5.67086 15.9941 8Z" fill="#F0CD00"/>
<path d="M15.9943 8.00006C15.9943 12.3188 12.5725 15.8381 8.29205 15.9945C4.01156 15.8381 0.589844 12.3188 0.589844 8.00006C0.589844 3.68137 4.01156 0.162023 8.29205 0.00561523C12.5725 0.162023 15.9943 3.68137 15.9943 8.00006Z" fill="#FFDE50"/>
<path d="M13.4105 2.11283L2.10697 13.4163C1.72297 12.9994 1.38306 12.5412 1.09375 12.0498L12.0443 1.09961C12.5357 1.38859 12.9935 1.72851 13.4105 2.11283Z" fill="#FFEA94"/>
<path d="M15.4417 5.07511L5.06844 15.4483C4.33407 15.1597 3.6526 14.7656 3.04297 14.2846L14.2782 3.04932C14.7592 3.65895 15.1533 4.34042 15.4417 5.07511Z" fill="#FFEA94"/>
<path d="M14.2103 8.00018C14.2103 11.4333 11.427 14.2167 7.99383 14.2167C6.79808 14.2167 5.68134 13.879 4.73343 13.2939C4.32036 13.0392 3.93963 12.7372 3.59808 12.3956C3.34698 12.1448 3.1171 11.8722 2.91171 11.5812C2.62894 11.1806 2.3922 10.745 2.20967 10.2823C1.9393 9.59822 1.78714 8.85438 1.778 8.07659C1.77734 8.05112 1.77734 8.02565 1.77734 8.00018C1.77734 4.56704 4.56036 1.78369 7.99383 1.78369C8.0193 1.78369 8.0451 1.78369 8.07057 1.78434C8.84836 1.79349 9.59187 1.94598 10.276 2.21602C10.7387 2.39888 11.1742 2.63528 11.5749 2.91806C11.8658 3.12377 12.1382 3.35332 12.3893 3.60443C12.7308 3.94565 13.0329 4.32671 13.2875 4.73977C13.8727 5.68769 14.2103 6.80443 14.2103 8.00018Z" fill="#FAA300"/>
<path d="M12.3893 3.60443L3.59808 12.3956C3.34698 12.1448 3.1171 11.8722 2.91171 11.5812C2.62894 11.1806 2.3922 10.745 2.20967 10.2823C1.9393 9.59822 1.78714 8.85438 1.778 8.07659C1.77734 8.05112 1.77734 8.02565 1.77734 8.00018C1.77734 4.56704 4.56036 1.78369 7.99383 1.78369C8.0193 1.78369 8.0451 1.78369 8.07057 1.78434C8.84836 1.79349 9.59187 1.94598 10.276 2.21602C10.7387 2.39888 11.1742 2.63528 11.5749 2.91806C11.8658 3.12377 12.1382 3.35332 12.3893 3.60443Z" fill="#FFBD00"/>
<path d="M14.2101 8.00018C14.2101 11.4333 11.4267 14.2167 7.9936 14.2167C7.87572 14.2167 7.75882 14.2134 7.64258 14.2069C10.9125 14.025 13.5077 11.3154 13.5077 8.00018C13.5077 4.68492 10.9125 1.97536 7.64258 1.79349C7.75882 1.78696 7.87572 1.78369 7.9936 1.78369C11.4267 1.78369 14.2101 4.56704 14.2101 8.00018Z" fill="#F68E00"/>
<path d="M8.00759 8.37344C7.89376 8.17481 7.89402 7.93067 8.00824 7.73227L8.01438 7.72162C8.15962 7.46934 8.42979 7.32022 8.72089 7.31852C9.37745 7.3147 10.0139 6.96094 10.3458 6.33286C10.7942 5.48463 10.4696 4.35591 9.64014 3.87372C8.7557 3.35957 7.62245 3.66183 7.11129 4.54719C6.76938 5.13939 6.79286 5.84195 7.11136 6.39463C7.25582 6.64531 7.25934 6.95294 7.11498 7.20365C6.99763 7.4075 6.78032 7.53312 6.54509 7.53312H6.51045C6.26444 7.53312 6.04279 7.39382 5.92615 7.17723C5.604 6.57896 4.96191 6.17857 4.22871 6.2057C3.26956 6.2412 2.45402 7.08672 2.45118 8.04652C2.44818 9.06951 3.27655 9.89974 4.29885 9.89974C5.00798 9.89974 5.62346 9.5001 5.93311 8.91388C6.04413 8.70366 6.26111 8.57103 6.49882 8.57103H6.55446C6.78336 8.57103 6.99479 8.69354 7.10858 8.89214C7.22734 9.09935 7.21827 9.35408 7.09082 9.55607C6.72517 10.1356 6.69533 10.8988 7.08778 11.5253C7.58 12.311 8.69317 12.6107 9.51322 12.178C10.4456 11.6862 10.775 10.5236 10.2528 9.61912C9.8999 9.00786 9.25053 8.67486 8.59116 8.69638C8.35162 8.70412 8.12677 8.58141 8.00759 8.37344Z" fill="#F68E00"/>
<path d="M8.82399 8.37344C8.71017 8.17481 8.71043 7.93067 8.82465 7.73227L8.83079 7.72162C8.97603 7.46934 9.2462 7.32022 9.5373 7.31852C10.1939 7.3147 10.8303 6.96094 11.1622 6.33286C11.6106 5.48463 11.286 4.35591 10.4565 3.87372C9.57211 3.35957 8.43885 3.66183 7.9277 4.54719C7.58579 5.13939 7.60927 5.84195 7.92777 6.39463C8.07222 6.64531 8.07575 6.95294 7.93139 7.20365C7.81404 7.4075 7.59673 7.53312 7.3615 7.53312H7.32685C7.08084 7.53312 6.85919 7.39382 6.74256 7.17723C6.4204 6.57896 5.77831 6.17857 5.04512 6.2057C4.08597 6.2412 3.27043 7.08672 3.26759 8.04652C3.26458 9.06951 4.09296 9.89974 5.11526 9.89974C5.82439 9.89974 6.43986 9.5001 6.74951 8.91388C6.86053 8.70366 7.07751 8.57103 7.31523 8.57103H7.37087C7.59977 8.57103 7.81119 8.69354 7.92499 8.89214C8.04375 9.09935 8.03467 9.35408 7.90723 9.55607C7.54158 10.1356 7.51173 10.8988 7.90419 11.5253C8.3964 12.311 9.50958 12.6107 10.3296 12.178C11.262 11.6862 11.5914 10.5236 11.0692 9.61912C10.7163 9.00786 10.0669 8.67486 9.40757 8.69638C9.16799 8.70412 8.94318 8.58141 8.82399 8.37344Z" fill="#FFEA94"/>
</g>
<defs>
<clipPath id="clip0_59_10237">
<rect width="16" height="16" fill="white" transform="translate(-0.00585938)"/>
</clipPath>
</defs>
</svg>
