<svg width="14" height="15" viewBox="0 0 14 15" fill="none" xmlns="http://www.w3.org/2000/svg">
<path fill-rule="evenodd" clip-rule="evenodd" d="M12.8327 7.49999C12.8327 4.27833 10.221 1.66666 6.99935 1.66666C3.77769 1.66666 1.16602 4.27833 1.16602 7.49999C1.16602 10.7217 3.77769 13.3333 6.99935 13.3333C10.221 13.3333 12.8327 10.7217 12.8327 7.49999ZM6.99935 4.14582C7.24097 4.14582 7.43685 4.3417 7.43685 4.58332V8.08332C7.43685 8.32495 7.24097 8.52082 6.99935 8.52082C6.75772 8.52082 6.56185 8.32495 6.56185 8.08332V4.58332C6.56185 4.3417 6.75772 4.14582 6.99935 4.14582ZM6.99935 10.4167C7.32152 10.4167 7.58268 10.1555 7.58268 9.83332C7.58268 9.51116 7.32152 9.24999 6.99935 9.24999C6.67718 9.24999 6.41602 9.51116 6.41602 9.83332C6.41602 10.1555 6.67718 10.4167 6.99935 10.4167Z" fill="#F55252"/>
</svg>
