<svg width="52" height="52" viewBox="0 0 52 52" fill="none" xmlns="http://www.w3.org/2000/svg">
<path fill-rule="evenodd" clip-rule="evenodd" d="M11.5079 23.3166C17.831 12.1055 20.9926 6.5 25.9992 6.5C31.0058 6.5 34.1674 12.1055 40.4905 23.3166L41.2784 24.7136C46.5329 34.0299 49.1601 38.688 46.7856 42.094C44.4111 45.5 38.5365 45.5 26.7871 45.5H25.2112C13.4619 45.5 7.58723 45.5 5.21274 42.094C2.83826 38.688 5.4655 34.0299 10.72 24.7136L11.5079 23.3166ZM25.9992 15.7083C26.8966 15.7083 27.6242 16.4359 27.6242 17.3333V28.1667C27.6242 29.0641 26.8966 29.7917 25.9992 29.7917C25.1017 29.7917 24.3742 29.0641 24.3742 28.1667V17.3333C24.3742 16.4359 25.1017 15.7083 25.9992 15.7083ZM25.9992 36.8333C27.1958 36.8333 28.1659 35.8633 28.1659 34.6667C28.1659 33.47 27.1958 32.5 25.9992 32.5C24.8026 32.5 23.8325 33.47 23.8325 34.6667C23.8325 35.8633 24.8026 36.8333 25.9992 36.8333Z" fill="#F9CF01"/>
</svg>
