<svg width="12" height="13" viewBox="0 0 12 13" fill="none" xmlns="http://www.w3.org/2000/svg">
<g clip-path="url(#clip0_51_5231)">
<path d="M1.13754 12.4261C0.843336 12.4432 0.553996 12.3454 0.330533 12.1533C-0.110178 11.71 -0.110178 10.994 0.330533 10.5506L9.98066 0.900465C10.439 0.471545 11.1583 0.495388 11.5872 0.953766C11.9751 1.36828 11.9977 2.00539 11.6402 2.44632L1.93317 12.1533C1.71259 12.3426 1.42789 12.4403 1.13754 12.4261Z" fill="#F55252"/>
<path d="M10.7758 12.4261C10.4776 12.4249 10.1918 12.3065 9.98012 12.0965L0.329953 2.44631C-0.0783426 1.96952 -0.0228327 1.25197 0.453962 0.843633C0.879513 0.479206 1.50712 0.479206 1.93263 0.843633L11.6396 10.4938C12.0979 10.9228 12.1216 11.6421 11.6925 12.1004C11.6755 12.1186 11.6578 12.1363 11.6396 12.1533C11.4019 12.36 11.0891 12.4588 10.7758 12.4261Z" fill="#F55252"/>
</g>
<defs>
<clipPath id="clip0_51_5231">
<rect width="12" height="12" fill="white" transform="translate(0 0.5)"/>
</clipPath>
</defs>
</svg>
