<svg width="30" height="30" viewBox="0 0 30 30" fill="none" xmlns="http://www.w3.org/2000/svg">
<g clip-path="url(#clip0_51_5618)">
<rect width="30" height="30" rx="15" fill="white"/>
<rect width="30" height="30" rx="15" fill="white"/>
<g clip-path="url(#clip1_51_5618)">
<path d="M25 15C25 19.9914 21.343 24.1285 16.5625 24.8785V17.8906H18.8926L19.3359 15H16.5625V13.1242C16.5625 12.3332 16.95 11.5625 18.1922 11.5625H19.4531V9.10156C19.4531 9.10156 18.3086 8.90625 17.2145 8.90625C14.9305 8.90625 13.4375 10.2906 13.4375 12.7969V15H10.8984V17.8906H13.4375V24.8785C8.65703 24.1285 5 19.9914 5 15C5 9.47734 9.47734 5 15 5C20.5227 5 25 9.47734 25 15Z" fill="#1877F2"/>
<path d="M18.8926 17.8906L19.3359 15H16.5625V13.1242C16.5625 12.3334 16.9499 11.5625 18.1921 11.5625H19.4531V9.10156C19.4531 9.10156 18.3088 8.90625 17.2146 8.90625C14.9304 8.90625 13.4375 10.2906 13.4375 12.7969V15H10.8984V17.8906H13.4375V24.8785C13.9466 24.9584 14.4684 25 15 25C15.5316 25 16.0534 24.9584 16.5625 24.8785V17.8906H18.8926Z" fill="white"/>
</g>
</g>
<defs>
<clipPath id="clip0_51_5618">
<rect width="30" height="30" rx="15" fill="white"/>
</clipPath>
<clipPath id="clip1_51_5618">
<rect width="20" height="20" fill="white" transform="translate(5 5)"/>
</clipPath>
</defs>
</svg>
