<svg width="44" height="44" viewBox="0 0 44 44" fill="none" xmlns="http://www.w3.org/2000/svg">
<g filter="url(#filter0_d_38_11867)">
<rect x="2" y="1" width="40" height="40" rx="12" fill="#0A0A0A"/>
<path d="M30.7148 18.67V23.215C30.7148 25.5625 28.7948 27.475 26.4323 27.475H19.6448L19.0898 27.91C19.4573 28.6525 20.2299 29.1625 21.1073 29.1625H26.5224L29.4023 31.42C29.5373 31.525 29.7024 31.5775 29.8673 31.5775C29.9799 31.5775 30.0923 31.555 30.1898 31.5025C30.4524 31.375 30.6173 31.1125 30.6173 30.8275V29.1325C31.6823 28.9525 32.4998 28.0225 32.4998 26.905V20.89C32.4998 19.8025 31.7348 18.895 30.7148 18.67Z" fill="#F9CF01"/>
<path d="M14.0125 25.9669V28.4494C14.0125 28.7344 14.1775 28.9969 14.4325 29.1244C14.5375 29.1694 14.65 29.1994 14.7625 29.1994C14.9275 29.1994 15.0925 29.1394 15.2275 29.0344L19.1275 25.9744H26.4325C27.97 25.9744 29.215 24.7369 29.215 23.2144V15.1819C29.215 13.6594 27.97 12.4219 26.44 12.4219H14.275C12.745 12.4219 11.5 13.6594 11.5 15.1819V23.2144C11.5 24.6544 12.6025 25.8319 14.0125 25.9669ZM20.3725 23.4994C19.96 23.4994 19.615 23.1619 19.615 22.7494C19.615 22.3369 19.9525 21.9994 20.365 21.9994H20.3725C20.785 21.9994 21.1225 22.3369 21.1225 22.7494C21.1225 23.1619 20.785 23.4994 20.3725 23.4994ZM18.865 15.4369C19.4425 14.9794 20.185 14.8144 20.9125 14.9794C21.79 15.1819 22.4875 15.8794 22.69 16.7569C22.915 17.7469 22.5175 18.7519 21.6775 19.3069C21.325 19.5394 21.1075 19.9744 21.1075 20.4394C21.1075 20.8594 20.77 21.1894 20.3575 21.1894C19.945 21.1894 19.6075 20.8594 19.6075 20.4394C19.6075 19.4644 20.0725 18.5719 20.845 18.0619C21.1 17.8894 21.3325 17.5519 21.2275 17.0944C21.1525 16.7794 20.89 16.5169 20.575 16.4419C20.1925 16.3519 19.93 16.5094 19.8025 16.6144C19.585 16.7869 19.465 17.0419 19.465 17.3119C19.465 17.7244 19.1275 18.0619 18.715 18.0619C18.295 18.0619 17.965 17.7244 17.965 17.3119C17.965 16.5769 18.295 15.8944 18.865 15.4369Z" fill="#F9CF01"/>
</g>
<defs>
<filter id="filter0_d_38_11867" x="0" y="0" width="44" height="44" filterUnits="userSpaceOnUse" color-interpolation-filters="sRGB">
<feFlood flood-opacity="0" result="BackgroundImageFix"/>
<feColorMatrix in="SourceAlpha" type="matrix" values="0 0 0 0 0 0 0 0 0 0 0 0 0 0 0 0 0 0 127 0" result="hardAlpha"/>
<feOffset dy="1"/>
<feGaussianBlur stdDeviation="1"/>
<feColorMatrix type="matrix" values="0 0 0 0 0 0 0 0 0 0 0 0 0 0 0 0 0 0 0.05 0"/>
<feBlend mode="normal" in2="BackgroundImageFix" result="effect1_dropShadow_38_11867"/>
<feBlend mode="normal" in="SourceGraphic" in2="effect1_dropShadow_38_11867" result="shape"/>
</filter>
</defs>
</svg>
