<svg width="24" height="25" viewBox="0 0 24 25" fill="none" xmlns="http://www.w3.org/2000/svg">
<g clip-path="url(#clip0_276_3551)">
<path d="M22.4348 5.23911H20.6878C20.9182 4.87442 21.0703 4.46506 21.1137 4.03212C21.2522 2.64851 20.5235 1.4082 19.283 0.858311C18.1427 0.352858 16.8613 0.559483 15.9385 1.39639L13.7326 3.39561C13.303 2.92573 12.6854 2.63042 12 2.63042C11.3134 2.63042 10.6948 2.92667 10.2651 3.398L8.05636 1.39616C7.13213 0.559249 5.85122 0.353421 4.71145 0.858593C3.47123 1.40853 2.74242 2.64926 2.88136 4.03283C2.92481 4.46544 3.07678 4.87461 3.30717 5.23911H1.5652C0.700734 5.23911 0 5.93989 0 6.80431V9.15214C0 9.58433 0.350391 9.93476 0.782625 9.93476H23.2174C23.6496 9.93476 24 9.58437 24 9.15214V6.80431C24 5.93989 23.2993 5.23911 22.4348 5.23911ZM9.65217 4.97825V5.23911H5.97047C4.99772 5.23911 4.23216 4.33226 4.47511 3.31948C4.58213 2.87347 4.90406 2.49326 5.32045 2.3008C5.89223 2.03651 6.52561 2.12136 7.00584 2.55603L9.65283 4.95519C9.65269 4.96292 9.65217 4.97051 9.65217 4.97825ZM19.5607 3.82433C19.5023 4.63775 18.7676 5.2392 17.9521 5.2392H14.3478V4.97834C14.3478 4.96911 14.3473 4.95997 14.3472 4.95073C14.9468 4.40717 16.2476 3.22817 16.9531 2.58866C17.3541 2.22523 17.9152 2.05559 18.4338 2.21028C19.178 2.43228 19.6151 3.06519 19.5607 3.82433Z" fill="black"/>
<path d="M1.5652 11.5V22.9783C1.5652 23.8428 2.26594 24.5435 3.1304 24.5435H10.4347V11.5H1.5652Z" fill="black"/>
<path d="M13.5652 11.5V24.5435H20.8695C21.734 24.5435 22.4347 23.8428 22.4347 22.9783V11.5H13.5652Z" fill="black"/>
</g>
<defs>
<clipPath id="clip0_276_3551">
<rect width="24" height="24" fill="white" transform="translate(0 0.564453)"/>
</clipPath>
</defs>
</svg>
