<svg width="72" height="72" viewBox="0 0 72 72" fill="none" xmlns="http://www.w3.org/2000/svg">
<rect width="72" height="72" rx="23" fill="#F9CF01"/>
<g clip-path="url(#clip0_38_10422)">
<mask id="mask0_38_10422" style="mask-type:luminance" maskUnits="userSpaceOnUse" x="15" y="15" width="42" height="42">
<path d="M15 15H57V57H15V15Z" fill="white"/>
</mask>
<g mask="url(#mask0_38_10422)">
<path fill-rule="evenodd" clip-rule="evenodd" d="M37.75 18.4995C37.75 17.533 36.9665 16.7495 36 16.7495C35.0335 16.7495 34.25 17.533 34.25 18.4995V19.3745C34.25 19.8578 33.8582 20.2495 33.375 20.2495H25.5C22.6005 20.2495 20.25 22.6 20.25 25.4995V46.4996C20.25 49.399 22.6005 51.7496 25.5 51.7496H33.375C33.8582 51.7496 34.25 52.1412 34.25 52.6246V53.4996C34.25 54.4659 35.0335 55.2496 36 55.2496C36.9665 55.2496 37.75 54.4659 37.75 53.4996V52.6246C37.75 52.1412 38.1653 51.7676 38.5891 51.5356C39.132 51.2384 39.5 50.662 39.5 49.9996C39.5 49.337 39.132 48.7606 38.5891 48.4634C38.1653 48.2314 37.75 47.8578 37.75 47.3746V24.6245C37.75 24.1413 38.1653 23.7676 38.5891 23.5356C39.132 23.2384 39.5 22.662 39.5 21.9995C39.5 21.3371 39.132 20.7606 38.5891 20.4634C38.1653 20.2314 37.75 19.8578 37.75 19.3745V18.4995ZM44.75 20.2495C43.7835 20.2495 43 21.033 43 21.9995C43 22.966 43.7835 23.7495 44.75 23.7495H46.5C47.4665 23.7495 48.25 24.533 48.25 25.4995V27.2495C48.25 28.216 49.0335 28.9995 50 28.9995C50.9665 28.9995 51.75 28.216 51.75 27.2495V25.4995C51.75 22.6 49.3996 20.2495 46.5 20.2495H44.75ZM51.75 34.2496C51.75 33.2831 50.9665 32.4995 50 32.4995C49.0335 32.4995 48.25 33.2831 48.25 34.2496V37.7496C48.25 38.7159 49.0335 39.4996 50 39.4996C50.9665 39.4996 51.75 38.7159 51.75 37.7496V34.2496ZM51.75 44.7496C51.75 43.7831 50.9665 42.9996 50 42.9996C49.0335 42.9996 48.25 43.7831 48.25 44.7496V46.4996C48.25 47.4659 47.4665 48.2496 46.5 48.2496H44.75C43.7835 48.2496 43 49.0331 43 49.9996C43 50.9659 43.7835 51.7496 44.75 51.7496H46.5C49.3996 51.7496 51.75 49.399 51.75 46.4996V44.7496Z" fill="#0A0A0A"/>
</g>
</g>
<defs>
<clipPath id="clip0_38_10422">
<rect width="42" height="42" fill="white" transform="translate(15 15)"/>
</clipPath>
</defs>
</svg>
