<svg width="72" height="72" viewBox="0 0 72 72" fill="none" xmlns="http://www.w3.org/2000/svg">
<rect width="72" height="72" rx="23" fill="#F9CF01"/>
<path d="M53.0628 34.2501V44.7501C53.1656 45.6367 53.0665 46.5351 52.7731 47.3781C52.4796 48.2211 51.9993 48.9868 51.3682 49.6179C50.737 50.2491 49.9713 50.7294 49.1284 51.0228C48.2854 51.3163 47.387 51.4153 46.5003 51.3126H25.5003C24.6137 51.4153 23.7152 51.3163 22.8723 51.0228C22.0293 50.7294 21.2636 50.2491 20.6324 49.6179C20.0013 48.9868 19.521 48.2211 19.2276 47.3781C18.9341 46.5351 18.835 45.6367 18.9378 44.7501V27.2501C18.835 26.3634 18.9341 25.465 19.2276 24.622C19.521 23.7791 20.0013 23.0134 20.6324 22.3822C21.2636 21.7511 22.0293 21.2708 22.8723 20.9773C23.7152 20.6839 24.6137 20.5848 25.5003 20.6876H39.5003C39.8484 20.6876 40.1822 20.8259 40.4284 21.072C40.6745 21.3181 40.8128 21.652 40.8128 22.0001C40.8128 22.3482 40.6745 22.682 40.4284 22.9282C40.1822 23.1743 39.8484 23.3126 39.5003 23.3126H25.5003C22.7406 23.3126 21.5628 24.4903 21.5628 27.2501V43.4376L26.0078 38.9926C26.3382 38.6647 26.7848 38.4807 27.2503 38.4807C27.7158 38.4807 28.1624 38.6647 28.4928 38.9926L30.1378 40.6376C30.3014 40.7979 30.5213 40.8877 30.7503 40.8877C30.9793 40.8877 31.1992 40.7979 31.3628 40.6376L40.0078 31.9926C40.3382 31.6647 40.7848 31.4807 41.2503 31.4807C41.7158 31.4807 42.1624 31.6647 42.4928 31.9926L50.4378 39.9376V34.2501C50.4378 33.902 50.5761 33.5681 50.8222 33.322C51.0684 33.0759 51.4022 32.9376 51.7503 32.9376C52.0984 32.9376 52.4322 33.0759 52.6784 33.322C52.9245 33.5681 53.0628 33.902 53.0628 34.2501ZM28.9881 28.5626C28.407 28.5642 27.8504 28.7964 27.4404 29.2081C27.0304 29.6198 26.8006 30.1774 26.8014 30.7584C26.8022 31.3394 27.0336 31.8964 27.4448 32.3069C27.8559 32.7175 28.4132 32.9481 28.9942 32.9481C29.5752 32.9481 30.1325 32.7175 30.5436 32.3069C30.9547 31.8964 31.1861 31.3394 31.1869 30.7584C31.1877 30.1774 30.9579 29.6198 30.5479 29.2081C30.138 28.7964 29.5813 28.5642 29.0003 28.5626H28.9881ZM47.4278 23.8026L47.8128 23.4193V27.2501C47.8128 27.5982 47.9511 27.932 48.1972 28.1782C48.4434 28.4243 48.7772 28.5626 49.1253 28.5626C49.4734 28.5626 49.8072 28.4243 50.0534 28.1782C50.2995 27.932 50.4378 27.5982 50.4378 27.2501V23.4193L50.8228 23.8026C51.0716 24.0344 51.4007 24.1606 51.7407 24.1546C52.0807 24.1486 52.4052 24.0109 52.6456 23.7704C52.8861 23.5299 53.0239 23.2055 53.0299 22.8655C53.0359 22.5255 52.9097 22.1964 52.6778 21.9476L50.0528 19.3226C49.8065 19.0772 49.473 18.9395 49.1253 18.9395C48.7776 18.9395 48.4441 19.0772 48.1978 19.3226L45.5728 21.9476C45.341 22.1964 45.2148 22.5255 45.2208 22.8655C45.2268 23.2055 45.3645 23.5299 45.605 23.7704C45.8454 24.0109 46.1699 24.1486 46.5099 24.1546C46.8499 24.1606 47.179 24.0344 47.4278 23.8026Z" fill="#0A0A0A"/>
</svg>
