<svg width="72" height="72" viewBox="0 0 72 72" fill="none" xmlns="http://www.w3.org/2000/svg">
<rect width="72" height="72" rx="23" fill="#F9CF01"/>
<path d="M46.5 41.25C45.615 41.2506 44.7447 41.4757 43.9704 41.9042C43.1961 42.3326 42.5431 42.9505 42.0725 43.7L30.4 37.8637C30.876 36.6668 30.876 35.3331 30.4 34.1362L42.0725 28.3C42.7507 29.362 43.7894 30.1436 44.9976 30.5011C46.2059 30.8587 47.5026 30.7683 48.6496 30.2464C49.7965 29.7245 50.7166 28.8063 51.2407 27.6604C51.7649 26.5145 51.858 25.218 51.5029 24.009C51.1477 22.8 50.3682 21.7598 49.3076 21.0794C48.247 20.3991 46.9764 20.1244 45.7295 20.3057C44.4825 20.487 43.3429 21.1123 42.52 22.0665C41.697 23.0207 41.2461 24.2399 41.25 25.5C41.25 25.5892 41.2728 25.675 41.2763 25.7607L28.839 31.975C27.9048 31.1865 26.7225 30.7528 25.5 30.75C24.1076 30.75 22.7723 31.3031 21.7877 32.2877C20.8031 33.2722 20.25 34.6076 20.25 36C20.25 37.3924 20.8031 38.7277 21.7877 39.7123C22.7723 40.6968 24.1076 41.25 25.5 41.25C26.7225 41.2471 27.9048 40.8134 28.839 40.025L41.2763 46.2445C41.2763 46.332 41.25 46.4195 41.25 46.5052C41.25 47.5436 41.5579 48.5586 42.1348 49.422C42.7117 50.2853 43.5316 50.9582 44.4909 51.3556C45.4502 51.7529 46.5058 51.8569 47.5242 51.6543C48.5426 51.4518 49.4781 50.9518 50.2123 50.2175C50.9465 49.4833 51.4466 48.5478 51.6491 47.5294C51.8517 46.511 51.7477 45.4554 51.3504 44.4961C50.953 43.5368 50.2801 42.7169 49.4167 42.14C48.5534 41.5631 47.5384 41.2552 46.5 41.2552V41.25Z" fill="#0A0A0A"/>
</svg>
