<svg width="244" height="97" viewBox="0 0 244 97" fill="none" xmlns="http://www.w3.org/2000/svg">
<g clip-path="url(#clip0_38_10219)">
<path d="M95.7176 0.483555C95.4411 0.685087 95.6024 1.13421 96.3802 1.03633L96.9275 0.270508L95.7234 0.483555H95.7176Z" fill="#F9CF01"/>
<path d="M100.914 1.88861C101.819 1.52585 102.873 0.886706 102.291 0.178467C101.387 0.90398 101.174 0.593046 100.2 1.46251C99.4279 1.54888 98.8575 1.21491 98.9842 0.93277C98.7135 1.12854 97.7859 0.765787 97.3711 1.2437C98.3735 1.83103 99.641 1.85982 100.972 1.37614C101.254 1.54888 100.978 1.74465 100.914 1.88285V1.88861Z" fill="#F9CF01"/>
<path d="M175.654 8.63134L175.193 8.46436C175.314 8.53345 175.476 8.58527 175.654 8.63134Z" fill="#F9CF01"/>
<path d="M219.682 21.7365C219.366 21.5925 219.204 21.5925 219.158 21.6444C219.464 21.748 219.723 21.8344 219.682 21.7365Z" fill="#F9CF01"/>
<path d="M225.604 26.5675C225.495 26.4524 225.397 26.3602 225.293 26.2566C225.379 26.4178 225.489 26.5503 225.604 26.5675Z" fill="#F9CF01"/>
<path d="M175.654 8.63135L176.841 9.0632C176.968 8.83288 176.242 8.78106 175.654 8.63135Z" fill="#F9CF01"/>
<path d="M111.324 0.21875C111.059 0.24754 110.84 0.316637 110.645 0.403007C110.858 0.374217 111.071 0.351185 111.284 0.339669C111.296 0.299363 111.307 0.264814 111.33 0.21875H111.324Z" fill="#F9CF01"/>
<path d="M155.289 6.59866L154.914 6.55835C154.793 6.6332 154.678 6.72533 154.568 6.83474L155.289 6.59866Z" fill="#F9CF01"/>
<path d="M139.635 5.3434C139.986 5.39522 140.159 4.76184 140.314 4.49121C140.095 4.74456 139.825 4.84821 139.508 4.877C139.49 4.99792 139.531 5.14763 139.635 5.3434Z" fill="#F9CF01"/>
<path d="M114.787 2.93652L114.344 3.01138C114.459 2.98835 114.655 2.96531 114.787 2.93652Z" fill="#F9CF01"/>
<path d="M166.426 8.0498C166.437 8.14769 166.483 8.23982 166.535 8.2974C166.547 8.21679 166.501 8.13618 166.426 8.0498Z" fill="#F9CF01"/>
<path d="M54.6346 11.5103C54.6173 11.5563 54.6346 11.5851 54.623 11.6254C54.721 11.5678 54.7556 11.5275 54.6346 11.5103Z" fill="#F9CF01"/>
<path d="M72.3665 17.4354L72.113 17.4124C72.0611 17.5275 72.0093 17.6369 71.9805 17.7521L72.3665 17.4296V17.4354Z" fill="#F9CF01"/>
<path d="M233.22 37.6174C233.22 37.6174 233.209 37.5828 233.203 37.5598C232.955 37.2777 233.07 37.4504 233.22 37.6174Z" fill="#F9CF01"/>
<path d="M141.703 90.8101C143.235 91.3053 139.294 91.6853 141.587 92.2035C141.368 91.9617 143.592 91.0692 141.703 90.8101Z" fill="#F9CF01"/>
<path d="M111.734 0.310843C111.948 0.310843 112.166 0.310843 112.38 0.322359C112.086 0.293569 111.884 0.287811 111.734 0.310843Z" fill="#F9CF01"/>
<path d="M141.588 92.2036L141.824 92.2554C141.726 92.2324 141.669 92.2209 141.588 92.2036Z" fill="#F9CF01"/>
<path d="M234.223 65.7338C234.355 65.7626 234.493 65.7223 234.632 65.6705C234.568 65.6359 234.476 65.6474 234.223 65.7338Z" fill="#F9CF01"/>
<path d="M237.76 44.4695L237.881 45.051C237.863 44.815 237.812 44.6307 237.76 44.4695Z" fill="#F9CF01"/>
<path d="M225.489 74.0886C225.183 74.2153 225.045 74.1923 224.711 74.4917C224.763 74.4974 224.809 74.4974 224.866 74.4917C224.959 74.3305 225.12 74.1865 225.489 74.0886Z" fill="#F9CF01"/>
<path d="M213.559 79.5935C213.639 79.6165 213.743 79.6165 213.835 79.6338C213.956 79.5762 214.094 79.5129 214.221 79.4553L213.564 79.5935H213.559Z" fill="#F9CF01"/>
<path d="M12.8828 17.5331C13.2515 17.5216 13.5281 17.6022 13.7643 17.7001C13.3379 17.418 15.147 16.203 12.8828 17.5331Z" fill="#F9CF01"/>
<path d="M111.324 0.581663C111.405 0.420438 111.526 0.339825 111.733 0.311035C111.578 0.311035 111.428 0.322551 111.284 0.334067C111.244 0.431954 111.232 0.518325 111.324 0.581663Z" fill="#F9CF01"/>
<path d="M227.592 78.7815C226.924 79.15 226.239 79.4494 225.564 79.7892C226.146 79.5358 226.895 79.2018 227.592 78.7815Z" fill="#F9CF01"/>
<path d="M50.9113 87.8621L50.4043 87.793C50.5829 87.8621 50.7615 87.8966 50.9113 87.8621Z" fill="#F9CF01"/>
<path d="M219.595 82.7142C219.14 82.6623 218.702 82.6854 218.265 82.7718C218.201 82.8524 218.115 82.9272 218.086 83.0193L219.59 82.7142H219.595Z" fill="#F9CF01"/>
<path d="M27.5219 11.4759C25.3844 11.8444 26.6807 12.4835 26.3293 13.0421C23.8923 13.8021 25.0445 12.6851 24.0882 12.4432C22.5557 13.0478 21.582 14.1361 20.4355 14.4758C20.3088 14.3722 20.0668 14.3952 20.2742 14.1419C19.5598 14.7177 18.3788 15.161 17.1747 15.6965C15.9821 16.2378 14.7722 16.8827 14.1039 17.7521C13.9369 17.7579 13.8389 17.7349 13.7698 17.6946C14.2653 17.9076 14.513 18.2646 14.6052 18.564C13.7698 19.0304 13.3895 19.9229 12.7789 19.635C13.2801 19.3414 13.2052 19.1283 13.3435 18.8289L12.6233 19.5659C12.0299 19.4968 12.2661 19.2262 12.6406 18.9498C13.0093 18.6677 13.4932 18.351 13.3435 18.0919C12.5484 18.7253 11.7706 19.5084 11.062 20.2627C10.3534 21.0112 9.70811 21.7137 9.08014 22.1571C8.89002 22.0707 8.94187 21.8634 9.10318 21.6043C9.27026 21.3567 9.55256 21.0745 9.79453 20.8269C10.2785 20.3375 10.6357 20.0151 9.60441 20.4008C10.2958 19.9632 10.9929 19.5429 11.7073 19.1801C9.4719 19.232 12.9805 18.4028 10.8143 18.2992C10.0999 18.708 9.59865 19.1398 9.17232 19.4853C8.76327 19.8711 8.44064 20.2108 8.12953 20.5563C7.5246 21.2818 6.91391 21.967 5.77895 23.1993C5.6522 24.0514 6.42997 23.4123 6.31474 24.253C5.78471 25.2779 5.3411 25.9113 4.92629 26.3604C4.48843 26.798 4.10819 27.0629 3.72219 27.2932C3.33618 27.5236 2.97899 27.7424 2.70245 28.1339C2.55842 28.3297 2.43743 28.5658 2.33373 28.8652C2.24155 29.1703 2.18394 29.5389 2.15513 29.988C2.23579 30.5005 2.51809 30.8862 2.62179 31.4045C2.72549 31.9285 2.63907 32.5618 2.08023 33.5695C1.84978 33.2413 1.6539 32.9188 1.4465 32.5906C0.985598 34.0129 1.23333 34.5311 1.36584 35.009C1.43498 35.2508 1.49259 35.4927 1.4465 35.8554C1.40617 36.2182 1.30247 36.7076 1.0144 37.4504C0.893419 37.1452 0.927986 36.5522 0.968315 36.0915C1.0144 35.6309 1.09506 35.3027 0.985599 35.51C-0.103276 37.3698 1.20453 37.0243 0.927986 38.5387L0.115651 38.7517C-0.218501 41.9878 0.29425 45.6153 1.06626 49.0874C0.801239 48.9377 0.449803 48.3562 0.363385 49.2371C0.951031 51.4713 1.60781 53.8321 2.50657 56.1007C3.38804 58.3694 4.42506 60.592 5.57731 62.5094C6.07853 62.8491 6.63161 63.1198 7.15012 63.4192C7.38634 63.7244 7.36905 64.1735 7.00033 63.9317C7.89332 65.423 7.37481 63.7301 8.10649 64.1793C8.78055 64.8529 8.67109 65.3769 8.10649 65.0602C8.71718 65.5209 9.43158 66.0909 10.2324 66.6667C11.0102 67.2713 11.8743 67.8759 12.7097 68.5151C13.5451 69.1542 14.3978 69.7588 15.141 70.3979C15.9072 70.9968 16.5755 71.6186 17.0998 72.2002C16.8981 72.1484 16.6965 72.0793 16.5006 72.016C18.3154 73.6052 19.4677 72.3845 20.9771 74.0543L20.5623 73.9334C21.5993 74.6877 22.7343 75.3268 23.8635 75.9833C25.01 76.5936 26.1507 77.2155 27.2799 77.7682C29.5153 78.9256 31.6181 79.9793 33.1794 81.2288C34.228 80.6473 37.6213 83.5723 38.4394 82.4207C39.6435 83.2672 40.041 83.6587 40.5884 84.0791C41.1357 84.4936 41.8213 84.9658 43.6533 85.8583C44.65 86.2844 45.4566 85.6165 46.7586 85.9101L46.557 86.5896L48.5101 86.4744C48.7175 86.8544 48.9479 87.1999 49.1668 87.5684L50.4343 87.7584C49.9619 87.5742 49.5068 87.1481 49.645 86.9754C51.6211 87.2345 54.0927 88.8352 54.0524 89.198C54.8301 89.3189 55.5964 89.4743 56.3799 89.5607L58.719 89.8083C58.5519 90.0617 57.7684 89.9753 57.1231 90.0098C59.7214 89.8832 57.3824 90.839 59.7618 90.7238C59.5025 90.4935 60.021 90.3496 60.1074 90.2229C60.6087 90.5626 61.4901 90.8851 62.4811 91.1557C62.9765 91.2881 63.5008 91.4148 64.0193 91.5184C64.5378 91.6106 65.0563 91.6624 65.5345 91.7085L65.0736 92.1173C66.7559 92.4973 68.5534 92.7737 70.4085 93.0443C71.3361 93.171 72.2694 93.338 73.22 93.4416C74.1706 93.5453 75.1212 93.6662 76.0776 93.8044C74.741 93.3841 75.1904 92.5894 76.3138 92.6701L76.6479 93.4762C77.4372 93.1192 75.5245 93.0271 77.0858 92.6816C78.4916 92.9695 77.9212 93.6662 77.0685 93.7871H78.8372C78.9064 94.0174 78.4858 94.075 78.3418 94.3399C79.1138 93.9714 81.2397 95.5376 82.3746 94.8466L82.4438 95.0769C86.275 95.4973 88.0379 95.4224 91.1605 95.7218C91.2815 95.0884 92.4856 95.3188 93.4593 94.8639C95.7292 95.2381 98.2353 95.9349 101.001 96.0846C102.96 95.8543 101.6 95.5606 102.493 95.2151C102.602 95.8082 105.362 95.8773 103.91 96.24C105.569 96.2631 106.629 96.2861 107.805 96.2573C108.392 96.2458 109.003 96.2228 109.735 96.1825C110.466 96.1479 111.313 96.0903 112.362 95.9809C111.912 95.7333 111.406 95.6182 111.676 95.4224C112.437 95.336 113.399 95.6988 113.284 95.9809L113.082 96.0385C115.444 95.6354 118.146 96.1076 120.744 96.5395C123.337 96.9195 125.826 97.2247 127.693 96.597L127.485 96.6604L131.362 95.9809C133.148 96.0212 130.302 96.4646 131.633 96.7813C135.799 95.647 138.264 96.6949 141.687 95.9061C143.064 96.6949 145.437 96.5222 147.914 96.2573C149.153 96.1249 150.421 95.9809 151.607 95.9061C152.794 95.8139 153.9 95.8082 154.822 96.0097L154.58 95.6182C155.479 95.1403 155.727 95.7564 156.418 95.7909C156.291 95.48 155.375 95.5088 155.934 95.2381C157.893 94.9387 159.892 94.766 161.909 94.5932C163.925 94.4032 165.97 94.2708 168.027 94.1671C169.058 94.1211 170.09 94.0693 171.115 94.0232C172.146 93.9483 173.178 93.8792 174.203 93.8044C176.26 93.6604 178.317 93.505 180.345 93.3092C183.306 92.9061 181.664 90.9254 185.518 91.2478L184.602 92.1806C186.042 91.6969 187.517 91.3284 189.009 91.0117C190.496 90.6547 191.994 90.338 193.497 90.0386C194.995 89.7277 196.493 89.4455 197.962 89.077C199.426 88.6855 200.866 88.2709 202.243 87.6951C201.949 87.9542 201.995 88.1788 201.436 88.3227C202.11 88.4321 203.234 88.15 204.173 87.7815C205.112 87.4014 205.861 86.9293 205.809 86.7105C206.708 86.5089 206.126 87.0444 206.737 87.1135C208.045 87.0963 209.554 85.5243 210.361 85.8583C210.499 85.9101 210.078 86.1347 209.871 86.2441C210.579 85.7719 213.541 85.104 212.59 84.7585C214.808 84.3267 216.519 83.0656 218.317 82.7374C218.518 82.461 218.853 82.2595 219.239 82.0868C219.619 81.9025 220.051 81.7471 220.454 81.5973C221.267 81.2922 221.975 81.0043 221.923 80.4572C222.067 80.964 223.053 80.7221 224.141 80.2154C225.225 79.7029 226.371 78.8565 226.884 78.3153C226.619 78.8392 228.128 77.9525 227.863 78.6204C228.578 78.1828 229.24 77.7394 229.643 77.3364C230.047 76.9276 230.202 76.6051 229.932 76.4612C231.562 76.1502 232.685 74.9813 233.642 73.9622C234.108 73.4267 234.54 72.9315 235.007 72.5687C235.474 72.206 235.946 71.9296 236.551 71.9008C239.847 67.9105 241.978 63.3731 242.733 58.8358C242.975 58.9337 243.027 59.2964 242.975 59.7916C242.923 60.2868 242.791 60.9144 242.572 61.5018C242.37 62.0948 242.186 62.6822 242.082 63.1313C241.967 63.5689 241.978 63.8798 242.243 63.9489C242.341 63.6783 242.439 63.4192 242.52 63.1601C242.583 62.8952 242.647 62.6361 242.71 62.3827C242.831 61.876 242.929 61.3924 243.027 60.9202C243.125 59.9586 243.246 59.0776 243.275 58.2024C243.286 57.7648 243.298 57.3272 243.309 56.8838C243.321 56.665 243.332 56.4462 243.344 56.2216C243.344 55.9971 243.338 55.7725 243.332 55.5422C243.332 55.0873 243.338 54.6209 243.367 54.1315C243.396 53.642 243.355 53.1411 243.378 52.5998C243.476 51.477 243.856 53.2102 244.041 53.6017C243.885 52.5019 243.845 51.4194 243.655 50.383C243.58 49.8648 243.511 49.3465 243.442 48.8341C243.338 48.3331 243.234 47.8322 243.131 47.337C242.952 46.3351 242.652 45.3965 242.341 44.4752C242.059 43.5424 241.621 42.6902 241.177 41.8611C241.27 41.838 241.512 42.1778 241.719 42.5117C241.431 41.8323 241.264 40.8419 240.855 41.0953L241.224 41.7229C241.103 42.3966 240.526 41.8265 239.91 41.1413C239.265 40.4619 238.596 39.65 238.406 39.6673C239.265 39.9436 238.994 39.0857 238.758 38.2968C238.51 37.5253 238.331 36.794 239.541 37.2834C239.242 36.8919 238.769 36.46 238.539 36.7076C238.297 36.0397 238.36 35.746 239.005 36.224C238.303 35.1126 237.917 34.8535 237.588 34.5944C237.26 34.3353 236.977 34.0935 236.396 33.0801C236.597 32.9707 236.908 33.3334 237.26 33.4083C236.298 32.5906 235.278 31.8478 234.379 30.0974C234.558 30.1204 234.587 29.8325 234.898 30.3277C234.661 29.9765 234.425 29.654 234.172 29.3373C233.895 29.0206 233.613 28.7155 233.331 28.4276C233.06 28.1339 232.766 27.869 232.461 27.6214L231.573 26.8729C230.346 25.9286 229.142 24.99 227.8 23.6772C229.286 23.5966 227.005 22.6119 227.333 21.8288C226.717 21.5064 226.118 21.1667 225.501 20.873C225.657 21.1321 225.801 21.4027 225.945 21.6734C225.225 21.1552 224.424 20.8615 223.692 20.5275C222.949 20.2223 222.246 19.9229 221.664 19.422L222.966 19.7675C221.993 19.2492 221.002 18.7886 220.011 18.3337L221.491 19.4853C219.728 19.0592 221.14 20.5275 219.227 19.2492C219.682 19.3702 217.7 18.4892 217.095 17.6485H217.101C216.202 17.5621 215.309 17.4412 214.215 16.7733C214.013 16.3932 214.826 15.9959 214.699 15.7483C213.65 16.0766 210.862 14.424 209.589 14.8098C209.98 14.758 210.153 14.3434 210.073 14.2167L209.214 14.5334C208.529 14.09 208.448 13.9691 208.684 13.6697C206.443 12.8002 209.059 14.9365 206.512 13.6006C206.737 13.6236 206.662 13.5085 207.134 13.5718C204.496 12.4317 201.771 12.282 199.328 11.3262C198.809 10.284 201.592 11.7235 200.935 10.7849C197.231 9.91545 193.1 9.82908 189.591 8.87325L190.237 9.11508C189.493 10.1976 187.707 7.95772 185.783 8.16501C186.244 8.16501 186.498 7.61223 186.348 7.72164C183.934 7.04795 181.272 7.0537 177.493 6.81187L178.005 6.58154C176.6 6.06332 174.215 5.80421 172.665 5.43569C172.152 5.67177 171.265 5.49327 171.743 6.02301C167.146 3.54706 162.392 5.7236 158.267 3.77162C158.78 3.82344 159.529 3.63343 159.114 3.58736L155.41 3.47796C155.646 4.03649 155.859 3.84647 156.585 4.34167C156.09 4.60654 155.03 4.74473 154.119 4.6526C155.802 4.4741 154.194 3.80041 153.509 3.43189C153.612 3.60464 153.347 3.7601 153.393 3.93284C151.567 2.80427 152.967 4.96353 150.415 4.08255L150.582 3.81768C149.591 3.86951 148.652 4.15741 147.603 3.98467C147.217 3.33401 148.669 3.78889 148.784 3.2937C147.292 3.19581 145.754 4.20347 144.464 3.47796C145.109 3.35704 146.013 3.4319 146.659 3.31673C145.253 2.4703 145.068 2.63728 143.991 2.44151L144.095 2.46454L141.6 1.94056L142.228 2.1824C140.246 3.64494 138.414 2.19392 135.839 3.08065C138.339 2.2515 136.283 2.53364 136.513 1.84843C135.885 1.61235 134.923 1.33597 135.211 1.15747C133.99 1.64114 133.252 0.593179 131.53 1.31293C131.466 1.08261 130.262 1.22081 130.562 0.673792C129.006 0.765921 130.907 1.08261 130.758 1.359C128.344 1.99238 125.209 0.132536 121.735 1.04231C118.763 1.359 118.192 2.09603 115.444 2.38393C114.534 1.99814 116.228 1.58932 116.228 1.58932C114.747 1.20929 113.624 1.23808 112.212 1.45689C112.5 1.26687 112.212 1.09413 111.792 0.829259C110.662 0.863807 111.02 1.62387 109.539 1.26111C109.798 1.01352 110.138 0.621969 110.685 0.38589C109.349 0.558631 108.029 0.955936 106.647 1.13444C106.29 0.73713 107.488 0.552873 107.978 0.311035C106.428 0.454986 103.956 0.604695 103.472 1.21505L104.463 1.45113C103.899 1.47416 104.181 0.91563 104.596 0.806227C105.927 0.339825 106.503 1.04806 106.578 1.27839L105.598 1.40506C106.583 2.73517 109.533 1.26111 111.509 1.38779L110.662 2.32635L112.702 1.58356C113.122 1.84267 113.405 2.38969 112.425 2.50485C113.825 3.01732 113.687 2.19967 114.88 2.76396C115.012 2.85033 114.949 2.8964 114.822 2.93095L116.21 2.68911C115.934 2.87912 116.418 3.37431 115.577 3.20733C118.031 3.83496 119.586 2.62577 120.491 3.39159L120.284 3.44341C123.729 3.25915 120.641 2.75245 123.256 2.03845L124.91 3.85223L125.279 3.16702C125.63 3.20733 126.327 3.2937 126.183 3.57009C127.525 3.15551 125.976 3.2534 126.759 2.83882C128.43 3.55857 131.472 2.78699 131.795 3.93284C132.434 3.43765 130.193 3.42614 132.031 3.16127C132.48 4.39349 134.145 3.08065 135.666 3.73131C135.148 4.31863 133.702 3.8983 135.217 4.54896C136.225 3.55857 138.224 4.98081 139.543 4.87141C139.664 4.04225 142.412 4.72745 144.631 4.62957C144.469 4.89444 148.721 5.43569 150.732 5.93089L150.657 6.06332C151.129 5.26295 153.221 5.61419 154.77 5.60268C154.661 6.09787 154.361 6.27061 153.514 6.4088L154.949 6.55275C155.318 6.31667 155.779 6.21879 156.723 6.22455L156.297 6.81187C158.21 6.98461 160.226 6.49517 162.634 7.20917C162.848 6.63913 160.872 5.34356 163.527 5.26871C163.585 5.59692 163.614 6.14969 162.917 6.19576C163.147 6.18424 163.746 6.03453 164.178 6.22455L163.072 6.62761C164.161 7.00188 163.712 6.25334 164.605 6.42032C164.53 6.86945 165.227 6.82338 165.054 7.16886C164.818 7.18614 164.299 6.88672 163.931 7.01916C164.927 7.22069 166.114 7.64678 166.466 8.04409C166.414 7.77346 166.546 7.43949 167.29 7.47404C169.202 7.6986 167.871 8.10167 168.943 8.48746C169.444 8.23986 170.614 8.73505 170.741 8.06712C171.299 8.14773 171.351 8.47594 171.541 8.69475C172.567 8.53928 176.139 9.31086 175.148 8.42988L174.906 8.34351C174.958 8.33775 175.01 8.34351 175.073 8.34351C178.409 8.18228 181.693 9.83484 184.913 10.1688L184.867 10.3934C186.814 10.5028 189.102 11.0901 190.553 10.9173C191.112 11.0383 191.781 11.6141 191.481 11.8214C192.95 11.9883 193.181 11.7695 195.157 12.639C193.624 12.6678 195.571 13.0939 193.613 12.5642C195.427 13.2033 195.75 13.6582 197.887 13.5718C197.069 13.9576 199.086 14.6428 199.996 14.7234C199.61 14.4643 199.213 14.2225 198.821 13.9691C199.829 14.1419 200.67 14.4528 201.523 14.7407L200.843 15.3453C201.713 15.829 202.583 16.1111 203.453 16.2954C204.323 16.4681 205.175 16.5602 205.999 16.6696C206.823 16.7675 207.612 16.8942 208.338 17.1533C209.064 17.4067 209.721 17.7809 210.268 18.4143C211.415 18.2704 208.436 17.3203 209.508 17.0554C210.332 17.4124 211.075 18.0285 211.674 18.5583C212.268 19.1053 212.711 19.5947 212.965 19.6984C214.002 20.3433 214.607 20.3375 215.258 20.2972C215.909 20.2569 216.583 20.2281 217.654 20.9133C217.481 20.539 217.528 19.7099 219.36 20.3663C220.915 21.2991 220.742 22.4046 219.659 22.0707C219.273 21.8922 219.135 21.7194 219.193 21.6503C218.639 21.4718 217.931 21.23 218.409 21.8173L218.737 21.6791C219.4 22.3125 221.48 23.4814 220.76 23.5908C222.021 24.0169 221.48 23.4872 220.702 22.8768C222.43 24.3278 223.681 24.6963 225.328 26.2683C225.144 25.9286 225.069 25.4679 225.351 25.6925C225.95 26.2798 226.348 26.5907 226.619 26.775C226.884 26.965 227.045 27.0053 227.195 27.0111C227.483 27.0341 227.748 26.8902 228.606 27.6387C229.206 28.8537 227.61 28.0015 229.384 29.3834C230.047 30.5868 229.01 30.0628 228.52 29.8325C228.929 30.1089 229.275 30.4371 229.557 30.7826C229.811 31.1454 230.006 31.5254 230.173 31.8824C230.508 32.6482 230.709 33.4601 230.992 33.9726L230.214 33.1664C230.68 33.6501 230.969 34.105 231.262 34.5656L231.383 33.7422C231.654 34.3411 231.954 34.8075 231.752 34.9111C232.409 35.2969 232.271 33.9841 233.365 34.8881C233.555 35.7863 234.984 37.0474 234.466 37.6692C233.342 35.1702 233.987 38.2738 232.737 36.3391C233.031 36.6788 233.302 37.1452 233.544 37.7556C233.521 37.8765 233.365 37.7498 233.238 37.6174C233.567 38.9014 233.855 39.0684 234.258 39.2124C234.454 39.2872 234.673 39.3506 234.915 39.5521C235.151 39.7536 235.445 40.0761 235.698 40.6922C235.191 40.5598 235.243 41.5789 235.491 41.9302C235.071 40.9571 235.906 41.1816 236.597 41.9705C236.816 42.8169 236.989 43.2373 237.214 43.5424C237.427 43.8476 237.64 44.0491 237.778 44.481L237.559 43.4618C237.813 43.5539 238.003 43.8073 238.193 44.1816C238.291 44.3658 238.389 44.5789 238.498 44.815C238.591 45.0568 238.694 45.3159 238.804 45.598C238.527 45.7881 238.291 44.6134 238.274 45.0683C238.804 45.598 238.838 46.3869 238.861 47.2218C238.827 48.0682 238.775 48.955 239.178 49.8072C239.011 50.6766 238.429 50.0087 238.331 50.74C238.521 51.2064 238.608 51.5807 238.625 51.9031C238.614 52.2256 238.55 52.4962 238.487 52.7668C238.354 53.3081 238.245 53.8436 238.377 54.8397C238.959 54.2985 238.833 54.1487 239.288 55.6574L239.19 53.9415L238.936 52.2428L239.38 53.3253L239.605 53.8839L239.772 54.4482C239.829 53.9242 239.697 53.3599 239.605 52.8589C239.501 52.358 239.449 51.9146 239.443 51.5979C239.968 52.6286 239.801 52.548 240.244 51.9952C240.054 52.381 239.991 52.7495 240.002 53.1181C240.002 53.4866 240.117 53.8551 240.158 54.2351C240.215 54.6151 240.279 55.0067 240.284 55.4098C240.284 55.6113 240.284 55.8186 240.244 56.0201C240.192 56.2216 240.123 56.4232 240.019 56.6247L238.677 56.3886C238.228 57.5287 238.141 58.5479 237.997 59.7168C237.945 60.0047 237.894 60.2983 237.836 60.5977C237.773 60.8972 237.726 61.2196 237.6 61.5248C237.484 61.8357 237.352 62.1524 237.202 62.4749C237.122 62.6361 237.047 62.8031 236.949 62.9643C236.839 63.1198 236.73 63.281 236.609 63.4365C236.851 63.1831 237.11 62.9355 237.312 62.6591C237.473 62.9816 237.231 63.4307 236.908 63.9086C236.747 64.1505 236.574 64.4038 236.413 64.6629C236.246 64.9163 236.067 65.1524 235.958 65.4C235.647 65.0602 235.122 65.4863 234.644 65.6648C234.806 65.757 234.425 66.1946 234.051 66.7128C233.866 66.9719 233.694 67.254 233.59 67.5247C233.48 67.7895 233.429 68.0314 233.544 68.2444L232.08 68.849C231.55 69.2463 231.182 69.6148 230.917 69.9891C230.652 70.3691 230.462 70.7377 230.254 71.0947C229.845 71.8029 229.476 72.586 228.313 73.2424C228.687 72.3902 227.541 72.799 228.756 71.515C228.059 72.0159 227.35 72.3614 227.518 72.6378C226.97 72.7012 225.789 74.4458 224.873 74.4919C224.654 74.8547 224.775 75.3211 223.876 75.7644C223.738 75.7356 223.773 75.5629 223.773 75.5629C223.876 75.7587 222.534 76.5763 223.542 76.6051C221.987 76.6166 220.293 77.4746 218.576 78.2634C217.735 78.678 216.871 79.035 216.07 79.3056C215.269 79.582 214.509 79.7202 213.84 79.6339C212.953 80.0427 211.968 80.486 210.983 80.8661C210.003 81.2576 209.035 81.6319 208.183 81.8968C208.252 81.7355 208.119 81.6779 208.459 81.6261C205.994 81.9313 207.399 83.342 204.559 83.6472C202.98 83.3305 205.884 82.8584 204.951 82.8353C204.559 82.1674 203.77 82.4495 202.808 82.8468C201.845 83.2326 200.716 83.7393 199.702 83.5493L200.123 83.3478C198.608 83.1923 196.862 84.7585 194.517 85.1155C194.517 85.1155 194.598 84.96 194.483 84.8909C193.071 85.9619 190.133 86.8659 187.938 87.5108C188.525 86.8199 188.894 87.0041 188.358 86.5147C187.373 86.7796 188.837 87.4015 186.86 87.9197C186.146 87.7181 184.654 87.6951 184.349 87.102L186.227 86.7393C185.115 86.1001 183.79 87.1942 182.77 87.2287L182.833 86.8544C179.97 87.4705 180.074 88.4033 176.934 88.7719L177.297 88.9964C175.712 90.125 175.787 88.7028 174.174 89.6068L173.535 88.7776C172.987 88.9734 172.025 89.3131 170.954 89.6932C169.882 90.0674 168.684 90.3841 167.676 90.5914C168.211 90.1883 169.064 89.8371 169.957 89.5147C170.85 89.1864 171.778 88.8467 172.486 88.5531C171.927 88.6279 170.982 88.7834 170.107 88.9791C169.231 89.1519 168.43 89.3765 168.165 89.6298C168.609 89.4916 169.15 89.2037 169.611 89.2958C168.327 90.1596 166.546 90.7181 164.305 90.9599C164.409 90.0617 162.94 90.1192 161.223 90.2517C159.506 90.3611 157.536 90.505 156.666 89.9004C154.713 90.3956 152.742 90.505 150.686 90.5281C148.623 90.5165 146.486 90.4359 144.175 90.6317C145.892 91.8985 142.827 90.7526 143.19 92.1403C142.113 92.2958 141.704 92.2958 141.6 92.2152C140.494 91.9964 139.394 91.7373 138.287 91.5012C137.498 91.1211 139.301 91.1557 139.186 90.8448C136.824 90.8217 138.172 90.2805 136.599 89.9638C136.939 90.4532 135.804 90.7123 134.456 90.5684L136.369 91.1499C133.091 92.0079 133.483 90.0905 130.187 90.9081L131.23 90.4532C129.53 90.7411 124.95 90.505 123.285 91.6566C122.98 91.4954 122.582 91.1154 123.331 91.006C121.292 90.9657 119.028 91.2075 116.867 91.409C114.707 91.6106 112.656 91.743 111.083 91.3687L111.4 91.029C110.639 91.1096 110.057 91.6221 109.118 91.2363C109.17 91.0981 109.435 90.9081 109.084 90.8678C108.68 90.9657 107.044 91.3803 106.042 91.1384L106.918 90.7872C104.941 90.4762 103.415 90.6432 101.951 90.8966C100.488 91.1499 99.1053 91.4263 97.4287 91.4321C97.5094 90.4187 94.4214 89.8601 92.8831 89.5837L92.9523 89.4455C91.8 89.3419 90.7457 89.2498 89.726 89.221C88.7062 89.1922 87.7326 89.2095 86.7647 89.244C85.7968 89.2843 84.8347 89.3246 83.8495 89.3707C83.354 89.388 82.8528 89.411 82.3401 89.411C81.8331 89.3995 81.3088 89.388 80.773 89.3592C79.5286 88.6222 77.3278 88.1903 74.9196 87.7872C73.7097 87.6087 72.4711 87.3381 71.267 87.0732C70.0686 86.8026 68.9106 86.5089 67.9024 86.1635C68.5016 86.4629 67.6489 86.9178 66.8827 86.8775C66.4102 86.6875 65.6958 86.7278 65.1428 86.7105C64.5954 86.6702 64.2037 86.5723 64.3823 86.1347L64.7222 86.2326C64.1864 85.1673 62.1584 84.9313 60.6202 84.5397L60.0729 85.6568C59.1684 84.9715 58.0219 84.5627 56.8408 84.1654C55.6598 83.7566 54.3923 83.4687 53.1709 83.1981C51.9553 82.9217 50.7858 82.6914 49.8236 82.3516C48.8615 81.9946 48.101 81.5743 47.692 81.0158C46.6377 80.9697 45.4624 80.5321 44.4138 80.4803L44.6904 79.8872C42.1266 78.7529 40.8534 78.1943 37.6213 77.0197L38.4452 76.8585C36.6822 76.0754 35.4493 77.6473 33.7843 76.9391L33.6922 75.8335C30.5868 74.4401 27.9655 72.1657 24.6873 71.2789C24.8083 71.181 25.033 70.991 25.517 71.2213C25.1828 71.0198 24.7046 70.6916 24.1803 70.3404C23.6618 69.9776 23.1088 69.5745 22.5787 69.2521C21.5244 68.6072 20.6429 68.1811 20.4932 68.9008C20.9368 68.1753 17.7393 66.9086 16.1261 66.0276L16.7484 65.7051C15.8957 65.5612 15.4463 65.4921 14.9739 65.3251C14.513 65.1466 13.9945 64.9048 13.1706 64.2311C12.871 63.8165 13.2167 63.5574 13.5739 64.1389C12.6291 62.7397 12.1912 63.6725 11.0793 61.9394L11.8916 62.2158C10.7739 60.9375 10.7451 61.1563 9.76573 60.7302C8.85545 60.0565 7.97974 57.9894 8.37727 57.4711C7.96822 57.4711 7.0349 56.9241 6.74684 55.9337C6.87935 55.7149 7.16741 55.974 7.31144 56.1007C6.83326 54.7706 6.29746 53.8954 5.77895 53.0893C5.34109 52.2601 4.88596 51.5173 4.97814 50.4866C5.17402 50.3945 5.24892 50.2448 5.27196 50.0778C5.76167 52.2198 6.48182 53.8493 6.37236 53.7169C6.64314 53.6017 6.63161 53.1296 6.71803 52.8186C6.83326 52.4904 6.98881 52.358 7.63407 52.8186C7.38057 52.5538 7.1386 52.2256 6.8563 51.8628C6.58552 51.4943 6.24561 51.1027 6.02092 50.6536C5.77319 50.216 5.54274 49.7554 5.36414 49.2947C5.22587 48.8226 5.13369 48.3562 5.12793 47.9243C5.16826 47.8322 5.21435 47.7458 5.28924 47.6709L5.38719 47.8322C5.36414 47.4406 5.27772 47.1009 5.15097 46.7784C5.19706 46.2257 5.22587 45.8802 5.1913 45.362C5.69253 45.1316 5.36414 43.3697 5.47937 42.4945C4.82835 42.5463 4.98966 41.3774 4.40201 42.4484C4.45386 42.3102 4.47115 42.6211 4.47115 43.22C4.47691 43.3582 4.48843 43.5136 4.53452 43.6C4.51724 43.5827 4.49419 43.5597 4.47691 43.5367C4.523 44.124 4.523 44.8898 4.5979 45.7535C4.21189 45.0798 3.94111 44.3198 4.27527 43.3236C3.8835 42.8572 3.48022 42.316 3.29009 42.005C4.22341 40.767 5.05303 38.4984 5.68677 38.2796C5.78471 35.533 6.96 31.9112 6.55096 29.965C6.71803 29.1761 7.25383 29.3085 7.54765 29.1473C7.43819 29.5849 7.2135 30.0513 7.28263 30.3335C7.32296 30.1492 7.38057 29.9419 7.44971 29.7231C7.53613 29.5158 7.62831 29.2913 7.72049 29.0609C7.89909 28.5945 8.16986 28.1454 8.37727 27.702C8.60196 27.2702 8.82088 26.8671 8.94187 26.5044C9.08014 26.1646 9.13199 25.8652 9.02253 25.6579C9.79453 25.013 9.77725 25.3816 9.74844 25.5888C9.73116 25.8077 9.71388 25.9171 10.5493 24.8979L10.4974 25.3355C11.6266 24.6388 12.4793 23.9075 13.3089 23.159C14.1327 22.4046 14.8875 21.5928 15.7517 20.8385C17.4512 19.3183 19.5829 17.9191 22.7458 17.8846C22.3137 17.8961 22.0948 17.9134 21.9738 17.804C25.3902 17.1303 28.8585 16.2954 32.4362 15.7656C35.9967 15.2359 39.6378 15.0171 43.106 15.6505C45.0764 15.9153 45.2953 15.3856 46.5224 15.0056L46.9257 15.7196C47.6228 15.4777 48.3257 15.2416 49.0286 15.0113C52.0244 14.5967 53.9602 17.0439 57.7511 16.3529L57.3248 15.8347C58.6441 16.065 61.5708 16.0881 61.2712 16.5948C61.4152 16.5314 61.7724 16.1687 62.2564 16.4854L62.2449 16.8539C63.3568 16.8021 64.4687 16.7675 65.5864 16.7387C68.0522 17.4297 64.9642 18.0804 68.5822 18.8059C69.9534 18.9095 72.6036 18.5468 72.16 18.207C71.6299 18.0688 70.8233 17.6888 70.8579 17.3261L72.1369 17.4067C72.3616 16.9057 72.7879 16.4508 72.7879 15.9326C72.7764 15.4144 72.3328 14.8328 70.8406 14.1534L68.5419 14.3837L67.9312 13.7446L69.769 14.0497C68.8184 13.3703 68.0752 13.6812 67.2859 13.8424C67.1592 13.543 66.8827 13.2954 66.4678 13.1227L64.1634 13.7906C63.9675 13.3357 65.2522 13.1169 63.8465 12.6678C62.7691 12.9845 64.6703 13.7388 62.965 13.8021C61.9914 13.1687 62.3486 12.8175 61.0638 13.0651C60.9255 12.7714 61.2136 12.6275 61.7148 12.5757C60.5741 12.7542 58.7939 12.3338 58.1601 12.8405C57.1346 12.1093 54.4441 12.6045 54.6458 11.6141C54.2771 11.8214 52.6351 12.2359 51.6211 12.2072C52.589 11.6659 51.6442 11.5795 50.5207 11.4759C49.4031 11.3722 48.1068 11.2743 48.3833 10.6352C47.6632 11.1477 46.413 11.2168 45.036 11.2456C43.6533 11.2801 42.1324 11.2686 40.9167 11.5968C41.0493 11.5104 41.32 11.3319 41.539 11.3838C40.1563 11.3031 39.7472 10.998 38.8485 10.8137C38.6987 11.7177 36.5613 12.0114 35.4493 12.662C33.6979 11.9193 36.3999 11.5277 35.8181 10.7331C35.8872 11.0958 35.1555 11.3319 34.493 11.5507C33.8304 11.7753 33.2313 11.9883 33.5481 12.2647C32.2 11.8502 32.4074 12.1208 31.6527 11.4471C31.5605 12.5872 30.4601 11.7868 29.4807 12.6275C27.5219 12.3684 28.8239 11.6486 26.819 12.3511C26.2947 12.282 26.4733 12.0517 26.7844 11.8502C27.0955 11.6486 27.5449 11.4644 27.5449 11.4644L27.5219 11.4759ZM1.2679 49.0817H1.25638C1.1642 48.6556 1.0893 48.2871 1.03745 48.0567C1.08354 48.2698 1.15267 48.5634 1.2679 49.0817ZM2.32797 53.2102C2.25883 52.9626 2.17241 52.6804 2.07447 52.3868C1.98229 52.0874 1.91316 51.7649 1.82098 51.4309C1.99958 51.2294 2.26459 51.3273 2.35677 51.7361C2.25883 51.644 2.23579 51.8455 2.24155 52.1565C2.25883 52.4616 2.31644 52.8705 2.32797 53.2044V53.2102ZM5.31229 44.2852C5.41599 44.861 5.29501 45.0568 5.1625 45.1432C5.14521 44.8725 5.11641 44.5501 5.05879 44.1297C5.03575 44.1125 5.00694 44.0779 4.97814 44.0606C5.10488 44.1125 5.22011 44.1758 5.30653 44.2852H5.31229Z" fill="#F9CF01"/>
<path d="M4.45369 43.2315C4.44217 43.1451 4.41913 43.099 4.41913 42.9839C4.35575 43.1048 4.3039 43.22 4.25781 43.3409C4.32119 43.4157 4.39032 43.4906 4.45946 43.5539C4.44793 43.4445 4.45946 43.3351 4.45946 43.2315H4.45369Z" fill="#F9CF01"/>
<path d="M175.112 8.43563L175.193 8.46442C175.129 8.42988 175.066 8.39533 175.031 8.34351C175.083 8.38381 175.077 8.40109 175.112 8.43563Z" fill="#F9CF01"/>
<path d="M46.4826 86.7736L46.5287 86.6182L46.1484 86.6354L46.4826 86.7736Z" fill="#F9CF01"/>
<path d="M153.468 3.44905C153.433 3.38571 153.353 3.32237 153.197 3.25903C153.203 3.3051 153.324 3.37419 153.468 3.44905Z" fill="#F9CF01"/>
<path d="M143.944 2.45286L142.613 2.1189C143.189 2.2974 143.61 2.38952 143.944 2.45286Z" fill="#F9CF01"/>
<path d="M136.628 1.59487C136.53 1.70427 136.496 1.78488 136.467 1.85974H136.478L136.628 1.58911V1.59487Z" fill="#F9CF01"/>
<path d="M241.672 42.552C241.712 42.6499 241.758 42.742 241.804 42.8226C242.167 43.4445 241.954 43.0069 241.672 42.552Z" fill="#F9CF01"/>
<path d="M217.066 17.6829C217.458 17.7232 217.833 17.7923 218.219 17.8959C217.671 17.5735 217.239 17.3547 217.066 17.6829Z" fill="#F9CF01"/>
<path d="M227.811 78.6607C227.811 78.6607 227.811 78.6607 227.811 78.6492C227.736 78.6952 227.667 78.7355 227.592 78.7816L227.811 78.6607Z" fill="#F9CF01"/>
<path d="M219.694 18.6273C219.192 18.2242 218.697 18.0284 218.225 17.896C218.668 18.1609 219.192 18.4776 219.694 18.6273Z" fill="#F9CF01"/>
<path d="M104.763 0.0287902L104.411 0C104.411 0.0403063 104.394 0.0748546 104.365 0.103645L104.763 0.0287902Z" fill="#F9CF01"/>
<path d="M104.364 0.10376L103.967 0.172856C104.145 0.172856 104.307 0.172856 104.364 0.10376Z" fill="#F9CF01"/>
<path d="M103.139 0.328242L103.968 0.172775C103.68 0.172775 103.329 0.143984 103.139 0.328242Z" fill="#F9CF01"/>
<path d="M114.498 0.541357L114.619 0.311035C114.556 0.3571 114.515 0.431954 114.498 0.541357Z" fill="#F9CF01"/>
<path d="M117.459 0.570066C116.756 0.489453 115.702 0.0115356 114.711 0.126696L114.613 0.310954C115.086 -0.0230127 116.774 0.93858 117.454 0.570066H117.459Z" fill="#F9CF01"/>
<path d="M129.651 4.01909L127.197 3.70239C127.617 3.97302 128.164 4.33578 127.041 4.34154C130.106 5.24555 126.43 3.7427 129.651 4.01909Z" fill="#F9CF01"/>
<path d="M137.267 4.84839C135.936 4.87142 137.256 5.21115 137.181 5.34934C138.034 5.18236 138.241 5.13629 137.267 4.84839Z" fill="#F9CF01"/>
<path d="M191.929 12.1667L191.67 12.708C192.678 12.8577 191.733 12.4892 191.929 12.1667Z" fill="#F9CF01"/>
<path d="M202.957 11.8847L202.093 11.2571L201.482 11.6429L202.957 11.8847Z" fill="#F9CF01"/>
<path d="M207.606 17.7809L207.168 17.7175L208.81 18.0688L207.606 17.7809Z" fill="#F9CF01"/>
<path d="M215.551 78.2289L216.098 78.7932C216.68 78.4189 216.501 77.6128 215.551 78.2289Z" fill="#F9CF01"/>
<path d="M177.215 88.3227C176.731 88.0233 175.585 87.9542 174.951 88.4033C175.844 88.3284 176.777 88.4782 177.215 88.3227Z" fill="#F9CF01"/>
<path d="M58.3733 84.3092L59.2029 84.2574L57.6992 84.1077L58.3733 84.3092Z" fill="#F9CF01"/>
</g>
<defs>
<clipPath id="clip0_38_10219">
<rect width="244" height="97" fill="white"/>
</clipPath>
</defs>
</svg>
