<svg width="220" height="87" viewBox="0 0 220 87" fill="none" xmlns="http://www.w3.org/2000/svg">
<g clip-path="url(#clip0_38_10553)">
<path d="M86.3029 0.43376C86.0536 0.614515 86.199 1.01734 86.9003 0.929545L87.3938 0.242676L86.3081 0.43376H86.3029Z" fill="#F9CF01"/>
<path d="M90.9876 1.69387C91.8032 1.36851 92.7538 0.795259 92.2291 0.160034C91.4136 0.810752 91.2214 0.531873 90.3435 1.3117C89.6474 1.38917 89.1332 1.08963 89.2474 0.836575C89.0033 1.01217 88.167 0.686806 87.793 1.11545C88.6968 1.64223 89.8396 1.66805 91.0396 1.23424C91.2941 1.38917 91.0448 1.56476 90.9876 1.68871V1.69387Z" fill="#F9CF01"/>
<path d="M158.377 7.74144L157.961 7.59167C158.07 7.65365 158.215 7.70013 158.377 7.74144Z" fill="#F9CF01"/>
<path d="M198.074 19.4956C197.789 19.3665 197.643 19.3665 197.602 19.413C197.877 19.5059 198.111 19.5834 198.074 19.4956Z" fill="#F9CF01"/>
<path d="M203.413 23.8286C203.315 23.7253 203.226 23.6426 203.133 23.5497C203.211 23.6943 203.309 23.8131 203.413 23.8286Z" fill="#F9CF01"/>
<path d="M158.377 7.74146L159.447 8.12879C159.561 7.92221 158.907 7.87573 158.377 7.74146Z" fill="#F9CF01"/>
<path d="M100.375 0.196289C100.136 0.222111 99.9383 0.284084 99.7617 0.361551C99.9539 0.335729 100.146 0.315071 100.338 0.304742C100.349 0.268591 100.359 0.237605 100.38 0.196289H100.375Z" fill="#F9CF01"/>
<path d="M140.015 5.91848L139.677 5.88232C139.568 5.94946 139.464 6.03209 139.365 6.13022L140.015 5.91848Z" fill="#F9CF01"/>
<path d="M125.899 4.79253C126.216 4.83901 126.372 4.27093 126.512 4.0282C126.315 4.25543 126.07 4.34839 125.785 4.37422C125.769 4.48267 125.806 4.61694 125.899 4.79253Z" fill="#F9CF01"/>
<path d="M103.498 2.63379L103.098 2.70093C103.202 2.68027 103.378 2.65961 103.498 2.63379Z" fill="#F9CF01"/>
<path d="M150.057 7.21997C150.067 7.30777 150.109 7.3904 150.155 7.44204C150.166 7.36974 150.124 7.29744 150.057 7.21997Z" fill="#F9CF01"/>
<path d="M49.2604 10.3236C49.2448 10.3649 49.2604 10.3907 49.25 10.4269C49.3383 10.3753 49.3695 10.3391 49.2604 10.3236Z" fill="#F9CF01"/>
<path d="M65.2484 15.638L65.0199 15.6173C64.9731 15.7206 64.9264 15.8187 64.9004 15.922L65.2484 15.6328V15.638Z" fill="#F9CF01"/>
<path d="M210.281 33.7393C210.281 33.7393 210.27 33.7083 210.265 33.6877C210.042 33.4346 210.145 33.5895 210.281 33.7393Z" fill="#F9CF01"/>
<path d="M127.765 81.4482C129.147 81.8924 125.594 82.2332 127.661 82.698C127.464 82.4811 129.469 81.6806 127.765 81.4482Z" fill="#F9CF01"/>
<path d="M100.744 0.278738C100.936 0.278738 101.134 0.278738 101.326 0.289067C101.061 0.263245 100.879 0.25808 100.744 0.278738Z" fill="#F9CF01"/>
<path d="M127.662 82.6981L127.875 82.7446C127.787 82.7239 127.735 82.7136 127.662 82.6981Z" fill="#F9CF01"/>
<path d="M211.184 58.9571C211.303 58.9829 211.428 58.9468 211.552 58.9003C211.495 58.8693 211.412 58.8796 211.184 58.9571Z" fill="#F9CF01"/>
<path d="M214.373 39.885L214.482 40.4066C214.467 40.1949 214.42 40.0296 214.373 39.885Z" fill="#F9CF01"/>
<path d="M203.309 66.4507C203.033 66.5643 202.909 66.5436 202.607 66.8122C202.654 66.8174 202.696 66.8174 202.748 66.8122C202.831 66.6676 202.976 66.5385 203.309 66.4507Z" fill="#F9CF01"/>
<path d="M192.553 71.388C192.625 71.4086 192.719 71.4086 192.802 71.4241C192.911 71.3725 193.036 71.3157 193.15 71.264L192.558 71.388H192.553Z" fill="#F9CF01"/>
<path d="M11.6152 15.7255C11.9477 15.7152 12.197 15.7875 12.41 15.8753C12.0256 15.6223 13.6567 14.5326 11.6152 15.7255Z" fill="#F9CF01"/>
<path d="M100.374 0.521659C100.447 0.377055 100.556 0.304753 100.743 0.278931C100.603 0.278931 100.468 0.28926 100.338 0.299588C100.301 0.387384 100.291 0.46485 100.374 0.521659Z" fill="#F9CF01"/>
<path d="M205.205 70.6597C204.603 70.9902 203.985 71.2587 203.377 71.5634C203.902 71.3362 204.577 71.0367 205.205 70.6597Z" fill="#F9CF01"/>
<path d="M45.9044 78.8042L45.4473 78.7422C45.6083 78.8042 45.7693 78.8351 45.9044 78.8042Z" fill="#F9CF01"/>
<path d="M197.996 74.1871C197.585 74.1406 197.191 74.1612 196.796 74.2387C196.739 74.311 196.661 74.3781 196.635 74.4608L197.991 74.1871H197.996Z" fill="#F9CF01"/>
<path d="M24.814 10.2928C22.8868 10.6233 24.0556 11.1965 23.7387 11.6975C21.5414 12.3792 22.5803 11.3773 21.718 11.1604C20.3363 11.7027 19.4584 12.6787 18.4247 12.9834C18.3104 12.8905 18.0922 12.9111 18.2792 12.6839C17.6351 13.2003 16.5702 13.598 15.4846 14.0783C14.4093 14.5637 13.3184 15.1422 12.7159 15.922C12.5652 15.9272 12.4769 15.9065 12.4146 15.8703C12.8613 16.0614 13.0847 16.3816 13.1678 16.6502C12.4146 17.0685 12.0717 17.869 11.5211 17.6108C11.973 17.3474 11.9055 17.1563 12.0302 16.8877L11.3809 17.5488C10.8458 17.4868 11.0588 17.2441 11.3964 16.9962C11.7289 16.7431 12.1652 16.4591 12.0302 16.2267C11.3133 16.7948 10.6121 17.4971 9.97314 18.1737C9.33421 18.8451 8.75242 19.4751 8.18621 19.8728C8.01479 19.7953 8.06154 19.6094 8.20699 19.377C8.35763 19.1549 8.61216 18.9019 8.83034 18.6798C9.26668 18.2408 9.58874 17.9516 8.65892 18.2976C9.28226 17.9051 9.9108 17.5281 10.5549 17.2028C8.53944 17.2493 11.7029 16.5056 9.74977 16.4126C9.10565 16.7793 8.65372 17.1666 8.26932 17.4765C7.90051 17.8225 7.60961 18.1272 7.32911 18.4371C6.78368 19.0878 6.23306 19.7024 5.20973 20.8075C5.09545 21.5719 5.79671 20.9986 5.69282 21.7526C5.21492 22.6719 4.81494 23.24 4.44093 23.6428C4.04615 24.0353 3.70331 24.2729 3.35527 24.4795C3.00723 24.686 2.68517 24.8823 2.43583 25.2335C2.30597 25.409 2.19688 25.6208 2.10338 25.8893C2.02027 26.1631 1.96832 26.4936 1.94235 26.8964C2.01507 27.356 2.26961 27.7021 2.36311 28.1669C2.45661 28.6368 2.37869 29.2049 1.87482 30.1087C1.66704 29.8143 1.49042 29.5251 1.30342 29.2307C0.887854 30.5063 1.11122 30.9711 1.23069 31.3998C1.29303 31.6167 1.34497 31.8336 1.30342 32.159C1.26706 32.4843 1.17355 32.9233 0.913827 33.5895C0.804741 33.3158 0.835908 32.7839 0.87227 32.3707C0.913827 31.9575 0.98655 31.6632 0.887854 31.8491C-0.093918 33.5172 1.08525 33.2073 0.835908 34.5656L0.103475 34.7567C-0.197809 37.6591 0.264507 40.9127 0.960578 44.0268C0.721628 43.8925 0.40476 43.3709 0.326841 44.1611C0.856686 46.1649 1.44887 48.2823 2.25922 50.3171C3.05399 52.3519 3.98901 54.3454 5.02792 56.0651C5.47984 56.3698 5.97852 56.6125 6.44603 56.8811C6.65901 57.1548 6.64343 57.5576 6.31097 57.3407C7.11613 58.6783 6.64862 57.16 7.30833 57.5628C7.91609 58.167 7.8174 58.637 7.30833 58.353C7.85895 58.7661 8.50308 59.2774 9.22512 59.7938C9.92639 60.3361 10.7056 60.8784 11.4588 61.4516C12.212 62.0249 12.9808 62.5671 13.6509 63.1404C14.3418 63.6775 14.9443 64.2352 15.417 64.7569C15.2352 64.7104 15.0534 64.6484 14.8768 64.5916C16.5131 66.017 17.552 64.9221 18.913 66.4198L18.539 66.3113C19.474 66.9879 20.4973 67.5611 21.5154 68.1499C22.5492 68.6973 23.5777 69.2551 24.5958 69.7509C26.6113 70.7889 28.5073 71.734 29.9151 72.8547C30.8605 72.3331 33.9201 74.9566 34.6577 73.9237C35.7434 74.6829 36.1018 75.0341 36.5953 75.4111C37.0887 75.7829 37.7069 76.2064 39.3588 77.0069C40.2574 77.3891 40.9847 76.79 42.1586 77.0534L41.9768 77.6628L43.7378 77.5595C43.9248 77.9003 44.1326 78.2102 44.33 78.5407L45.4728 78.7111C45.0468 78.5459 44.6364 78.1637 44.7611 78.0088C46.5428 78.2412 48.7713 79.6769 48.7349 80.0023C49.4362 80.1107 50.1271 80.2501 50.8335 80.3276L52.9425 80.5497C52.7919 80.7769 52.0854 80.6995 51.5036 80.7304C53.8464 80.6168 51.7374 81.4741 53.8828 81.3708C53.649 81.1642 54.1165 81.0351 54.1944 80.9215C54.6464 81.2262 55.4411 81.5154 56.3346 81.7582C56.7813 81.8769 57.254 81.9906 57.7215 82.0835C58.189 82.1662 58.6566 82.2126 59.0877 82.2539L58.6721 82.6206C60.1889 82.9615 61.8097 83.2094 63.4823 83.4521C64.3186 83.5657 65.1601 83.7155 66.0172 83.8084C66.8743 83.9014 67.7314 84.0098 68.5937 84.1338C67.3886 83.7568 67.7938 83.0441 68.8067 83.1164L69.108 83.8394C69.8197 83.5192 68.0951 83.4366 69.5028 83.1267C70.7703 83.385 70.256 84.0098 69.4872 84.1183H71.0819C71.1443 84.3249 70.7651 84.3765 70.6352 84.6141C71.3313 84.2836 73.2481 85.6883 74.2714 85.0686L74.3337 85.2751C77.7881 85.6521 79.3776 85.585 82.1931 85.8536C82.3022 85.2855 83.3878 85.492 84.2657 85.0841C86.3124 85.4197 88.572 86.0446 91.0654 86.1789C92.8316 85.9723 91.6056 85.7089 92.4108 85.3991C92.5095 85.931 94.9977 85.993 93.6887 86.3184C95.1847 86.339 96.1405 86.3597 97.2002 86.3338C97.73 86.3235 98.2806 86.3029 98.9404 86.2667C99.6001 86.2357 100.364 86.1841 101.309 86.086C100.904 85.8639 100.447 85.7606 100.691 85.585C101.377 85.5075 102.244 85.8329 102.14 86.086L101.958 86.1376C104.088 85.7761 106.524 86.1996 108.867 86.5869C111.205 86.9278 113.449 87.2015 115.132 86.6385L114.945 86.6954L118.441 86.086C120.051 86.1221 117.485 86.5198 118.685 86.8038C122.441 85.7864 124.664 86.7263 127.749 86.0188C128.991 86.7263 131.131 86.5714 133.365 86.3338C134.482 86.2151 135.624 86.086 136.694 86.0188C137.764 85.9362 138.762 85.931 139.593 86.1118L139.375 85.7606C140.185 85.3319 140.409 85.8845 141.032 85.9155C140.918 85.6366 140.092 85.6625 140.596 85.4197C142.362 85.1512 144.164 84.9963 145.982 84.8413C147.8 84.6709 149.644 84.5521 151.499 84.4592C152.429 84.4178 153.359 84.3714 154.283 84.33C155.213 84.2629 156.143 84.2009 157.067 84.1338C158.922 84.0047 160.776 83.8652 162.605 83.6897C165.275 83.3281 163.794 81.5516 167.27 81.8408L166.444 82.6774C167.742 82.2436 169.072 81.9131 170.418 81.629C171.758 81.3089 173.108 81.0248 174.464 80.7563C175.815 80.4774 177.165 80.2243 178.49 79.8938C179.809 79.5426 181.108 79.1708 182.349 78.6543C182.084 78.8867 182.126 79.0882 181.622 79.2173C182.23 79.3154 183.243 79.0623 184.09 78.7318C184.936 78.3909 185.612 77.9675 185.565 77.7712C186.375 77.5905 185.851 78.0707 186.401 78.1327C187.58 78.1172 188.941 76.7073 189.669 77.0069C189.793 77.0534 189.414 77.2548 189.227 77.3529C189.866 76.9294 192.536 76.3303 191.679 76.0205C193.679 75.6331 195.222 74.5021 196.842 74.2078C197.024 73.9599 197.325 73.7791 197.673 73.6242C198.016 73.4589 198.406 73.3195 198.769 73.1852C199.502 72.9115 200.141 72.6533 200.094 72.1626C200.224 72.6171 201.112 72.4002 202.094 71.9457C203.071 71.4861 204.104 70.7269 204.567 70.2415C204.328 70.7114 205.689 69.9161 205.45 70.5152C206.094 70.1227 206.691 69.725 207.055 69.3635C207.418 68.9968 207.559 68.7076 207.314 68.5785C208.785 68.2996 209.797 67.2513 210.66 66.3372C211.081 65.8569 211.47 65.4127 211.891 65.0874C212.312 64.762 212.738 64.5141 213.283 64.4883C216.254 60.9093 218.176 56.8398 218.857 52.7702C219.075 52.858 219.122 53.1834 219.075 53.6275C219.028 54.0716 218.909 54.6346 218.711 55.1613C218.53 55.6933 218.363 56.22 218.27 56.6229C218.166 57.0154 218.176 57.2942 218.415 57.3562C218.504 57.1135 218.592 56.8811 218.665 56.6487C218.722 56.4111 218.779 56.1787 218.836 55.9515C218.945 55.497 219.033 55.0632 219.122 54.6397C219.21 53.7773 219.319 52.9871 219.345 52.2021C219.355 51.8096 219.366 51.4171 219.376 51.0195C219.387 50.8232 219.397 50.627 219.407 50.4256C219.407 50.2241 219.402 50.0227 219.397 49.8162C219.397 49.4082 219.402 48.9898 219.428 48.5509C219.454 48.1119 219.418 47.6626 219.439 47.1771C219.527 46.1701 219.87 47.7246 220.036 48.0757C219.896 47.0893 219.859 46.1184 219.688 45.1888C219.62 44.724 219.558 44.2592 219.496 43.7996C219.402 43.3503 219.309 42.901 219.215 42.4568C219.054 41.5582 218.784 40.7164 218.504 39.8901C218.249 39.0535 217.854 38.2891 217.454 37.5455C217.537 37.5248 217.756 37.8295 217.943 38.129C217.683 37.5196 217.532 36.6314 217.163 36.8586L217.496 37.4215C217.387 38.0258 216.867 37.5145 216.311 36.8999C215.73 36.2905 215.127 35.5623 214.956 35.5778C215.73 35.8257 215.486 35.0562 215.273 34.3487C215.049 33.6566 214.888 33.0008 215.979 33.4397C215.709 33.0886 215.283 32.7012 215.075 32.9233C214.857 32.3242 214.914 32.0608 215.496 32.4895C214.862 31.4928 214.514 31.2604 214.218 31.028C213.922 30.7956 213.667 30.5786 213.143 29.6697C213.325 29.5716 213.605 29.8969 213.922 29.9641C213.054 29.2307 212.135 28.5645 211.325 26.9945C211.486 27.0152 211.512 26.757 211.792 27.2011C211.579 26.8861 211.366 26.5969 211.138 26.3128C210.888 26.0288 210.634 25.7551 210.379 25.4968C210.135 25.2335 209.87 24.9959 209.595 24.7738L208.795 24.1024C207.688 23.2555 206.603 22.4137 205.392 21.2362C206.733 21.1639 204.676 20.2808 204.972 19.5784C204.416 19.2892 203.876 18.9845 203.32 18.7211C203.46 18.9535 203.59 19.1962 203.72 19.439C203.071 18.9742 202.348 18.7108 201.689 18.4112C201.019 18.1375 200.385 17.869 199.86 17.4197L201.034 17.7295C200.156 17.2647 199.263 16.8516 198.369 16.4436L199.704 17.4765C198.115 17.0943 199.388 18.4112 197.663 17.2647C198.073 17.3732 196.286 16.583 195.741 15.829H195.746C194.936 15.7516 194.131 15.6431 193.144 15.044C192.962 14.7032 193.694 14.3468 193.58 14.1248C192.635 14.4191 190.12 12.9369 188.972 13.283C189.326 13.2365 189.482 12.8646 189.409 12.751L188.635 13.0351C188.017 12.6374 187.944 12.529 188.157 12.2604C186.136 11.4806 188.495 13.3966 186.199 12.1984C186.401 12.2191 186.334 12.1158 186.76 12.1726C184.38 11.1501 181.923 11.0158 179.721 10.1585C179.253 9.22372 181.762 10.5148 181.17 9.67303C177.83 8.8932 174.106 8.81573 170.942 7.95844L171.524 8.17535C170.854 9.14626 169.244 7.13729 167.509 7.32321C167.924 7.32321 168.153 6.82743 168.018 6.92555C165.841 6.32131 163.441 6.32648 160.034 6.10957L160.496 5.903C159.228 5.4382 157.078 5.2058 155.681 4.87527C155.218 5.08702 154.418 4.92692 154.849 5.40205C150.704 3.18134 146.419 5.1335 142.699 3.38275C143.162 3.42923 143.837 3.25881 143.463 3.21749L140.123 3.11937C140.336 3.62032 140.528 3.44989 141.183 3.89403C140.736 4.1316 139.78 4.25554 138.959 4.17291C140.476 4.01281 139.027 3.40858 138.409 3.07805C138.502 3.23299 138.263 3.37242 138.305 3.52736C136.658 2.51513 137.92 4.45179 135.619 3.66163L135.77 3.42407C134.876 3.47055 134.03 3.72877 133.084 3.57384C132.736 2.99026 134.045 3.39825 134.149 2.95411C132.804 2.86631 131.417 3.77009 130.253 3.11937C130.835 3.01091 131.65 3.07805 132.232 2.97476C130.965 2.21559 130.799 2.36536 129.827 2.18977L129.921 2.21043L127.671 1.74046L128.238 1.95737C126.451 3.26914 124.799 1.9677 122.477 2.76302C124.731 2.01934 122.877 2.2724 123.085 1.65783C122.518 1.44609 121.651 1.1982 121.911 1.0381C120.809 1.47191 120.145 0.531988 118.591 1.17754C118.534 0.970964 117.449 1.09491 117.719 0.60429C116.316 0.686921 118.03 0.970964 117.895 1.21886C115.719 1.78694 112.893 0.118833 109.761 0.934813C107.08 1.21886 106.566 1.8799 104.088 2.13813C103.267 1.79211 104.795 1.42543 104.795 1.42543C103.46 1.08458 102.447 1.1104 101.174 1.30665C101.434 1.13623 101.174 0.981293 100.795 0.743729C99.7767 0.774716 100.099 1.45642 98.7637 1.13106C98.9975 0.908991 99.304 0.55781 99.7975 0.346068C98.5923 0.501001 97.4028 0.857347 96.1561 1.01744C95.834 0.661099 96.9145 0.495837 97.356 0.278931C95.9587 0.408041 93.7302 0.542317 93.2939 1.08975L94.1873 1.30149C93.6783 1.32215 93.9328 0.821196 94.3068 0.723072C95.5068 0.304753 96.0262 0.939978 96.0937 1.14656L95.2107 1.26017C96.0989 2.45316 98.7586 1.13106 100.54 1.24468L99.7767 2.08648L101.616 1.42027C101.995 1.65267 102.249 2.14329 101.366 2.24658C102.628 2.70621 102.504 1.97286 103.579 2.47898C103.699 2.55644 103.641 2.59776 103.527 2.62875L104.779 2.41184C104.53 2.58227 104.966 3.02641 104.208 2.87664C106.421 3.43956 107.823 2.35503 108.639 3.0419L108.452 3.08838C111.558 2.92312 108.774 2.46865 111.132 1.82826L112.623 3.45506L112.955 2.84049C113.272 2.87664 113.901 2.95411 113.771 3.202C114.981 2.83016 113.584 2.91795 114.29 2.54612C115.797 3.19167 118.539 2.49964 118.83 3.52736C119.407 3.08322 117.386 3.07289 119.043 2.83532C119.448 3.94051 120.95 2.76302 122.321 3.3466C121.854 3.87337 120.55 3.49637 121.916 4.07995C122.825 3.19167 124.627 4.46728 125.817 4.36916C125.926 3.62548 128.404 4.24005 130.404 4.15225C130.258 4.38982 134.092 4.87527 135.905 5.31942L135.837 5.4382C136.263 4.72034 138.149 5.03537 139.546 5.02504C139.448 5.46918 139.177 5.62412 138.414 5.74806L139.707 5.87717C140.04 5.66543 140.455 5.57764 141.307 5.5828L140.923 6.10957C142.647 6.26451 144.465 5.82553 146.637 6.46592C146.829 5.95464 145.047 4.79264 147.442 4.72551C147.494 5.01988 147.52 5.51566 146.891 5.55698C147.099 5.54665 147.639 5.41237 148.029 5.5828L147.032 5.94431C148.013 6.28 147.608 5.60862 148.413 5.75839C148.346 6.16122 148.974 6.1199 148.819 6.42977C148.606 6.44526 148.138 6.17671 147.806 6.29549C148.704 6.47625 149.774 6.85842 150.091 7.21476C150.044 6.97203 150.164 6.6725 150.834 6.70348C152.559 6.9049 151.359 7.26641 152.325 7.61242C152.777 7.39035 153.831 7.83449 153.946 7.23542C154.449 7.30772 154.496 7.60209 154.668 7.79834C155.592 7.6589 158.813 8.35094 157.919 7.56078L157.701 7.48331C157.748 7.47815 157.795 7.48331 157.852 7.48331C160.86 7.33871 163.82 8.8209 166.724 9.12044L166.683 9.32185C168.438 9.41997 170.501 9.94674 171.81 9.79181C172.314 9.90026 172.916 10.4167 172.646 10.6026C173.971 10.7524 174.178 10.5561 175.96 11.336C174.578 11.3618 176.334 11.744 174.568 11.2688C176.204 11.8421 176.495 12.2501 178.422 12.1726C177.685 12.5186 179.503 13.1332 180.324 13.2055C179.976 12.9731 179.617 12.7562 179.264 12.529C180.173 12.6839 180.931 12.9628 181.7 13.221L181.087 13.7633C181.872 14.1971 182.656 14.4501 183.44 14.6154C184.225 14.7703 184.993 14.853 185.736 14.9511C186.479 15.0389 187.191 15.1525 187.845 15.3849C188.5 15.6121 189.092 15.9478 189.585 16.5159C190.619 16.3868 187.934 15.5347 188.9 15.2971C189.643 15.6173 190.313 16.1699 190.853 16.645C191.388 17.1356 191.788 17.5746 192.016 17.6676C192.952 18.246 193.497 18.2408 194.084 18.2047C194.671 18.1685 195.279 18.1427 196.245 18.7573C196.089 18.4216 196.131 17.6779 197.782 18.2666C199.185 19.1033 199.029 20.0949 198.053 19.7953C197.705 19.6352 197.58 19.4803 197.632 19.4183C197.133 19.2582 196.494 19.0413 196.925 19.5681L197.221 19.4441C197.819 20.0122 199.694 21.0606 199.045 21.1587C200.182 21.5409 199.694 21.0658 198.993 20.5183C200.551 21.8198 201.678 22.1503 203.164 23.5602C202.998 23.2555 202.93 22.8423 203.185 23.0437C203.725 23.5705 204.083 23.8494 204.328 24.0147C204.567 24.1851 204.712 24.2212 204.847 24.2264C205.107 24.2471 205.346 24.1179 206.12 24.7893C206.66 25.879 205.221 25.1147 206.821 26.3541C207.418 27.4335 206.483 26.9635 206.042 26.757C206.411 27.0049 206.722 27.2992 206.977 27.6091C207.205 27.9345 207.382 28.2753 207.533 28.5955C207.834 29.2824 208.016 30.0106 208.27 30.4702L207.569 29.7472C207.99 30.181 208.249 30.589 208.514 31.0021L208.623 30.2636C208.868 30.8007 209.138 31.219 208.956 31.312C209.548 31.658 209.423 30.4805 210.41 31.2913C210.582 32.097 211.87 33.228 211.403 33.7858C210.39 31.5444 210.971 34.328 209.844 32.5928C210.109 32.8975 210.353 33.3158 210.571 33.8632C210.551 33.9717 210.41 33.8581 210.296 33.7393C210.592 34.8909 210.852 35.0407 211.216 35.1698C211.392 35.237 211.59 35.2938 211.808 35.4745C212.021 35.6553 212.286 35.9445 212.514 36.4971C212.057 36.3783 212.104 37.2924 212.327 37.6074C211.948 36.7346 212.701 36.9361 213.325 37.6436C213.522 38.4028 213.678 38.7798 213.88 39.0535C214.073 39.3272 214.265 39.5079 214.389 39.8953L214.192 38.9812C214.421 39.0638 214.592 39.291 214.763 39.6267C214.852 39.792 214.94 39.9831 215.039 40.1948C215.122 40.4117 215.215 40.6441 215.314 40.8972C215.065 41.0676 214.852 40.0141 214.836 40.4221C215.314 40.8972 215.345 41.6047 215.366 42.3535C215.335 43.1127 215.288 43.908 215.652 44.6724C215.501 45.4522 214.976 44.8531 214.888 45.509C215.06 45.9273 215.137 46.263 215.153 46.5522C215.143 46.8414 215.086 47.0842 215.028 47.3269C214.909 47.8124 214.81 48.2926 214.93 49.1861C215.454 48.7006 215.34 48.5664 215.75 49.9194L215.662 48.3804L215.434 46.8569L215.834 47.8278L216.036 48.3288L216.187 48.8349C216.239 48.3649 216.119 47.8588 216.036 47.4095C215.943 46.9602 215.896 46.5626 215.891 46.2785C216.363 47.2029 216.213 47.1306 216.613 46.6349C216.441 46.9809 216.384 47.3114 216.395 47.6419C216.395 47.9724 216.498 48.303 216.535 48.6438C216.587 48.9847 216.644 49.3359 216.649 49.6974C216.649 49.8781 216.649 50.064 216.613 50.2448C216.566 50.4256 216.504 50.6063 216.41 50.7871L215.2 50.5753C214.795 51.5979 214.717 52.512 214.587 53.5604C214.54 53.8186 214.493 54.082 214.441 54.3505C214.384 54.6191 214.343 54.9083 214.228 55.182C214.125 55.4609 214.005 55.7449 213.87 56.0341C213.797 56.1787 213.73 56.3285 213.641 56.4731C213.543 56.6125 213.444 56.7571 213.335 56.8966C213.553 56.6693 213.787 56.4473 213.969 56.1994C214.114 56.4886 213.896 56.8914 213.605 57.3201C213.46 57.537 213.304 57.7642 213.158 57.9966C213.008 58.2238 212.847 58.4356 212.748 58.6577C212.467 58.353 211.995 58.7351 211.564 58.8952C211.709 58.9779 211.366 59.3703 211.029 59.8351C210.862 60.0675 210.707 60.3206 210.613 60.5633C210.514 60.8009 210.468 61.0178 210.571 61.2089L209.252 61.7511C208.774 62.1075 208.442 62.438 208.203 62.7737C207.964 63.1146 207.792 63.4451 207.605 63.7653C207.237 64.4005 206.904 65.1029 205.855 65.6916C206.192 64.9273 205.159 65.2939 206.255 64.1423C205.626 64.5916 204.987 64.9015 205.138 65.1493C204.644 65.2062 203.58 66.771 202.754 66.8123C202.556 67.1376 202.665 67.556 201.855 67.9536C201.73 67.9278 201.761 67.7729 201.761 67.7729C201.855 67.9485 200.645 68.6818 201.554 68.7076C200.151 68.718 198.624 69.4875 197.076 70.195C196.318 70.5668 195.538 70.887 194.816 71.1298C194.094 71.3776 193.409 71.5016 192.806 71.4241C192.006 71.7908 191.118 72.1885 190.23 72.5293C189.346 72.8805 188.474 73.2162 187.705 73.4538C187.767 73.3092 187.648 73.2575 187.954 73.211C185.731 73.4847 186.999 74.75 184.438 75.0237C183.014 74.7397 185.632 74.3162 184.791 74.2956C184.438 73.6965 183.726 73.9495 182.858 74.3059C181.991 74.6519 180.973 75.1064 180.059 74.936L180.438 74.7552C179.072 74.6158 177.498 76.0205 175.384 76.3407C175.384 76.3407 175.456 76.2012 175.352 76.1393C174.08 77.0998 171.43 77.9107 169.451 78.4891C169.981 77.8693 170.314 78.0346 169.831 77.5956C168.942 77.8332 170.262 78.391 168.48 78.8558C167.836 78.675 166.49 78.6543 166.215 78.1224L167.909 77.797C166.906 77.2238 165.711 78.205 164.792 78.236L164.849 77.9003C162.267 78.4529 162.361 79.2896 159.53 79.6201L159.857 79.8215C158.428 80.8337 158.496 79.5581 157.042 80.3689L156.465 79.6252C155.971 79.8008 155.104 80.1055 154.138 80.4464C153.172 80.7821 152.091 81.0661 151.182 81.252C151.665 80.8905 152.434 80.5755 153.239 80.2863C154.044 79.9919 154.881 79.6872 155.52 79.4238C155.016 79.491 154.164 79.6304 153.374 79.806C152.585 79.9609 151.863 80.1624 151.624 80.3896C152.024 80.2656 152.512 80.0074 152.927 80.09C151.769 80.8647 150.164 81.3657 148.143 81.5826C148.237 80.7769 146.912 80.8286 145.364 80.9473C143.816 81.0455 142.04 81.1746 141.255 80.6323C139.494 81.0765 137.718 81.1746 135.863 81.1952C134.004 81.1849 132.076 81.1126 129.993 81.2882C131.541 82.4244 128.778 81.3967 129.105 82.6413C128.134 82.7807 127.765 82.7807 127.671 82.7084C126.674 82.5122 125.682 82.2798 124.685 82.068C123.973 81.7272 125.599 81.7582 125.495 81.4793C123.365 81.4586 124.581 80.9732 123.163 80.6891C123.469 81.1281 122.446 81.3605 121.23 81.2314L122.955 81.753C119.999 82.5225 120.352 80.8027 117.381 81.5361L118.321 81.1281C116.789 81.3863 112.659 81.1746 111.158 82.2075C110.883 82.0629 110.524 81.722 111.2 81.6239C109.361 81.5877 107.319 81.8046 105.371 81.9854C103.423 82.1661 101.574 82.2849 100.156 81.9492L100.442 81.6445C99.7559 81.7168 99.2313 82.1765 98.3845 81.8305C98.4313 81.7065 98.6702 81.5361 98.3534 81.4999C97.9898 81.5877 96.5145 81.9596 95.6106 81.7427L96.4002 81.4276C94.6185 81.1488 93.2419 81.2985 91.9225 81.5258C90.6031 81.753 89.3564 82.0009 87.8448 82.0061C87.9175 81.0971 85.1332 80.5962 83.7463 80.3483L83.8086 80.2243C82.7697 80.1314 81.8191 80.0487 80.8997 80.0229C79.9802 79.9971 79.1023 80.0126 78.2297 80.0436C77.357 80.0797 76.4895 80.1159 75.6012 80.1572C75.1545 80.1727 74.7025 80.1933 74.2402 80.1933C73.7831 80.183 73.3104 80.1727 72.8273 80.1469C71.7053 79.4858 69.721 79.0985 67.5496 78.737C66.4588 78.5769 65.3419 78.3341 64.2563 78.0966C63.1758 77.8539 62.1317 77.5905 61.2227 77.2806C61.7629 77.5491 60.9941 77.9571 60.3032 77.921C59.8773 77.7506 59.2331 77.7867 58.7345 77.7712C58.241 77.7351 57.8878 77.6473 58.0488 77.2548L58.3553 77.3426C57.8722 76.3871 56.0437 76.1754 54.6567 75.8242L54.1633 76.8261C53.3477 76.2116 52.314 75.8449 51.2491 75.4885C50.1842 75.1219 49.0414 74.8636 47.9402 74.6209C46.8441 74.373 45.7896 74.1665 44.9221 73.8617C44.0546 73.5415 43.369 73.1645 43.0001 72.6636C42.0495 72.6223 40.9899 72.2298 40.0444 72.1833L40.2938 71.6514C37.9822 70.634 36.8342 70.133 33.9201 69.0795L34.6629 68.9349C33.0733 68.2325 31.9617 69.6424 30.4605 69.0072L30.3774 68.0156C27.5775 66.7658 25.214 64.7259 22.2583 63.9305C22.3674 63.8427 22.5699 63.6723 23.0063 63.8789C22.705 63.6981 22.2739 63.4038 21.8012 63.0887C21.3336 62.7634 20.835 62.4019 20.3571 62.1127C19.4065 61.5342 18.6117 61.1521 18.4766 61.7976C18.8766 61.1469 15.9936 60.0107 14.5392 59.2206L15.1002 58.9314C14.3314 58.8023 13.9262 58.7403 13.5002 58.5905C13.0847 58.4304 12.6172 58.2135 11.8743 57.6093C11.6042 57.2374 11.9159 57.005 12.238 57.5266C11.3861 56.2717 10.9913 57.1083 9.98872 55.5538L10.7212 55.8017C9.71341 54.6552 9.68744 54.8515 8.80436 54.4693C7.98362 53.8651 7.19405 52.011 7.55247 51.5462C7.18366 51.5462 6.34214 51.0556 6.08241 50.1673C6.20189 49.9711 6.46162 50.2035 6.59148 50.3171C6.16033 49.1241 5.67724 48.3391 5.20973 47.6161C4.81494 46.8724 4.40457 46.2062 4.48768 45.2818C4.6643 45.1992 4.73183 45.0649 4.75261 44.9151C5.19414 46.8363 5.84346 48.2978 5.74477 48.179C5.98891 48.0757 5.97852 47.6523 6.05644 47.3734C6.16033 47.079 6.30058 46.9602 6.88238 47.3734C6.65381 47.1358 6.43564 46.8414 6.18111 46.5161C5.93697 46.1856 5.63049 45.8344 5.4279 45.4315C5.20453 45.0391 4.99675 44.6259 4.83572 44.2127C4.71105 43.7893 4.62794 43.3709 4.62274 42.9836C4.6591 42.901 4.70066 42.8235 4.76819 42.7564L4.8565 42.901C4.83572 42.5498 4.7578 42.2451 4.64352 41.9559C4.68508 41.4601 4.71105 41.1502 4.67988 40.6854C5.13181 40.4789 4.83572 38.8985 4.93961 38.1136C4.35262 38.16 4.49807 37.1117 3.96823 38.0722C4.01498 37.9483 4.03056 38.2272 4.03056 38.7643C4.03576 38.8882 4.04615 39.0277 4.0877 39.1051C4.07212 39.0896 4.05134 39.069 4.03576 39.0483C4.07731 39.5751 4.07731 40.262 4.14484 41.0366C3.79681 40.4324 3.55266 39.7507 3.85395 38.8572C3.50072 38.4389 3.1371 37.9534 2.96568 37.6746C3.8072 36.5642 4.55521 34.5294 5.12661 34.3332C5.21492 31.8698 6.27461 28.6213 5.9058 26.8757C6.05644 26.1682 6.53953 26.287 6.80446 26.1424C6.70576 26.5349 6.50317 26.9532 6.56551 27.2063C6.60187 27.041 6.65381 26.8551 6.71615 26.6588C6.79407 26.4729 6.87718 26.2715 6.96029 26.0649C7.12133 25.6466 7.36547 25.2438 7.55247 24.8461C7.75506 24.4588 7.95246 24.0973 8.06154 23.7719C8.18621 23.4672 8.23296 23.1987 8.13426 23.0128C8.83034 22.4343 8.81475 22.7649 8.78878 22.9508C8.7732 23.147 8.75761 23.2452 9.51082 22.3311L9.46407 22.7235C10.4822 22.0986 11.251 21.4428 11.999 20.7714C12.7418 20.0949 13.4223 19.3667 14.2015 18.6901C15.7339 17.3267 17.6559 16.0718 20.5077 16.0408C20.1181 16.0511 19.9207 16.0666 19.8116 15.9685C22.892 15.3642 26.0191 14.6154 29.245 14.1403C32.4552 13.6651 35.7382 13.4689 38.8653 14.037C40.6418 14.2745 40.8392 13.7994 41.9457 13.4586L42.3093 14.0989C42.9378 13.882 43.5715 13.6703 44.2053 13.4637C46.9065 13.0919 48.6518 15.2868 52.0699 14.667L51.6855 14.2022C52.875 14.4088 55.5138 14.4295 55.2437 14.8839C55.3736 14.8271 55.6957 14.5018 56.132 14.7858L56.1216 15.1163C57.1242 15.0699 58.1267 15.0389 59.1344 15.0131C61.3577 15.6328 58.5734 16.2164 61.8356 16.8671C63.0719 16.96 65.4614 16.6347 65.0614 16.33C64.5835 16.206 63.8563 15.8652 63.8875 15.5398L65.0407 15.6121C65.2433 15.1628 65.6276 14.7548 65.6276 14.29C65.6173 13.8252 65.2173 13.3036 63.8719 12.6942L61.7993 12.9008L61.2486 12.3275L62.9057 12.6013C62.0486 11.9919 61.3785 12.2707 60.6668 12.4153C60.5526 12.1468 60.3032 11.9247 59.9292 11.7698L57.8514 12.3689C57.6748 11.9609 58.8332 11.7646 57.5657 11.3618C56.5943 11.6458 58.3085 12.3224 56.7709 12.3792C55.893 11.8111 56.2151 11.4961 55.0567 11.7181C54.9321 11.4548 55.1918 11.3256 55.6437 11.2792C54.6152 11.4393 53.0101 11.0623 52.4387 11.5167C51.514 10.8608 49.0882 11.305 49.27 10.4167C48.9375 10.6026 47.4571 10.9745 46.5428 10.9486C47.4155 10.4632 46.5636 10.3857 45.5507 10.2928C44.5429 10.1998 43.3742 10.112 43.6235 9.53875C42.9742 9.99839 41.847 10.0604 40.6055 10.0862C39.3588 10.1172 37.9874 10.1068 36.8913 10.4012C37.0108 10.3237 37.255 10.1637 37.4524 10.2101C36.2057 10.1378 35.8369 9.86411 35.0265 9.69885C34.8914 10.5097 32.9643 10.7731 31.9617 11.3566C30.3826 10.6904 32.8188 10.3392 32.2942 9.62655C32.3565 9.95191 31.6968 10.1637 31.0994 10.3599C30.502 10.5613 29.9618 10.7524 30.2475 11.0003C29.032 10.6284 29.219 10.8712 28.5385 10.2669C28.4554 11.2895 27.4632 10.5716 26.5801 11.3256C24.814 11.0932 25.988 10.4477 24.1803 11.0778C23.7076 11.0158 23.8686 10.8092 24.1491 10.6284C24.4296 10.4477 24.8348 10.2824 24.8348 10.2824L24.814 10.2928ZM1.14239 44.0217H1.132C1.04889 43.6395 0.981356 43.309 0.934605 43.1024C0.976161 43.2935 1.0385 43.5569 1.14239 44.0217ZM2.09819 47.7246C2.03585 47.5025 1.95793 47.2494 1.86963 46.986C1.78651 46.7175 1.72418 46.4283 1.64107 46.1287C1.8021 45.948 2.04105 46.0358 2.12416 46.4025C2.03585 46.3198 2.01507 46.5006 2.02027 46.7795C2.03585 47.0532 2.0878 47.4199 2.09819 47.7194V47.7246ZM4.78897 39.7197C4.88247 40.2361 4.77338 40.4117 4.65391 40.4892C4.63833 40.2465 4.61235 39.9573 4.56041 39.5802C4.53963 39.5648 4.51366 39.5338 4.48768 39.5183C4.60196 39.5648 4.70585 39.6216 4.78377 39.7197H4.78897Z" fill="#F9CF01"/>
<path d="M4.01646 38.7747C4.00607 38.6972 3.98529 38.6559 3.98529 38.5526C3.92815 38.6611 3.8814 38.7644 3.83984 38.8728C3.89698 38.9399 3.95932 39.0071 4.02165 39.0639C4.01126 38.9658 4.02165 38.8676 4.02165 38.7747H4.01646Z" fill="#F9CF01"/>
<path d="M157.887 7.56603L157.96 7.59185C157.903 7.56086 157.846 7.52988 157.814 7.4834C157.861 7.51955 157.856 7.53504 157.887 7.56603Z" fill="#F9CF01"/>
<path d="M41.9107 77.8279L41.9522 77.6885L41.6094 77.704L41.9107 77.8279Z" fill="#F9CF01"/>
<path d="M138.373 3.09352C138.342 3.03671 138.269 2.9799 138.129 2.9231C138.134 2.96441 138.243 3.02638 138.373 3.09352Z" fill="#F9CF01"/>
<path d="M129.786 2.20005L128.586 1.90051C129.105 2.06061 129.485 2.14324 129.786 2.20005Z" fill="#F9CF01"/>
<path d="M123.188 1.43046C123.1 1.52858 123.069 1.60088 123.043 1.66802H123.053L123.188 1.42529V1.43046Z" fill="#F9CF01"/>
<path d="M217.9 38.1652C217.937 38.253 217.978 38.3356 218.02 38.4079C218.347 38.9656 218.155 38.5732 217.9 38.1652Z" fill="#F9CF01"/>
<path d="M195.715 15.8599C196.068 15.8961 196.406 15.9581 196.754 16.051C196.26 15.7618 195.871 15.5656 195.715 15.8599Z" fill="#F9CF01"/>
<path d="M205.402 70.5513C205.402 70.5513 205.402 70.5513 205.402 70.541C205.335 70.5823 205.273 70.6185 205.205 70.6598L205.402 70.5513Z" fill="#F9CF01"/>
<path d="M198.084 16.7069C197.632 16.3454 197.186 16.1698 196.76 16.051C197.16 16.2886 197.632 16.5726 198.084 16.7069Z" fill="#F9CF01"/>
<path d="M94.458 0.0258222L94.1412 0C94.1412 0.036151 94.1256 0.0671376 94.0996 0.0929598L94.458 0.0258222Z" fill="#F9CF01"/>
<path d="M94.0987 0.0930176L93.7402 0.154991C93.9013 0.154991 94.0467 0.154991 94.0987 0.0930176Z" fill="#F9CF01"/>
<path d="M92.9941 0.294346L93.7422 0.154906C93.4824 0.154906 93.1656 0.129084 92.9941 0.294346Z" fill="#F9CF01"/>
<path d="M103.236 0.485508L103.345 0.278931C103.288 0.320246 103.252 0.387384 103.236 0.485508Z" fill="#F9CF01"/>
<path d="M105.906 0.511291C105.272 0.438989 104.322 0.0103413 103.428 0.11363L103.34 0.278892C103.766 -0.0206453 105.288 0.841815 105.901 0.511291H105.906Z" fill="#F9CF01"/>
<path d="M116.898 3.60472L114.685 3.32068C115.064 3.56341 115.558 3.88877 114.545 3.89393C117.308 4.70475 113.994 3.35683 116.898 3.60472Z" fill="#F9CF01"/>
<path d="M123.765 4.34851C122.565 4.36917 123.755 4.67387 123.687 4.79782C124.456 4.64805 124.643 4.60673 123.765 4.34851Z" fill="#F9CF01"/>
<path d="M173.05 10.9125L172.816 11.3979C173.725 11.5322 172.874 11.2017 173.05 10.9125Z" fill="#F9CF01"/>
<path d="M182.994 10.6595L182.215 10.0966L181.664 10.4426L182.994 10.6595Z" fill="#F9CF01"/>
<path d="M187.186 15.9478L186.791 15.891L188.271 16.206L187.186 15.9478Z" fill="#F9CF01"/>
<path d="M194.35 70.164L194.843 70.6701C195.368 70.3344 195.207 69.6114 194.35 70.164Z" fill="#F9CF01"/>
<path d="M159.784 79.2172C159.347 78.9487 158.314 78.8867 157.742 79.2895C158.547 79.2224 159.389 79.3567 159.784 79.2172Z" fill="#F9CF01"/>
<path d="M52.6312 75.6175L53.3792 75.571L52.0234 75.4368L52.6312 75.6175Z" fill="#F9CF01"/>
</g>
<defs>
<clipPath id="clip0_38_10553">
<rect width="220" height="87" fill="white"/>
</clipPath>
</defs>
</svg>
