<svg width="423" height="61" viewBox="0 0 423 61" fill="none" xmlns="http://www.w3.org/2000/svg">
<g clip-path="url(#clip0_38_10363)">
<path d="M422.738 26.7182C422.968 26.5512 422.861 26.1544 422.247 26.2189L421.788 26.8635L422.748 26.7188L422.738 26.7182Z" fill="#F9CF01"/>
<path d="M418.67 25.3706C417.941 25.6689 417.089 26.2105 417.534 26.8273C418.271 26.2089 418.435 26.4789 419.229 25.7536C419.843 25.699 420.287 25.9952 420.182 26.2396C420.402 26.072 421.134 26.4149 421.478 26.0042C420.698 25.4681 419.689 25.4196 418.615 25.8081C418.393 25.655 418.623 25.4881 418.68 25.3712L418.67 25.3706Z" fill="#F9CF01"/>
<path d="M358.732 23.2183L359.118 23.3007C359.011 23.2544 358.882 23.2369 358.732 23.2183Z" fill="#F9CF01"/>
<path d="M321.579 22.9074C321.86 22.8936 321.974 22.8201 321.998 22.7614C321.735 22.8062 321.522 22.854 321.579 22.9074Z" fill="#F9CF01"/>
<path d="M315.229 22.2285C315.368 22.2366 315.478 22.253 315.607 22.2705C315.46 22.2119 315.322 22.1739 315.229 22.2285Z" fill="#F9CF01"/>
<path d="M358.734 23.2181L357.745 23.0105C357.672 23.2267 358.256 23.1704 358.734 23.2181Z" fill="#F9CF01"/>
<path d="M410.356 26.7217C410.568 26.6939 410.741 26.6438 410.896 26.5627C410.725 26.5828 410.563 26.6035 410.393 26.6136C410.39 26.6535 410.368 26.6823 410.357 26.7117L410.356 26.7217Z" fill="#F9CF01"/>
<path d="M375.124 22.8361L375.423 22.8535C375.518 22.7689 375.594 22.6731 375.68 22.5779L375.124 22.8361Z" fill="#F9CF01"/>
<path d="M387.701 22.8942C387.422 22.868 387.31 23.4224 387.196 23.6662C387.36 23.4353 387.576 23.3277 387.819 23.2916C387.825 23.1818 387.792 23.0597 387.701 22.8942Z" fill="#F9CF01"/>
<path d="M407.61 24.3586L407.965 24.2891C407.874 24.3038 407.712 24.3345 407.61 24.3586Z" fill="#F9CF01"/>
<path d="M366.122 22.5948C366.097 22.5132 366.061 22.441 366.014 22.3882C366.01 22.4581 366.055 22.5308 366.122 22.5948Z" fill="#F9CF01"/>
<path d="M14.9185 36.1619C14.9185 36.1619 14.912 36.1015 14.9143 36.0615C14.8409 36.1174 14.8281 36.1667 14.9185 36.1619Z" fill="#F9CF01"/>
<path d="M0.232711 34.0885L0.435269 34.0501C0.451618 33.9409 0.467389 33.8416 0.453789 33.7307L0.222727 34.0879L0.232711 34.0885Z" fill="#F9CF01"/>
<path d="M303.614 21.6054C303.614 21.6054 303.644 21.6071 303.664 21.6083C303.968 21.5458 303.797 21.5559 303.614 21.6054Z" fill="#F9CF01"/>
<path d="M197.047 24.1923C198.272 24.6639 195.103 24.891 196.937 25.3979C196.759 25.1773 198.563 24.4805 197.047 24.1923Z" fill="#F9CF01"/>
<path d="M410.031 26.6428C409.86 26.6429 409.69 26.6431 409.52 26.6332C409.749 26.6565 409.91 26.6558 410.031 26.6428Z" fill="#F9CF01"/>
<path d="M196.936 25.3979L197.123 25.4489C197.044 25.4243 197.005 25.412 196.936 25.3979Z" fill="#F9CF01"/>
<path d="M276.859 22.3083C276.914 22.4017 277.02 22.4779 277.136 22.5547C277.129 22.4943 277.063 22.4303 276.859 22.3083Z" fill="#F9CF01"/>
<path d="M296.803 22.8032L296.307 22.7344C296.504 22.7859 296.664 22.7951 296.803 22.8032Z" fill="#F9CF01"/>
<path d="M266.525 23.2718C266.257 23.2362 266.161 23.1606 265.796 23.2296C265.834 23.2618 265.864 23.2735 265.913 23.2964C266.048 23.2141 266.22 23.174 266.526 23.2618L266.525 23.2718Z" fill="#F9CF01"/>
<path d="M255.766 23.4795C255.823 23.5229 255.902 23.5475 255.969 23.5915C256.08 23.5779 256.201 23.5649 256.312 23.5513L255.776 23.4801L255.766 23.4795Z" fill="#F9CF01"/>
<path d="M47.585 34.3795C47.3429 34.2352 47.1925 34.0662 47.062 33.8984C47.2496 34.2899 45.6749 34.4991 47.585 34.3795Z" fill="#F9CF01"/>
<path d="M410.354 26.411C410.286 26.5473 410.192 26.622 410.03 26.6426C410.151 26.6396 410.272 26.6266 410.392 26.6236C410.427 26.5454 410.431 26.4656 410.364 26.4116L410.354 26.411Z" fill="#F9CF01"/>
<path d="M266.168 27.7086L264.459 27.6496C264.937 27.6973 265.557 27.7132 266.168 27.7086Z" fill="#F9CF01"/>
<path d="M124.741 31.1795L124.356 31.2573C124.505 31.266 124.647 31.2441 124.741 31.1795Z" fill="#F9CF01"/>
<path d="M259.391 27.8365C259.081 27.6483 258.757 27.5393 258.42 27.4697C258.347 27.5156 258.265 27.5509 258.221 27.6185L259.391 27.8365Z" fill="#F9CF01"/>
<path d="M35.8682 35.7335C37.4942 35.6775 36.6034 34.9748 36.9295 34.5329C38.86 34.2342 37.8519 35.0372 38.5328 35.3872C39.7393 35.1366 40.6324 34.4171 41.5449 34.3998C41.6185 34.5143 41.7964 34.5546 41.5969 34.7134C42.8565 34.0652 45.4048 34.5134 46.864 33.7065C46.9809 33.7634 47.0373 33.8267 47.0644 33.8784C46.8045 33.5228 46.7561 33.1493 46.7922 32.871C47.5262 32.8233 48.1248 32.3472 48.4182 32.815C47.9672 32.8189 47.9457 33.018 47.7362 33.1761L48.4917 32.9294C49.2145 33.5924 47.4537 33.2098 47.4841 33.7224C48.9637 33.4276 50.6737 32.7854 51.8271 32.9324C52.099 33.5993 49.1626 33.2788 50.7145 33.8095L48.9321 33.6261C50.3259 34.6384 47.8522 33.5935 49.1509 34.6905C51.4893 34.786 51.7419 34.2297 54.0697 34.3346C54.5738 33.9331 53.8714 33.7822 54.3754 33.3807C57.6485 32.5587 57.0475 34.978 59.4301 33.9642C60.0387 33.4886 60.2493 32.6193 61.9908 32.9908L61.4342 33.7799C63.6891 33.7603 62.6734 32.6196 65.0532 33.0381C64.6441 33.3549 63.2912 33.3666 63.6371 33.4468C65.1884 33.9875 64.6967 32.9673 65.8716 32.9152L66.1435 33.5821C68.5398 33.3704 71.1589 32.771 73.807 32.5338C73.6645 32.7459 73.2208 32.9706 73.851 33.1574C77.1842 32.6795 81.0049 32.9511 84.2548 33.2196L85.464 32.5785C85.7546 32.5754 86.0109 32.8206 85.7027 32.953C86.9748 33.1269 85.7546 32.5754 86.3505 32.3194C87.0656 32.2507 87.3149 32.6157 86.8629 32.8099C89.0604 32.2261 93.1503 31.4816 95.5138 32.0092L95.0618 32.2034C96.8952 32.3698 97.0696 30.9174 98.7846 31.3975L98.4676 31.5093C102.439 31.6093 106.786 30.9098 109.847 31.6782C110.388 30.808 113.78 31.9062 113.99 30.7163C116.274 31.2194 115.63 31.4525 118.83 31.7181C119.68 31.7374 120.067 30.9384 121.118 30.769L121.163 31.3826L122.566 30.6826L123.356 31.3895L124.339 31.1961C123.95 31.1735 123.492 30.9467 123.552 30.7699C125.085 30.428 127.322 31.0585 127.374 31.372L130.998 30.7207C130.923 30.9668 130.316 31.0818 129.845 31.2548C131.769 30.555 130.219 31.8875 131.979 31.2483C131.736 31.1141 132.091 30.8742 132.128 30.7461C133.03 31.0889 135.048 31.0155 136.542 30.8117L136.266 31.2464C138.97 31.2629 141.959 30.8452 144.99 30.7505C143.897 30.587 144.12 29.8486 145.008 29.7398L145.381 30.3825C145.937 29.964 144.442 30.1678 145.605 29.6342C146.745 29.6703 146.395 30.3511 145.75 30.5842L147.118 30.3129C147.207 30.5084 146.89 30.6202 146.816 30.8664C147.372 30.4378 149.217 31.4363 150.01 30.711L150.089 30.9059C153.12 30.8011 154.488 30.5298 156.959 30.4126C156.992 29.8536 157.958 29.9397 158.677 29.4605C160.493 29.5858 162.524 29.964 164.715 29.8505C166.246 29.5186 165.144 29.3645 165.826 29.0034C165.956 29.5118 168.137 29.3978 167.021 29.8039C169.645 29.6355 170.369 29.5973 173.674 29.0778C173.305 28.8761 172.899 28.8024 173.1 28.6237C173.697 28.5181 174.482 28.794 174.398 29.0396L174.244 29.1008C177.952 28.2139 182.888 30.3231 185.83 29.1614L185.666 29.222L188.729 28.5682C190.149 28.6104 187.894 28.9805 188.949 29.2621C192.24 28.301 194.2 29.2259 196.912 28.5818C199.071 30.0392 204.422 28.2759 207.306 29.1643L207.136 28.8139C207.868 28.4456 208.037 28.9963 208.584 29.0581C208.5 28.7828 207.77 28.7605 208.232 28.5569C214.478 27.9573 221.154 28.725 227.566 28.8764C229.918 28.9225 228.857 27.0079 231.826 27.7911L231.005 28.4747C235.715 27.5758 240.682 28.2945 245.295 27.5201C245.025 27.6748 245.014 27.8744 244.562 27.8883C245.547 28.3461 248.181 27.8377 248.194 27.4378C248.914 27.4695 248.364 27.7882 248.814 27.9746C249.801 28.2321 251.267 27.3054 251.801 27.7771C251.886 27.8522 251.531 27.9417 251.348 27.9812C251.983 27.7376 254.333 27.974 253.704 27.4366C255.444 27.6577 257.028 27.1185 258.422 27.4197C259.311 26.78 261.404 27.6526 261.676 26.7669C261.573 27.6725 264.742 27.4454 265.829 27.0076C265.462 27.2869 266.785 27.2734 266.362 27.6596C267.616 27.6321 268.759 27.4379 268.535 26.9842C270.868 28.031 273.167 26.0407 274.49 27.4096C278.208 26.8638 281.656 26.4827 285.007 26.2162C284.894 27.1212 281.302 26.3621 281.457 27.3126C284.627 26.8954 286.456 26.0899 289.612 26.2528C290.427 26.3602 289.159 26.6472 288.879 26.8113C292.048 26.394 295.02 26.7967 297.845 26.2693C297.84 26.3492 297.534 26.4516 297.25 26.5153C297.803 26.4772 298.545 26.6404 298.479 26.2259L297.941 26.345C297.043 25.762 300.138 25.08 300.236 24.7652C299.306 25.9433 303.035 25.0376 301.546 26.5339C301.911 26.4549 302.374 26.2514 302.279 25.9854C302.826 26.0572 302.997 26.2174 302.447 26.5361C304.444 26.3013 303.728 25.8691 305.531 25.8635C305.52 26.0631 305.165 26.1427 304.981 26.3725C305.896 25.9747 306.81 25.587 308.344 25.736C308.256 25.8612 308.428 26.0113 307.977 26.0152C310.596 25.9367 312.446 24.9521 315.321 25.2991C314.479 26.1718 316.306 25.5766 316.464 26.3169L318.009 26.086L317.389 25.7295C318.741 25.7278 319.945 25.1765 321.104 25.4139L320.094 25.726L322.638 25.563L321.201 25.2894C322.566 24.8977 321.045 24.3488 322.857 24.544C322.492 24.6229 324.209 24.5422 324.925 24.9744C325.591 24.7325 326.286 24.4823 327.288 24.6506C327.555 24.8864 327.08 25.4799 327.251 25.6401C327.909 25.0071 330.427 25.4436 331.258 24.7705C330.978 24.9246 330.965 25.3245 331.061 25.4002L331.611 24.8912C332.243 25.058 332.329 25.1331 332.23 25.4479C334.118 25.5473 331.624 24.5013 333.874 24.9122C333.701 24.9523 333.787 25.0273 333.412 25.1058C335.664 25.3164 337.768 24.7873 339.837 25.0375C340.444 25.7939 338.033 25.2234 338.728 25.8546C341.711 25.7171 344.91 24.9609 347.794 25.1382L347.258 25.057C347.66 23.9985 349.411 25.5825 350.872 25.0862C350.517 25.1658 350.398 25.6697 350.495 25.5552C352.468 25.7296 354.536 25.2986 357.54 24.9719L357.164 25.2406C358.332 25.4886 360.231 25.3883 361.496 25.5118C361.872 25.2431 362.591 25.2847 362.153 24.8887C366.019 26.4451 369.568 24.1467 372.997 25.4673C372.587 25.4636 372.013 25.6907 372.343 25.6998L375.28 25.4895C375.056 25.0258 374.896 25.2068 374.286 24.8408C374.662 24.5722 375.495 24.37 376.216 24.3818C374.897 24.6659 376.223 25.1234 376.788 25.3866C376.697 25.241 376.896 25.0923 376.844 24.9491C378.368 25.7887 377.108 24.0228 379.198 24.6047L379.083 24.8485C379.871 24.7339 380.59 24.425 381.437 24.5042C381.777 25.0447 380.602 24.7462 380.537 25.1832C381.719 25.1716 382.898 24.1982 383.957 24.7504C383.448 24.8912 382.727 24.8895 382.218 25.0302C383.383 25.6787 383.512 25.5159 384.387 25.6268L384.297 25.6216L386.304 25.9182L385.793 25.7383C387.305 24.3635 388.821 25.5232 390.835 24.6383C388.874 25.4762 390.506 25.1301 390.341 25.7415C390.851 25.9214 391.621 26.1162 391.391 26.2832C392.35 25.8079 392.96 26.6847 394.313 25.9918C394.372 26.1855 395.322 26.0303 395.104 26.5185C396.333 26.3994 394.823 26.1717 394.928 25.9273C396.836 25.3167 399.361 26.8654 402.104 26.0328C404.465 25.7289 404.913 25.0838 407.102 24.82C407.824 25.1524 406.481 25.5152 406.481 25.5152C407.664 25.8343 408.557 25.8159 409.68 25.6206C409.45 25.7875 409.682 25.9312 410.009 26.1605C410.913 26.1327 410.631 25.4653 411.804 25.7937C411.591 26.0018 411.321 26.3467 410.878 26.5515C411.939 26.4026 412.999 26.0734 414.1 25.9269C414.38 26.2737 413.42 26.4183 413.027 26.636C414.266 26.5175 416.225 26.4207 416.626 25.893L415.847 25.6776C416.299 25.6637 416.06 26.1507 415.725 26.2314C414.661 26.6205 414.216 26.0037 414.157 25.8L414.945 25.6954C414.181 24.5292 411.804 25.7838 410.238 25.6729L410.916 24.8608L409.286 25.5076C408.949 25.2777 408.725 24.8139 409.513 24.7093C408.396 24.264 408.506 24.9715 407.552 24.4855C407.446 24.4093 407.499 24.3722 407.601 24.3381L406.496 24.5545C406.717 24.387 406.33 23.9639 407.003 24.1031C405.041 23.5686 403.798 24.6285 403.074 23.9755L403.237 23.9249C400.491 24.1263 402.952 24.5293 400.881 25.1806L399.538 23.6303L399.253 24.2348C398.974 24.2086 398.417 24.1462 398.521 23.9018C397.457 24.2909 398.695 24.1724 398.073 24.547C396.725 23.948 394.318 24.6899 394.033 23.7318C393.536 24.1938 395.324 24.1072 393.863 24.4132C393.474 23.3588 392.182 24.5661 390.948 24.0739C391.34 23.5356 392.514 23.8441 391.281 23.3419C390.517 24.2492 388.86 23.1114 387.809 23.2709C387.747 23.9985 385.52 23.5388 383.764 23.7576C383.879 23.5138 380.455 23.3153 378.828 23.0307L378.875 22.9132C378.552 23.6458 376.859 23.4775 375.629 23.6165C375.684 23.179 375.904 23.0115 376.577 22.82L375.416 22.8028C375.142 23.0374 374.774 23.1563 374.029 23.2233L374.321 22.6793C372.778 22.69 371.211 23.2803 369.24 22.8956C369.12 23.4095 370.799 24.3382 368.707 24.6577C368.633 24.3829 368.56 23.9079 369.107 23.7994C368.925 23.8289 368.463 24.0225 368.11 23.9018L368.947 23.4496C368.048 23.2372 368.474 23.8328 367.756 23.7812C367.779 23.3818 367.222 23.4898 367.331 23.1755C367.513 23.136 367.962 23.3423 368.231 23.1977C367.414 23.1203 366.437 22.8733 366.114 22.5641C366.181 22.7884 366.113 23.0949 365.51 23.1401C363.966 23.1508 364.987 22.659 364.087 22.4466C363.711 22.7253 362.736 22.4384 362.701 23.0274C362.251 23.0213 362.167 22.746 361.996 22.5858C361.2 22.8401 358.275 22.6606 359.171 23.2835L359.379 23.3256C359.379 23.3256 359.298 23.3409 359.247 23.348C356.639 23.928 353.828 23.0038 351.239 23.2544L351.251 23.0547C349.695 23.2751 347.807 23.1857 346.701 23.6123C346.24 23.6157 345.62 23.2492 345.814 23.02C344.633 23.1719 344.5 23.3846 342.796 23.0654C343.988 22.7238 342.383 22.761 344.012 22.8154C342.48 22.6464 342.128 22.3255 340.484 22.8613C341.044 22.3528 339.329 22.2234 338.599 22.3714L339.68 22.7345C338.864 22.8074 338.145 22.7658 337.417 22.7135L337.807 22.045C334.658 21.2414 332.139 23.3992 329.741 22.0782C328.912 22.5511 331.446 22.3874 330.713 22.9459C329.265 22.862 327.757 21.9231 327.306 21.927C325.323 21.5717 325.466 22.9122 323.386 22.6814C323.652 22.9173 323.907 23.543 322.36 23.7839C320.912 23.7 320.574 22.7989 321.487 22.6014C321.829 22.5812 322.005 22.6515 321.99 22.7308C322.457 22.6376 323.074 22.5331 322.497 22.2793L322.313 22.5191C321.595 22.2872 319.6 22.3217 320.074 21.9285C318.978 22.1655 319.61 22.3223 320.415 22.4391C318.56 22.1112 317.519 22.4515 315.608 22.2406C315.911 22.3683 316.196 22.6453 315.895 22.6479C313.096 22.3754 314.666 23.1075 312.766 23.2278C311.685 22.8746 313.147 22.3583 311.235 22.6782C310.067 22.4402 310.981 22.0525 311.444 21.8489C309.704 22.319 308.184 21.5698 307.197 21.5025L308.11 21.305C307.562 21.4235 307.111 21.4274 306.66 21.4313L307.183 21.9024C306.647 21.8213 306.186 21.8246 306.198 21.6249C305.648 21.9437 306.633 22.4114 305.536 22.8487C304.818 22.6167 303.356 23.123 303.102 22.4972C305.365 22.6885 302.848 21.8715 304.758 21.7518C304.393 21.8308 303.942 21.8347 303.396 21.753C303.309 21.6879 303.474 21.6173 303.616 21.5854C301.454 21.0394 302.632 22.3097 300.389 22.3099C300.669 21.9555 299.866 21.6385 299.501 21.7175C300.403 21.7197 299.938 22.3038 299.11 22.5864C297.673 22.3227 297.556 22.7967 296.805 22.7833L297.66 22.9029C297.369 23.2567 296.659 23.2256 295.66 23.348C295.576 23.0726 296.564 23.1399 296.21 23.0292C295.111 23.6667 293.691 22.4224 292.153 22.8642C291.435 22.6322 292.071 22.1983 291.439 22.0415C289.708 22.5321 289.553 21.5815 287.735 21.9971C288.269 22.4687 288.356 22.3436 287.076 22.8303L290.073 22.4431L288.159 23.1635C289.061 23.1557 290.061 22.8331 290.608 22.9048C289.693 23.3125 289.79 23.188 290.228 23.574C288.976 22.8804 287.778 24.0329 286.342 23.5691L286.37 22.3887C284.206 21.8926 282.555 23.059 279.755 22.8066L280.656 22.999C280.287 23.4785 278.927 23.0891 278.034 23.2978C278.107 22.9013 277.544 22.7685 277.157 22.5257C277.21 22.8193 275.114 22.5275 274.867 23.3245L273.614 22.8212C271.351 22.6399 271.062 23.9855 268.884 23.8892C269.531 23.4459 268.534 23.1878 269.986 22.8513C269.265 22.8595 268.607 22.8014 268.601 23.0715C268.175 22.8264 266.605 23.6369 265.925 23.267C265.624 23.4498 265.53 23.8651 264.72 23.8382C264.634 23.7631 264.721 23.6479 264.721 23.6479C264.72 23.8382 263.453 23.935 264.169 24.3572C261.915 23.1547 257.936 24.5768 255.972 23.5514C254.39 23.7201 252.497 23.8908 251.061 23.9478C251.148 23.8227 251.063 23.7476 251.331 23.7832C249.347 23.4578 250.142 24.9463 247.879 24.5847C246.712 23.9762 249.072 24.2132 248.344 23.9907C248.008 22.6991 245.626 24.2238 244.095 23.5039L244.461 23.415C243.293 22.9967 241.644 23.9729 239.754 23.9134C239.754 23.9134 239.841 23.7982 239.766 23.7137C238.484 24.4007 236.043 24.6799 234.227 24.9052C234.778 24.3862 235.045 24.6221 234.694 24.1109C233.877 24.2038 234.957 24.9375 233.324 25.1133C232.789 24.8418 231.609 24.6332 231.44 24.0825L232.976 24.0213C232.175 23.3238 230.989 24.0864 230.174 23.9791L230.273 23.6643C227.92 23.8183 227.905 24.5988 225.37 24.6121L225.637 24.8379C224.278 25.6506 224.469 24.4296 223.1 25.0515L222.664 24.275C221.76 24.493 219.49 25.1227 217.856 25.3184C218.773 24.7105 220.676 24.36 221.85 23.9774C220.948 23.9951 218.777 24.1197 218.313 24.5235C218.679 24.4346 219.131 24.2304 219.495 24.3417C218.406 24.9897 216.953 25.3362 215.148 25.3718C215.428 23.8354 210.436 25.1086 209.1 23.9594C205.927 24.6069 202.763 23.8926 199.056 24.0783C200.412 25.2287 197.971 24.1456 198.231 25.3527C197.364 25.4527 197.034 25.4436 196.958 25.3691L194.312 24.7048C193.681 24.3677 195.13 24.4117 195.036 24.1458C193.135 24.1057 194.223 23.6479 192.958 23.3542C193.224 23.7803 192.32 23.9983 191.236 23.8654L192.768 24.3849C190.141 25.1141 190.449 23.4291 187.803 24.1572L188.638 23.7448C187.28 24.0167 183.581 23.8924 182.27 24.9182C182.027 24.784 181.695 24.4642 182.303 24.3492C179.03 24.2997 175.047 25.6214 172.483 25.0921L172.721 24.7854C172.114 24.8905 171.675 25.3759 170.9 25.1005C170.937 24.9725 171.138 24.7938 170.858 24.7876C170.541 24.8994 169.252 25.3656 168.44 25.2083L169.122 24.8472C165.913 24.551 164.247 25.8167 161.576 26.1026C161.557 25.22 159.035 25.0137 157.779 24.9109L157.816 24.7828C154.099 24.8077 151.531 25.7306 148.099 26.1928C145.926 25.3155 140.845 26.0427 137.393 25.6322C137.926 25.7733 137.333 26.3199 136.725 26.435C135.913 26.2877 134.522 27.1186 134.619 26.3128L134.908 26.3296C134.272 25.5515 132.624 25.8166 131.331 25.8417L131.159 26.9036C127.725 25.4825 122.323 27.7937 120.425 26.4817C119.617 26.7754 118.604 26.8068 117.805 27.1111L117.838 26.542C115.557 26.4799 114.427 26.4545 111.638 26.6935L112.194 26.2649C110.62 26.2939 110.262 27.976 108.814 28.0624L108.342 27.2336C105.59 27.3546 102.783 26.711 100.087 27.5865C100.125 27.4585 100.199 27.2123 100.643 27.1579C99.3495 27.1831 95.6168 26.7764 96.1316 27.9181C96.0652 27.163 93.2941 27.964 91.8194 28.3493L92.0326 27.7807C90.8066 28.541 90.7751 28.7395 89.0365 29.0093C88.619 28.9551 88.6509 28.5763 89.2148 28.6991C87.8158 28.4678 88.16 29.269 86.4704 29.0409L87.0837 28.6557C85.6603 28.6734 85.7797 28.8606 85.0126 29.3069C84.1261 29.5661 82.3096 29.2805 82.0778 28.7862C81.8995 29.0964 81.1324 29.5428 80.2973 29.4343C80.1779 29.247 80.4761 29.1141 80.6299 29.0529C78.232 28.7736 77.1184 29.841 75.4632 29.3644C75.4237 29.1818 75.3086 29.095 75.1711 29.0469C77.0578 28.986 78.5822 28.9542 78.4395 28.996C78.4191 28.484 76.8882 28.4553 78.0743 27.6927C76.8668 28.1335 74.81 29.0561 73.3077 28.8788C73.2302 28.8343 73.1626 28.7903 73.1073 28.7069L73.2611 28.6457C72.9129 28.6055 72.6087 28.668 72.3223 28.7716C71.8454 28.7039 71.5376 28.656 71.0861 28.6699C70.8902 28.2478 69.3225 28.5076 68.5603 28.5235C68.6483 29.0795 67.6494 29.0316 68.5963 29.4571C68.4783 29.4202 68.7407 29.3854 69.2445 29.3344C69.3561 29.3108 69.497 29.299 69.5692 29.2631C69.5581 29.2825 69.5375 29.2913 69.5164 29.3101C70.019 29.2792 70.6626 29.2363 71.406 29.1993C70.8173 29.5057 70.2009 29.7705 69.3451 29.5005C68.9725 29.8796 68.5595 30.2663 68.3183 30.4527C67.2495 29.7096 65.2151 29.3813 64.9222 28.9036C62.6142 29.3207 59.4573 29.348 58.0402 30.4679C57.3897 30.6305 57.2642 30.2025 57.0127 30.0477C57.3902 29.9294 57.8412 29.9255 58.0413 29.7568C56.7303 30.0814 54.1289 30.0308 53.8447 30.7856C52.1668 30.5281 54.7479 30.0667 52.4714 30.2853L52.766 30.0419C48.2153 29.0569 45.5368 32.2372 40.4827 30.9526C40.8286 31.0327 41.0072 31.0631 41.0801 31.1875C35.3637 30.786 29.3936 32.3431 23.7304 31.544C22.1254 31.4109 21.9778 31.8832 21.0227 32.2886L20.6458 31.7058L19.0181 32.4829C16.678 33.1085 14.856 31.1899 11.9167 32.3016L12.3252 32.6859C11.2447 32.6633 8.93607 33.0904 9.09364 32.6188C8.98859 32.7028 8.75753 33.0601 8.32811 32.8649L8.27617 32.5513L5.66302 33.2212C3.60647 33.102 5.9168 31.9538 2.93673 32.0415C1.83466 32.218 -0.1711 33.1234 0.24892 33.308C0.699902 33.3041 1.40292 33.4451 1.45487 33.7586L0.4509 33.9708C0.316053 34.9146 -0.412434 35.9041 2.10132 36.4305L3.80194 35.7778L4.37836 36.2019L2.92038 36.2977C3.76982 36.6775 4.2739 36.276 4.85148 35.9889C4.99848 36.2178 5.24994 36.3726 5.60587 36.4533L7.26511 35.4777C7.48503 35.8311 6.53995 36.237 7.69338 36.384C8.47106 35.9283 6.88705 35.6061 8.19862 35.2714C9.04806 35.6512 8.82698 36.009 9.78205 35.6036C9.92905 35.8325 9.72895 36.0012 9.35146 36.1196C10.2021 35.7882 11.6391 35.8815 12.0597 35.365C12.9532 35.8475 14.9803 35.0936 14.9393 35.9727C15.2028 35.7476 16.4361 35.208 17.2217 35.1334C15.8145 36.2538 20.2012 35.0557 19.8745 36.1987C20.9042 35.1966 23.7362 35.5912 25.6247 34.9794C25.5197 35.0635 25.3202 35.2222 25.1522 35.1824C26.2321 35.215 26.5571 35.4842 27.2501 35.6246C27.3557 34.8394 29.0132 34.5849 29.8954 34.055C31.2472 34.7545 29.1387 35.0129 29.5885 35.7201C29.4946 35.0936 31.8451 34.9794 31.3738 34.4713C32.4012 34.8915 32.2542 34.6626 32.7991 35.2852C32.9262 34.3009 33.7326 35.0788 34.5312 34.434C36.0096 34.8502 34.9501 35.3297 36.5341 34.9608C37.31 35.2261 35.904 35.6354 35.904 35.6354L35.8682 35.7335ZM73.8157 32.3841L73.8151 32.3941C73.4928 32.4255 73.2115 32.4392 73.0301 32.4587C73.1915 32.4381 73.4229 32.4214 73.8157 32.3841ZM77.0189 32.2492C76.6284 32.2466 76.1469 32.2588 75.6348 32.2792C75.5155 32.092 75.6274 31.8881 75.9481 31.8867C75.7796 32.0272 76.5366 32.1011 77.0189 32.2492ZM70.0866 28.632C70.5933 28.5311 70.7678 28.6314 70.8413 28.7459C70.5999 28.7619 70.3275 28.7962 69.9641 28.8453C69.9529 28.8646 69.9212 28.8929 69.9101 28.9122C69.9564 28.8047 70.0027 28.6972 70.0972 28.6226L70.0866 28.632Z" fill="#F9CF01"/>
<path d="M69.2097 29.4026C69.1386 29.4185 69.0969 29.4462 69.0065 29.4509C69.114 29.4972 69.2121 29.533 69.3102 29.5687C69.3742 29.5023 69.4275 29.4453 69.4809 29.3883C69.3905 29.3931 69.2901 29.3973 69.2091 29.4126L69.2097 29.4026Z" fill="#F9CF01"/>
<path d="M359.189 23.3046L359.119 23.3005C359.179 23.304 359.227 23.3369 359.265 23.3691C359.217 23.3463 359.218 23.3263 359.189 23.3046Z" fill="#F9CF01"/>
<path d="M121.191 31.5948L121.18 31.4438L120.901 31.588L121.191 31.5948Z" fill="#F9CF01"/>
<path d="M376.797 25.4172C376.797 25.4172 376.891 25.5229 377.029 25.5609C377.021 25.5204 376.924 25.4747 376.797 25.4172Z" fill="#F9CF01"/>
<path d="M384.396 25.6375L385.466 25.8497C385.002 25.7327 384.665 25.673 384.396 25.6375Z" fill="#F9CF01"/>
<path d="M390.245 25.9967C390.321 25.9009 390.346 25.8222 390.36 25.7529L390.35 25.7523L390.245 25.9967Z" fill="#F9CF01"/>
<path d="M297.246 26.5553C297.166 26.5507 297.085 26.5661 297.024 26.5825C296.497 26.7022 296.86 26.6532 297.246 26.5553Z" fill="#F9CF01"/>
<path d="M324.923 25.0145C324.627 25.1175 324.34 25.2211 324.036 25.2836C324.525 25.3219 324.915 25.3345 324.923 25.0145Z" fill="#F9CF01"/>
<path d="M266.357 27.7195C266.357 27.7195 266.357 27.7195 266.358 27.7095C266.288 27.7054 266.238 27.7025 266.167 27.7085L266.357 27.7195Z" fill="#F9CF01"/>
<path d="M322.743 25.2888C323.237 25.3976 323.65 25.3714 324.025 25.283C323.617 25.2493 323.149 25.1922 322.743 25.2888Z" fill="#F9CF01"/>
<path d="M415.564 26.9334L415.843 26.9696C415.843 26.9696 415.857 26.9003 415.878 26.8815L415.564 26.9434L415.564 26.9334Z" fill="#F9CF01"/>
<path d="M415.878 26.8714L416.192 26.8094C416.053 26.8013 415.922 26.8038 415.878 26.8714Z" fill="#F9CF01"/>
<path d="M416.86 26.688L416.202 26.8101C416.431 26.8234 416.711 26.8396 416.86 26.688Z" fill="#F9CF01"/>
<path d="M407.84 26.4355L407.748 26.6406C407.748 26.6406 407.834 26.5354 407.84 26.4355Z" fill="#F9CF01"/>
<path d="M405.485 26.4294C406.042 26.4917 406.879 26.9109 407.667 26.8063L407.746 26.6506C407.369 26.9392 406.034 26.1106 405.484 26.4394L405.485 26.4294Z" fill="#F9CF01"/>
<path d="M395.722 23.6196L397.692 23.844C397.355 23.6141 396.902 23.3074 397.804 23.2896C395.332 22.5653 398.306 23.7895 395.721 23.6296L395.722 23.6196Z" fill="#F9CF01"/>
<path d="M389.616 23.2053C390.683 23.1169 389.614 22.8947 389.671 22.7678C388.999 22.9592 388.837 22.9999 389.616 23.2053Z" fill="#F9CF01"/>
<path d="M345.383 22.8448L345.493 22.3303C344.678 22.4033 345.482 22.53 345.383 22.8448Z" fill="#F9CF01"/>
<path d="M336.936 25.4804L337.73 25.7968L338.107 25.3279L336.936 25.4804Z" fill="#F9CF01"/>
<path d="M331.938 21.8252L332.293 21.7556L330.93 21.947L331.938 21.8252Z" fill="#F9CF01"/>
<path d="M257.671 22.9387L257.925 23.5644C258.473 23.4359 258.574 22.7306 257.671 22.9387Z" fill="#F9CF01"/>
<path d="M225.628 24.2866C225.274 23.9857 224.363 23.8027 223.813 24.1314C224.533 24.1531 225.261 24.3856 225.628 24.2866Z" fill="#F9CF01"/>
<path d="M129.495 26.2264L130.139 25.9933L128.925 26.2133L129.495 26.2264Z" fill="#F9CF01"/>
</g>
<defs>
<clipPath id="clip0_38_10363">
<rect width="421.57" height="36.45" fill="white" transform="translate(2.10938) rotate(3.31779)"/>
</clipPath>
</defs>
</svg>
