<svg width="335" height="25" viewBox="0 0 335 25" fill="none" xmlns="http://www.w3.org/2000/svg">
<g clip-path="url(#clip0_42_18838)">
<path d="M159.049 15.2018C158.807 15.3557 159.01 15.568 159.723 15.4195L160.157 14.9187L159.035 15.2024L159.049 15.2018Z" fill="#F9CF01"/>
<path d="M164.116 15.265C164.945 14.9291 165.877 14.4195 165.268 14.1079C164.475 14.6374 164.234 14.5048 163.404 15.1272C162.678 15.2893 162.106 15.1843 162.195 15.0112C161.952 15.152 161.036 15.0882 160.691 15.4159C161.709 15.6053 162.906 15.4355 164.131 14.978C164.41 15.0308 164.167 15.1847 164.116 15.265Z" fill="#F9CF01"/>
<path d="M236.148 11.0772L235.676 11.0459C235.801 11.0664 235.968 11.0851 236.148 11.0772Z" fill="#F9CF01"/>
<path d="M280.856 10.0712C280.511 10.0864 280.375 10.1315 280.363 10.171C280.679 10.1311 280.941 10.1065 280.856 10.0712Z" fill="#F9CF01"/>
<path d="M288.494 10.3987C288.328 10.393 288.189 10.3861 288.051 10.3792C288.218 10.4108 288.399 10.4289 288.494 10.3987Z" fill="#F9CF01"/>
<path d="M236.146 11.0772L237.34 11.1678C237.417 11.0212 236.728 11.0906 236.146 11.0772Z" fill="#F9CF01"/>
<path d="M173.881 13.0516C173.634 13.1015 173.43 13.1626 173.253 13.2355C173.459 13.2004 173.651 13.1659 173.857 13.1308C173.856 13.1048 173.869 13.0912 173.896 13.064L173.881 13.0516Z" fill="#F9CF01"/>
<path d="M216.469 12.2172L216.11 12.233C216.002 12.2899 215.908 12.3591 215.815 12.4283L216.469 12.2172Z" fill="#F9CF01"/>
<path d="M201.372 13.0774C201.717 13.0622 201.812 12.6936 201.929 12.5322C201.743 12.6966 201.498 12.7855 201.195 12.8249C201.198 12.8898 201.243 12.9789 201.358 13.078L201.372 13.0774Z" fill="#F9CF01"/>
<path d="M177.416 14.1585L176.992 14.2553C177.101 14.2245 177.279 14.1906 177.416 14.1585Z" fill="#F9CF01"/>
<path d="M227.285 11.845C227.285 11.845 227.373 11.9453 227.429 11.9688C227.427 11.9168 227.37 11.8803 227.285 11.845Z" fill="#F9CF01"/>
<path d="M18.0035 21.7134C18.0035 21.7134 18.0017 21.6744 18.0006 21.6485C17.9195 21.6911 17.893 21.7183 18.0035 21.7134Z" fill="#F9CF01"/>
<path d="M0.362434 21.6574L0.595448 21.6081C0.620203 21.5419 0.630577 21.4633 0.627716 21.3984L0.362434 21.6574Z" fill="#F9CF01"/>
<path d="M302.464 10.6295C302.464 10.6295 302.422 10.6313 302.408 10.6319C302.037 10.6743 302.244 10.6652 302.464 10.6295Z" fill="#F9CF01"/>
<path d="M237.072 5.37428C238.524 5.67479 234.713 5.82965 236.9 6.16288C236.7 6.02849 238.879 5.56804 237.072 5.37428Z" fill="#F9CF01"/>
<path d="M174.283 13.06C174.49 13.0378 174.696 13.0157 174.903 12.9936C174.613 13.0064 174.434 13.0273 174.283 13.06Z" fill="#F9CF01"/>
<path d="M236.912 6.16227L237.135 6.19151C237.038 6.18278 236.982 6.17222 236.912 6.16227Z" fill="#F9CF01"/>
<path d="M333.248 6.91763C333.306 6.98015 333.433 7.03964 333.56 7.09912C333.559 7.06015 333.487 7.01122 333.248 6.91763Z" fill="#F9CF01"/>
<path d="M310.672 9.77335L311.268 9.81216C311.032 9.78353 310.838 9.77905 310.672 9.77335Z" fill="#F9CF01"/>
<path d="M320.765 6.8296C320.445 6.79163 320.332 6.73154 319.891 6.76399C319.933 6.78815 319.975 6.79931 320.017 6.81048C320.181 6.76421 320.388 6.75508 320.751 6.83021L320.765 6.8296Z" fill="#F9CF01"/>
<path d="M307.803 6.229C307.803 6.229 307.958 6.28727 308.042 6.3096C308.166 6.30413 308.318 6.29744 308.456 6.29136L307.803 6.21601L307.803 6.229Z" fill="#F9CF01"/>
<path d="M57.1996 18.0346C56.9057 17.9564 56.7216 17.8604 56.5789 17.7625C56.7969 18.0002 54.9127 18.2524 57.1996 18.0346Z" fill="#F9CF01"/>
<path d="M173.918 13.2453C173.983 13.1513 174.091 13.0945 174.282 13.047C174.131 13.0667 173.994 13.0857 173.857 13.1178C173.831 13.171 173.82 13.2235 173.918 13.2453Z" fill="#F9CF01"/>
<path d="M320.06 9.68521L318.006 9.52838C318.576 9.59438 319.325 9.63949 320.06 9.68521Z" fill="#F9CF01"/>
<path d="M149.938 11.568L149.471 11.6406C149.651 11.6327 149.816 11.6254 149.938 11.568Z" fill="#F9CF01"/>
<path d="M311.924 9.30168C311.558 9.1616 311.18 9.0611 310.776 8.98779C310.694 9.01743 310.598 9.03467 310.531 9.07669L311.91 9.30229L311.924 9.30168Z" fill="#F9CF01"/>
<path d="M43.1381 19.7733C45.0953 19.609 44.0133 19.2271 44.4005 18.9107C46.7237 18.5741 45.5189 19.1738 46.3289 19.3464C47.7701 19.0877 48.8535 18.5584 49.9426 18.4714C50.0289 18.5457 50.2504 18.5489 50.007 18.6768C51.5058 18.1552 54.5826 18.28 56.3259 17.6565C56.4657 17.6894 56.5365 17.7254 56.5652 17.7501C56.2512 17.5297 56.1856 17.2983 56.2329 17.1139C57.1148 17.036 57.8323 16.679 58.1907 16.9626C57.6522 16.9863 57.6171 17.1311 57.3731 17.246L58.277 17.0369C59.1376 17.4156 57.0434 17.2995 57.0715 17.6237C58.843 17.3244 60.9085 16.7909 62.2921 16.795C62.6148 17.2103 59.1008 17.2089 60.9653 17.4522L58.8211 17.4555C60.5061 18.0191 57.5232 17.5127 59.0862 18.1337C61.8903 18.0363 62.1918 17.6585 64.9954 17.548C65.6047 17.2479 64.759 17.207 65.3683 16.9068C69.2916 16.1483 68.5738 17.7549 71.4431 16.9387C72.1749 16.594 72.4259 16.0102 74.5212 16.1523L73.8537 16.7023C76.5583 16.5441 75.3388 15.8689 78.2078 15.9899C77.7199 16.2196 76.0917 16.3174 76.5077 16.3381C78.3728 16.5944 77.7775 15.9568 79.198 15.8552L79.5206 16.2705C82.3996 15.9875 85.5426 15.4195 88.738 15.0965C88.5786 15.2467 88.0332 15.427 88.7972 15.4974C92.7992 14.9567 97.3908 14.9237 101.306 14.9205L102.765 14.4397C103.11 14.4245 103.421 14.567 103.051 14.6614C104.575 14.6984 103.11 14.4115 103.834 14.2104C104.688 14.1207 104.989 14.3548 104.456 14.5084C107.103 14.0013 112.011 13.2905 114.857 13.5036L114.31 13.6579C116.51 13.6651 116.73 12.6922 118.788 12.927L118.405 13.0219C123.172 12.9031 128.414 12.2297 132.081 12.5758C132.733 11.9873 136.811 12.5367 137.066 11.7444C139.801 11.9624 139.034 12.1393 142.882 12.1652C143.904 12.1331 144.379 11.6046 145.631 11.4583L145.69 11.8592L147.384 11.3551L148.329 11.782L149.512 11.6128C149.041 11.6075 148.496 11.4883 148.56 11.3684C150.402 11.092 153.086 11.4163 153.15 11.6088L157.51 11.0392C157.421 11.1994 156.692 11.2966 156.116 11.426C158.431 10.8946 156.563 11.8229 158.686 11.3389C158.392 11.2607 158.827 11.0984 158.878 11.005C159.966 11.1914 162.395 11.0714 164.185 10.8754L163.852 11.1634C167.098 11.0595 170.692 10.6669 174.352 10.5317C173.035 10.4596 173.317 9.96555 174.379 9.87975L174.826 10.2896C175.505 9.99937 173.7 10.17 175.108 9.79555C176.478 9.78731 176.041 10.2361 175.274 10.413L176.924 10.1972C177.027 10.3228 176.643 10.4048 176.553 10.565C177.218 10.2753 179.43 10.8678 180.391 10.3699L180.493 10.4956C184.138 10.335 185.79 10.1321 188.758 9.98839C188.797 9.6222 189.96 9.64906 190.845 9.32372C193.032 9.34456 195.475 9.53632 198.097 9.39479C199.941 9.15741 198.623 9.07228 199.456 8.82732C199.609 9.15901 202.232 9.04346 200.875 9.32452C204.037 9.18526 204.907 9.14694 208.901 8.74973C208.467 8.62568 207.981 8.58201 208.224 8.45414C208.954 8.38293 209.875 8.55065 209.785 8.71081L209.593 8.7453C214.062 8.11894 219.97 9.40766 223.518 8.61358L223.312 8.64868C224.551 8.49002 225.774 8.31897 227.014 8.19928C228.717 8.22841 226.002 8.46514 227.256 8.65724C231.24 8.03917 233.563 8.63975 236.852 8.23458C239.411 9.17619 245.891 8.03172 249.333 8.60902L249.13 8.38369C250.019 8.14929 250.2 8.50575 250.866 8.54152C250.775 8.36329 249.903 8.34964 250.45 8.20839C257.973 7.82498 265.987 8.53937 273.688 8.73389C276.513 8.80469 275.309 7.54305 278.861 8.10249L277.842 8.52485C283.546 7.98727 289.474 8.76751 295.062 8.41728C294.72 8.51043 294.712 8.64095 294.172 8.62569C295.335 8.96496 298.52 8.73353 298.551 8.48488C299.411 8.53811 298.741 8.7238 299.273 8.85659C300.444 9.06533 302.247 8.53036 302.87 8.85437C302.969 8.90208 302.528 8.94752 302.321 8.96963C303.09 8.83165 305.896 9.08555 305.188 8.71323C307.272 8.92081 309.197 8.65379 310.843 8.95877C311.948 8.61071 314.401 9.32274 314.778 8.77246C314.596 9.3532 318.417 9.41919 319.749 9.20431C319.299 9.35429 320.88 9.44086 320.35 9.65944C321.861 9.72307 323.242 9.67525 322.993 9.3608C325.728 10.1906 328.611 9.06132 330.106 10.0368C331.419 10.005 332.705 9.9874 333.825 9.96412L333.942 6.96517C330.741 7.17122 327.815 7.32613 324.957 7.45201C325.097 6.86011 329.421 7.34652 329.242 6.74262C325.408 7.01562 323.204 7.54224 319.395 7.43666C318.409 7.36292 319.951 7.17789 320.278 7.07235C316.445 7.35834 312.878 7.09891 309.463 7.47058C309.461 7.41862 309.845 7.34962 310.189 7.29545C309.512 7.32524 308.623 7.23425 308.703 7.49104L309.364 7.40988C310.445 7.77878 306.703 8.25598 306.587 8.45633C307.715 7.67773 303.219 8.30531 305.015 7.31503C304.575 7.37346 304.014 7.50233 304.118 7.67995C303.467 7.64358 303.254 7.53578 303.909 7.32471C301.51 7.50847 302.365 7.77018 300.181 7.80131C300.175 7.67139 300.629 7.61235 300.844 7.45972C299.749 7.72922 298.64 7.99933 296.797 7.92432C296.904 7.84151 296.692 7.7467 297.245 7.73536C294.081 7.82266 291.869 8.4928 288.389 8.30767C289.401 7.72942 287.206 8.1515 287.018 7.66513L285.159 7.85116L285.915 8.06516C284.284 8.08495 282.848 8.47359 281.431 8.34075L282.639 8.11835L279.574 8.25336L281.31 8.42417C279.663 8.70501 281.504 9.04046 279.327 8.94107C279.767 8.88263 277.696 8.97386 276.84 8.69916C276.031 8.86495 275.209 9.04435 274.002 8.95435C273.691 8.81183 274.24 8.41015 274.043 8.31474C273.259 8.73975 270.22 8.52217 269.216 8.9699C269.557 8.86376 269.559 8.60332 269.446 8.55622L268.783 8.89781C268.019 8.81434 267.906 8.76724 268.035 8.5533C265.752 8.54971 268.767 9.14587 266.061 8.95266C266.266 8.91756 266.168 8.86985 266.608 8.81141C263.893 8.73574 261.365 9.13345 258.871 9.06104C258.118 8.5996 261.049 8.87401 260.188 8.49539C256.6 8.69248 252.753 9.29147 249.28 9.27523L249.931 9.3116C249.465 10.022 247.332 9.03559 245.579 9.42522C246.004 9.3544 246.128 9.02354 246.021 9.10635C243.64 9.08104 241.153 9.45094 237.557 9.79154L238.005 9.60259C236.589 9.49573 234.299 9.63566 232.79 9.61101C232.342 9.79996 231.484 9.79869 232.021 10.0484C227.308 9.22764 223.124 10.9609 218.944 10.2859C219.441 10.264 220.124 10.0777 219.724 10.0954L216.196 10.407C216.485 10.6936 216.673 10.5682 217.416 10.7698C216.981 10.9581 215.98 11.1584 215.11 11.1967C216.689 10.9189 215.075 10.7166 214.377 10.5782C214.492 10.6642 214.262 10.7785 214.335 10.8664C212.462 10.4283 214.058 11.4904 211.516 11.2509L211.647 11.0889C210.712 11.2212 209.851 11.4674 208.828 11.4734C208.385 11.1545 209.828 11.2601 209.871 10.9719C208.45 11.0605 207.084 11.7715 205.785 11.4903C206.388 11.3596 207.258 11.3213 207.861 11.1906C206.434 10.8499 206.273 10.9611 205.222 10.9554L205.318 10.9511L202.895 10.9017L203.521 10.9782C201.78 11.9791 199.886 11.3726 197.525 12.1144C199.832 11.401 197.897 11.7596 198.046 11.3626C197.42 11.286 196.476 11.2234 196.734 11.1079C195.617 11.4956 194.819 10.984 193.239 11.5482C193.165 11.4213 192.024 11.6017 192.259 11.279C190.788 11.474 192.627 11.471 192.511 11.6454C190.266 12.1998 187.109 11.5058 183.882 12.3639C181.08 12.8387 180.589 13.3029 177.993 13.7296C177.088 13.6003 178.676 13.205 178.676 13.205C177.233 13.1253 176.163 13.3156 174.832 13.5825C175.089 13.441 174.796 13.3758 174.376 13.2772C173.304 13.4285 173.708 13.8142 172.268 13.7736C172.495 13.6073 172.788 13.3471 173.292 13.1557C172.03 13.4065 170.801 13.7731 169.512 14.0251C169.13 13.8466 170.268 13.6143 170.716 13.4123C169.247 13.6723 166.91 14.0095 166.501 14.4571L167.455 14.4411C166.92 14.5428 167.139 14.1817 167.521 14.0607C168.748 13.6552 169.358 13.9798 169.446 14.1061L168.527 14.2897C169.579 14.9203 172.268 13.7736 174.156 13.6123L173.436 14.2297L175.316 13.5742C175.736 13.6729 176.052 13.9453 175.133 14.116C176.508 14.2376 176.309 13.8038 177.492 13.973C177.618 14.0065 177.564 14.0349 177.455 14.0658C177.892 13.9554 178.318 13.8845 178.757 13.7871C178.513 13.915 179.008 14.1535 178.191 14.1375C180.589 14.2531 181.978 13.424 182.906 13.7606L182.714 13.8081C185.987 13.3645 183 13.392 185.42 12.7257L187.159 13.5733L187.445 13.1572C187.79 13.142 188.453 13.1128 188.349 13.2865C189.592 12.9194 188.121 13.1274 188.841 12.8223C190.497 13.0487 193.331 12.3642 193.744 12.9578C194.31 12.6205 192.161 12.8193 193.891 12.5088C194.431 13.1618 195.9 12.2641 197.417 12.4836C196.978 12.8675 195.562 12.7606 197.066 12.9807C197.922 12.3312 199.982 12.9304 201.233 12.7321C201.267 12.249 203.956 12.3649 206.061 12.1159C205.93 12.2779 210.062 12.174 212.03 12.2436L211.978 12.3239C212.329 11.8268 214.363 11.8154 215.835 11.6334C215.792 11.9216 215.535 12.0501 214.74 12.2153L216.135 12.1539C216.458 11.9704 216.883 11.8736 217.778 11.7821L217.449 12.1481C219.298 12.0536 221.158 11.5681 223.544 11.7104C223.667 11.3665 221.611 10.8583 224.115 10.5398C224.22 10.7174 224.316 11.0255 223.67 11.1191C223.89 11.0834 224.437 10.9421 224.869 11.0012L223.874 11.3444C224.957 11.4269 224.429 11.0726 225.3 11.0603C225.298 11.3207 225.943 11.2142 225.828 11.4275C225.608 11.4633 225.064 11.3571 224.737 11.4756C225.72 11.4844 226.901 11.5886 227.296 11.7664C227.207 11.6272 227.28 11.4157 227.997 11.358C229.847 11.2636 228.646 11.6419 229.729 11.7243C230.176 11.5224 231.358 11.6526 231.369 11.2746C231.908 11.2509 232.012 11.4285 232.224 11.5233C233.17 11.3255 236.698 11.3263 235.602 10.945L235.352 10.93C235.352 10.93 235.449 10.9257 235.503 10.9103C238.636 10.4209 242.033 10.8961 245.147 10.6287L245.153 10.7586C246.998 10.5472 249.28 10.5508 250.608 10.232C251.161 10.2077 251.918 10.4347 251.676 10.5885C253.094 10.4479 253.254 10.2977 255.308 10.4545C253.881 10.7257 255.801 10.6411 253.851 10.6619C255.707 10.7233 256.131 10.9129 258.105 10.5006C257.442 10.8552 259.504 10.8685 260.385 10.7516L259.089 10.5483C260.068 10.4792 260.939 10.4669 261.811 10.4805L261.347 10.9305C265.143 11.3621 268.149 9.87598 271.034 10.6861C272.03 10.3559 268.979 10.5163 269.862 10.1519C271.606 10.1663 273.43 10.7498 273.969 10.739C276.357 10.9202 276.181 10.0559 278.676 10.1673C278.351 10.0254 278.042 9.60943 279.902 9.43639C281.647 9.4637 282.06 10.0443 280.959 10.1839C280.545 10.2021 280.335 10.1593 280.361 10.1061C279.796 10.17 279.067 10.2542 279.751 10.4063L279.98 10.253C280.844 10.3972 283.234 10.331 282.679 10.5897C283.985 10.415 283.234 10.331 282.263 10.2696C284.498 10.4445 285.747 10.2073 288.048 10.3142C287.685 10.2391 287.345 10.0588 287.705 10.056C291.072 10.181 289.184 9.73047 291.463 9.63012C292.759 9.84638 291.004 10.197 293.304 9.96557C294.707 10.099 293.612 10.3685 293.051 10.5104C295.139 10.1841 296.972 10.6371 298.163 10.6757L297.063 10.8153C297.723 10.7341 298.262 10.7234 298.815 10.7121L298.179 10.4147C298.832 10.464 299.371 10.4533 299.363 10.5838C300.031 10.3721 298.842 10.0731 300.171 9.78024C301.035 9.92442 302.805 9.57315 303.099 9.97671C300.383 9.87505 303.407 10.3797 301.101 10.4812C301.541 10.4228 302.081 10.425 302.733 10.4614C302.832 10.5091 302.64 10.5436 302.461 10.5775C305.063 10.9055 303.658 10.0953 306.34 10.0682C306.005 10.3043 306.968 10.4962 307.408 10.4377C306.329 10.4462 306.879 10.0575 307.881 9.87022C309.603 10.0287 309.755 9.70956 310.655 9.722L309.628 9.65008C309.978 9.41342 310.836 9.42768 312.05 9.34818C312.155 9.5258 310.963 9.48716 311.381 9.55985C312.718 9.1365 314.4 9.94754 316.269 9.64398C317.133 9.78815 316.357 10.0826 317.108 10.1797C319.197 9.85343 319.376 10.4703 321.564 10.2047C320.928 9.89434 320.821 9.97715 322.357 9.6622L318.744 9.92547L321.06 9.44594C319.968 9.45501 318.76 9.66442 318.108 9.62805C319.203 9.35855 319.096 9.44136 318.573 9.19104C320.073 9.63263 321.52 8.89201 323.248 9.18036L323.199 9.9505C325.786 10.2661 327.801 9.51353 331.17 9.67755L330.085 9.55609C330.542 9.24961 332.158 9.49085 333.245 9.36486C333.17 9.55039 333.492 9.64033 333.856 9.74144L333.952 7.19901C333.812 7.15313 333.671 7.09426 333.53 7.04837C333.567 7.24203 331.062 6.90979 330.724 7.40628L329.253 7.00245C326.544 6.7313 326.097 7.58402 323.501 7.37297C324.306 7.12922 323.134 6.8945 324.886 6.77829C324.012 6.73866 323.234 6.65579 323.214 6.82589C322.708 6.63993 320.775 7.05046 319.988 6.77272C319.619 6.86709 319.478 7.13361 318.507 7.05925C318.407 6.99855 318.515 6.92873 318.515 6.92873C318.507 7.05925 316.969 7.02283 317.814 7.35009C315.172 6.42512 310.316 7.04253 308.012 6.25885C306.105 6.30381 303.81 6.3398 302.08 6.31189C302.187 6.24207 302.088 6.18137 302.422 6.21874C300.043 5.93299 300.931 6.92221 298.233 6.59848C296.857 6.15142 299.677 6.40471 298.825 6.23395C298.483 5.37691 295.548 6.27415 293.74 5.74201L294.181 5.69657C292.797 5.38003 290.761 5.93833 288.487 5.8302C288.487 5.8302 288.595 5.76038 288.509 5.69907C286.935 6.09379 283.978 6.17197 281.795 6.24207C282.487 5.92525 282.799 6.09375 282.382 5.74763C281.402 5.79081 282.655 6.28232 280.694 6.35568C280.063 6.17519 278.645 6.01637 278.463 5.65991L280.316 5.64337C279.369 5.17746 277.924 5.65764 276.951 5.5703L277.081 5.36935C274.247 5.42906 274.201 5.93876 271.142 5.90428L271.453 6.05978C269.787 6.56269 270.057 5.76983 268.399 6.14222L267.906 5.63025C266.805 5.75685 264.054 6.12532 262.08 6.21228C263.198 5.83763 265.514 5.64452 266.943 5.42538C265.85 5.42146 263.237 5.45845 262.666 5.70484C263.107 5.6594 263.655 5.53115 264.087 5.61622C262.749 6.0136 260.987 6.20836 258.815 6.19991C259.2 5.20671 253.157 5.91539 251.577 5.20402C247.736 5.63352 243.952 5.16236 239.476 5.29445C241.072 6.04418 238.163 5.33923 238.447 6.13374C237.399 6.20594 237.011 6.19699 236.912 6.14928L233.739 5.71632C232.982 5.50233 234.727 5.52963 234.636 5.3514C232.352 5.32183 233.667 5.02961 232.151 4.83607C232.468 5.12149 231.367 5.26108 230.062 5.16235L231.903 5.4978C228.714 5.96367 229.137 4.8777 225.92 5.34479L226.932 5.07894C225.279 5.24285 220.838 5.2432 219.236 5.92555C218.942 5.84738 218.545 5.63057 219.275 5.55936C215.333 5.57679 210.517 6.49178 207.433 6.19807L207.728 5.98983C206.998 6.06103 206.46 6.39715 205.525 6.23003C205.577 6.14965 205.821 6.02178 205.475 6.024C205.091 6.10598 203.528 6.42215 202.556 6.3348L203.375 6.09045C199.523 5.94773 197.485 6.79244 194.273 7.06405C194.248 6.49244 191.229 6.43014 189.72 6.40549L189.772 6.32511C185.295 6.4442 182.184 7.1149 178.051 7.5052C175.455 6.99473 169.325 7.59014 165.17 7.48677C165.81 7.56273 165.093 7.93274 164.364 8.02992C163.393 7.96856 161.704 8.56363 161.833 8.03728L162.178 8.02208C161.424 7.54765 159.429 7.79173 157.882 7.85984L157.664 8.55933C153.535 7.77798 147.024 9.48351 144.749 8.69862C143.776 8.92368 142.561 8.97719 141.59 9.21524L141.615 8.84966C138.893 8.9175 137.525 8.96472 134.176 9.2554L134.841 8.95278C132.935 9.03671 132.514 10.1616 130.763 10.2908L130.2 9.76893C126.889 9.97984 123.515 9.69891 120.268 10.4017C120.319 10.3213 120.409 10.1481 120.932 10.099C119.372 10.1678 114.887 10.105 115.5 10.8329C115.423 10.3417 112.091 11.0221 110.307 11.361L110.554 10.9857C109.084 11.545 109.035 11.6774 106.944 11.9517C106.445 11.9346 106.49 11.6983 107.156 11.7341C105.479 11.6648 105.888 12.1674 103.852 12.1139L104.587 11.8342C102.875 11.9226 103.019 12.0335 102.093 12.3736C101.023 12.59 98.8481 12.5165 98.5708 12.1903C98.3591 12.4079 97.4327 12.7351 96.4219 12.7145C96.2787 12.6037 96.6337 12.4969 96.8253 12.4494C93.9453 12.3941 92.6092 13.1558 90.6083 12.9576C90.5617 12.8425 90.4214 12.7966 90.254 12.7649C92.5294 12.5996 94.3508 12.4933 94.1863 12.5266C94.1714 12.1888 92.3206 12.2573 93.7487 11.6998C92.2976 12.0501 89.8127 12.7974 88.0131 12.7725C87.9291 12.7501 87.8307 12.7154 87.7738 12.6789L87.9516 12.632C87.5362 12.6243 87.1657 12.6927 86.8234 12.7728C86.2417 12.7594 85.8816 12.7492 85.3298 12.7865C85.0969 12.5234 83.2138 12.8016 82.3031 12.8548C82.402 13.2149 81.1995 13.2418 82.3576 13.4641C82.2046 13.4448 82.521 13.4049 83.1274 13.3521C83.2649 13.3331 83.43 13.3128 83.5117 13.2831C83.4979 13.2837 83.4714 13.3109 83.4582 13.3245C84.0646 13.2718 84.8361 13.1988 85.7325 13.1333C85.0236 13.3727 84.286 13.5875 83.2568 13.4636C82.812 13.7305 82.3126 14.0128 82.0278 14.1425C80.7369 13.7308 78.2981 13.6429 77.9392 13.3463C75.1632 13.768 71.3678 13.9742 69.6751 14.8037C68.8932 14.9553 68.7431 14.6886 68.4347 14.598C68.8864 14.487 69.4387 14.4627 69.6683 14.3354C68.0907 14.6392 64.9707 14.7896 64.6335 15.2991C62.6112 15.245 65.7169 14.7698 62.9772 15.0727L63.3293 14.901C57.8507 14.5826 54.6433 16.8325 48.5773 16.3708C48.9933 16.3915 49.2015 16.4083 49.3016 16.482C42.4335 16.6544 35.2619 18.1027 28.4668 18.0505C26.532 18.0967 26.3663 18.4164 25.219 18.7533L24.7606 18.396L22.8101 19.0286C20.0139 19.6203 17.8079 18.533 14.2815 19.5083L14.7751 19.7209C13.4778 19.7911 10.7184 20.277 10.8974 19.9438C10.7755 20.0012 10.5102 20.2602 9.98033 20.1664L9.91594 19.9609L6.79125 20.6322C4.31967 20.7411 7.08601 19.7862 3.50288 20.1002C2.18421 20.3145 -0.21676 21.0841 0.299274 21.1785C0.83663 21.1288 1.68176 21.1567 1.74615 21.3621L0.53908 21.5975C0.386473 22.216 -0.467465 22.9305 2.55348 23.0447L4.58908 22.4604L5.29091 22.6899L3.54248 22.884C4.56017 23.0605 5.16893 22.7473 5.85016 22.509C6.03595 22.644 6.34373 22.7216 6.75968 22.7423L8.73146 21.9656C9.00354 22.1749 7.87066 22.5242 9.25372 22.5153C10.1783 22.1492 8.27982 22.0766 9.84245 21.7474C10.8601 21.9239 10.5943 22.1699 11.7415 21.833C11.9273 21.968 11.6839 22.0959 11.2323 22.2069C12.257 21.9144 13.9703 21.865 14.4795 21.4911C15.5553 21.7301 17.9747 21.0639 17.9308 21.6385C18.2415 21.4686 19.7156 21.0132 20.6649 20.8933C18.9865 21.7352 24.2492 20.6053 23.8543 21.3776C25.0811 20.6467 28.4852 20.666 30.744 20.124C30.622 20.1814 30.3786 20.3093 30.1704 20.2924C31.4683 20.2352 31.848 20.3747 32.6937 20.4156C32.8089 19.8898 34.8018 19.5938 35.849 19.1832C37.469 19.5284 34.9519 19.8605 35.4828 20.2927C35.3684 19.8943 38.1795 19.6403 37.6134 19.3528C38.8532 19.5455 38.6674 19.4105 39.3335 19.7717C39.4844 19.1142 40.4451 19.5665 41.406 19.0816C43.1837 19.2376 41.9144 19.632 43.8079 19.2752C44.7398 19.3904 43.0547 19.764 43.0547 19.764L43.1381 19.7733ZM88.7196 14.9932C88.3204 15.0368 87.9901 15.0774 87.783 15.0865C87.9763 15.078 88.2513 15.0399 88.7196 14.9932ZM92.5525 14.6942C92.083 14.7149 91.5042 14.7664 90.8834 14.8068C90.7402 14.696 90.872 14.547 91.2586 14.5299C91.0555 14.63 91.9685 14.6288 92.5525 14.6942ZM84.2367 12.7826C84.8414 12.6909 85.0514 12.7467 85.1371 12.808C84.8483 12.8468 84.5175 12.8744 84.0774 12.9328C84.0635 12.9334 84.0238 12.9742 84.0106 12.9878C84.0624 12.9074 84.1286 12.8394 84.2367 12.7826Z" fill="#F9CF01"/>
<path d="M83.1827 13.3497C83.0999 13.3533 83.0458 13.3818 82.9359 13.3996C83.0613 13.4201 83.1867 13.4406 83.3115 13.4482C83.3789 13.4061 83.46 13.3635 83.5135 13.3221C83.4031 13.327 83.2926 13.3318 83.1827 13.3497Z" fill="#F9CF01"/>
<path d="M235.606 11.036L235.689 11.0323C235.689 11.0323 235.563 11.0118 235.521 11.0006C235.577 11.0112 235.578 11.0242 235.606 11.036Z" fill="#F9CF01"/>
<path d="M145.668 11.9773L145.65 11.887L145.322 11.9796L145.668 11.9773Z" fill="#F9CF01"/>
<path d="M214.339 10.6579C214.339 10.6579 214.212 10.5985 214.059 10.5792C214.06 10.6051 214.199 10.625 214.339 10.6579Z" fill="#F9CF01"/>
<path d="M205.184 11.0481L203.881 10.9884C204.45 11.0284 204.852 11.0498 205.184 11.0481Z" fill="#F9CF01"/>
<path d="M198.124 11.281C198.044 11.3496 198.019 11.4027 197.993 11.4429L198.007 11.4423L198.124 11.281Z" fill="#F9CF01"/>
<path d="M310.164 7.33564C310.26 7.33138 310.357 7.32712 310.44 7.32347C311.073 7.24353 310.645 7.27538 310.164 7.33564Z" fill="#F9CF01"/>
<path d="M276.83 8.76472C277.186 8.69695 277.529 8.61678 277.9 8.57438C277.305 8.56156 276.848 8.55565 276.83 8.76472Z" fill="#F9CF01"/>
<path d="M320.283 9.70146C320.199 9.69212 320.13 9.68217 320.047 9.68581L320.269 9.70207L320.283 9.70146Z" fill="#F9CF01"/>
<path d="M279.448 8.54524C278.85 8.48046 278.354 8.51534 277.9 8.57438C278.385 8.59207 278.967 8.6185 279.448 8.54524Z" fill="#F9CF01"/>
<path d="M167.615 13.6791L167.27 13.6943C167.27 13.6943 167.272 13.7463 167.232 13.7741L167.601 13.6797L167.615 13.6791Z" fill="#F9CF01"/>
<path d="M167.232 13.7611L166.863 13.8554C167.042 13.8345 167.179 13.8025 167.232 13.7611Z" fill="#F9CF01"/>
<path d="M166.097 14.0714L166.877 13.8678C166.602 13.906 166.258 13.9472 166.097 14.0714Z" fill="#F9CF01"/>
<path d="M176.946 12.8646L177.036 12.7175C177.036 12.7175 176.943 12.7997 176.946 12.8646Z" fill="#F9CF01"/>
<path d="M179.769 12.5711C179.093 12.6009 178.047 12.4126 177.114 12.5969L177.036 12.7175C177.454 12.4648 179.146 12.8589 179.769 12.5711Z" fill="#F9CF01"/>
<path d="M191.699 13.2952L189.321 13.3479C189.741 13.4595 190.301 13.6041 189.227 13.7165C192.239 13.9353 188.592 13.4321 191.699 13.2952Z" fill="#F9CF01"/>
<path d="M199.061 13.0361C197.795 13.1829 199.084 13.2433 199.032 13.3237C199.827 13.1455 200.018 13.098 199.061 13.0361Z" fill="#F9CF01"/>
<path d="M252.21 10.7862L252.087 11.1171C253.065 11.035 252.081 10.9872 252.21 10.7862Z" fill="#F9CF01"/>
<path d="M262.346 8.77787L261.384 8.59898L260.927 8.90546L262.346 8.77787Z" fill="#F9CF01"/>
<path d="M268.406 10.9971L267.98 11.0549L269.62 10.9046L268.406 10.9971Z" fill="#F9CF01"/>
<path d="M310.117 5.99692L310.398 6.41408C311.061 6.38489 311.235 5.92168 310.117 5.99692Z" fill="#F9CF01"/>
<path d="M271.494 5.71958C271.07 5.51697 269.985 5.38253 269.315 5.58121C270.188 5.60786 271.053 5.77801 271.494 5.71958Z" fill="#F9CF01"/>
<path d="M155.71 8.16379L156.477 7.98683L155.019 8.1812L155.71 8.16379Z" fill="#F9CF01"/>
</g>
<defs>
<clipPath id="clip0_42_18838">
<rect width="334" height="10" fill="white" transform="translate(0 14.6965) rotate(-2.52191)"/>
</clipPath>
</defs>
</svg>
