<svg width="62" height="62" viewBox="0 0 62 62" fill="none" xmlns="http://www.w3.org/2000/svg">
<circle cx="30.8824" cy="30.8824" r="30.8824" fill="white"/>
<path d="M26.2531 28.3808C28.2828 28.3808 29.9281 26.7354 29.9281 24.7058C29.9281 22.6761 28.2828 21.0308 26.2531 21.0308C24.2235 21.0308 22.5781 22.6761 22.5781 24.7058C22.5781 26.7354 24.2235 28.3808 26.2531 28.3808Z" fill="#0A0A0A"/>
<path d="M44.7353 24.7059H44.0095V31.8243L43.8088 31.6544C42.6044 30.6198 40.6588 30.6198 39.4544 31.6544L33.0309 37.1669C31.8264 38.2015 29.8809 38.2015 28.6764 37.1669L28.1514 36.7345C27.0551 35.7772 25.3103 35.6845 24.075 36.5184L18.3 40.3941C17.9603 39.5294 17.7595 38.5257 17.7595 37.3522V24.4125C17.7595 20.0581 20.0603 17.7573 24.4147 17.7573H37.061V17.0316C37.061 16.414 37.1691 15.889 37.4162 15.4412H24.4147C18.7941 15.4412 15.4434 18.7919 15.4434 24.4125V37.3522C15.4434 39.0353 15.7367 40.5022 16.3081 41.7375C17.636 44.6713 20.4772 46.3235 24.4147 46.3235H37.3544C42.975 46.3235 46.3257 42.9728 46.3257 37.3522V24.3507C45.8779 24.5978 45.3529 24.7059 44.7353 24.7059Z" fill="#0A0A0A"/>
<path d="M44.7348 13.897H40.1951C38.8517 13.897 37.8635 14.4529 37.4157 15.4411C37.1686 15.8889 37.0605 16.4139 37.0605 17.0315V17.7573V21.5712C37.0605 23.5323 38.2341 24.7058 40.1951 24.7058H44.0091H44.7348C45.3525 24.7058 45.8775 24.5977 46.3253 24.3506C47.3135 23.9029 47.8694 22.9146 47.8694 21.5712V17.0315C47.8694 15.0705 46.6958 13.897 44.7348 13.897ZM43.7003 21.9418C43.2061 22.2352 42.7275 22.3896 42.465 22.3896C41.7701 22.3896 39.7936 21.4323 39.2069 19.5793C39.1142 19.3014 39.0679 18.9926 39.0679 18.6992C39.0679 18.4367 39.0988 18.1742 39.176 17.9271C39.3767 17.2014 39.8554 16.5683 40.6583 16.3058C40.9672 16.2131 41.2914 16.1823 41.5848 16.244C41.8936 16.2904 42.187 16.4139 42.4495 16.6146C42.9436 16.2286 43.623 16.1051 44.2716 16.3058C45.6767 16.769 46.1245 18.3595 45.723 19.5793C45.6613 19.7646 45.5841 19.9499 45.4914 20.1198C45.0745 20.9536 44.3642 21.5712 43.7003 21.9418Z" fill="#0A0A0A"/>
</svg>
