<svg width="24" height="24" viewBox="0 0 24 24" fill="none" xmlns="http://www.w3.org/2000/svg">
<path fill-rule="evenodd" clip-rule="evenodd" d="M12.002 1.5061C17.8 1.5061 22.5021 6.20816 22.5021 12.0062C22.5021 17.8042 17.8 22.5062 12.002 22.5062C6.20401 22.5062 1.50195 17.8042 1.50195 12.0062C1.50195 6.20816 6.20401 1.5061 12.002 1.5061ZM9.82155 15.4167L7.25087 12.8439C6.81292 12.4057 6.81283 11.691 7.25087 11.2529C7.68901 10.8149 8.40679 10.8176 8.84174 11.2529L10.654 13.0667L15.1625 8.55824C15.6006 8.12011 16.3153 8.12011 16.7533 8.55824C17.1915 8.99628 17.1908 9.71159 16.7533 10.1491L11.4482 15.4542C11.0107 15.8917 10.2954 15.8924 9.85733 15.4542C9.84502 15.4419 9.83315 15.4294 9.82155 15.4167Z" fill="#F9CF01"/>
</svg>
