<svg width="12" height="13" viewBox="0 0 12 13" fill="none" xmlns="http://www.w3.org/2000/svg">
<g clip-path="url(#clip0_168_209)">
<path d="M6.46824 9.83309L11.8083 4.49294C11.9319 4.36943 12 4.20455 12 4.02875C12 3.85294 11.9319 3.68807 11.8083 3.56456L11.4151 3.17129C11.1589 2.91539 10.7425 2.91539 10.4867 3.17129L6.00249 7.65555L1.51326 3.16631C1.38965 3.0428 1.22487 2.97461 1.04916 2.97461C0.873261 2.97461 0.708482 3.0428 0.584775 3.16631L0.191706 3.55958C0.0680971 3.68319 -3.81757e-08 3.84797 -4.58603e-08 4.02377C-5.3545e-08 4.19957 0.0680971 4.36445 0.191706 4.48796L5.53664 9.83309C5.66064 9.95689 5.8262 10.0249 6.00219 10.0245C6.17888 10.0249 6.34434 9.95689 6.46824 9.83309Z" fill="#737373"/>
</g>
<defs>
<clipPath id="clip0_168_209">
<rect width="12" height="12" fill="white" transform="translate(12 0.5) rotate(90)"/>
</clipPath>
</defs>
</svg>
