<svg width="17" height="16" viewBox="0 0 17 16" fill="none" xmlns="http://www.w3.org/2000/svg">
<path d="M15.4664 7.43438L9.06638 1.03438C8.9155 0.888657 8.71342 0.808022 8.50366 0.809845C8.2939 0.811667 8.09325 0.895802 7.94493 1.04413C7.7966 1.19246 7.71247 1.39311 7.71064 1.60286C7.70882 1.81262 7.78945 2.0147 7.93518 2.16558L12.9696 7.19998H2.10078C1.88861 7.19998 1.68512 7.28427 1.5351 7.4343C1.38507 7.58433 1.30078 7.78781 1.30078 7.99998C1.30078 8.21216 1.38507 8.41564 1.5351 8.56567C1.68512 8.7157 1.88861 8.79998 2.10078 8.79998H12.9696L7.93518 13.8344C7.85877 13.9082 7.79783 13.9965 7.7559 14.0941C7.71397 14.1917 7.6919 14.2966 7.69098 14.4029C7.69006 14.5091 7.7103 14.6144 7.75052 14.7127C7.79075 14.8111 7.85015 14.9004 7.92527 14.9755C8.00038 15.0506 8.0897 15.11 8.18802 15.1502C8.28633 15.1905 8.39168 15.2107 8.4979 15.2098C8.60413 15.2089 8.7091 15.1868 8.8067 15.1449C8.90431 15.1029 8.99258 15.042 9.06638 14.9656L15.4664 8.56558C15.6164 8.41556 15.7006 8.21211 15.7006 7.99998C15.7006 7.78785 15.6164 7.58441 15.4664 7.43438Z" fill="#0A0A0A"/>
</svg>
