<svg width="12" height="12" viewBox="0 0 12 12" fill="none" xmlns="http://www.w3.org/2000/svg">
<path d="M10.5 2.2071L9.79292 1.5L8.67139 2.62171C7.84956 2.2233 6.9482 1.99997 5.99993 1.99997C3.43452 1.99997 1.20013 3.61125 0 5.99997C0.589944 7.1743 1.43219 8.15576 2.43852 8.85489L1.50013 9.79282L2.20723 10.4999L3.32682 9.38032L4.62325 8.08433C4.62325 8.08433 4.62325 8.08433 4.62281 8.08433L10.5 2.2071ZM3.50006 5.99997C3.50006 4.61908 4.61918 3.49996 6.00007 3.49996C6.50977 3.49996 6.98045 3.65581 7.37511 3.91799L6.6431 4.64982C6.4472 4.55665 6.23152 4.49996 6.00007 4.49996C5.17148 4.49996 4.50009 5.17135 4.50009 5.99995C4.50009 6.23095 4.55678 6.44768 4.64994 6.64297L3.91812 7.37498C3.65635 6.98035 3.50006 6.50965 3.50006 5.99997Z" fill="#2D324B"/>
<path d="M10.3452 3.77661L8.4654 5.65639C8.48098 5.77024 8.50006 5.88303 8.50006 6.00063C8.50006 7.38152 7.38093 8.50065 6.00004 8.50065C5.88183 8.50065 5.76965 8.4816 5.6558 8.46599L4.35352 9.76872C4.88135 9.91766 5.43172 10.0008 6.00004 10.0008C8.56545 10.0008 10.7998 8.38993 12 6.00077C11.5708 5.14625 11.0073 4.39371 10.3452 3.77661Z" fill="#2D324B"/>
</svg>
