<svg width="13" height="13" viewBox="0 0 13 13" fill="none" xmlns="http://www.w3.org/2000/svg">
<path d="M6.49908 2.11401C9.24533 2.11401 11.7803 3.59151 12.9584 5.88276C13.0113 5.9915 13.0113 6.11901 12.9584 6.224C11.7763 8.51151 9.24127 9.98901 6.49908 9.98901C3.75689 9.98901 1.22189 8.51151 0.0396948 6.224C-0.0131178 6.11901 -0.0131178 5.9915 0.0396948 5.88276C1.21783 3.59151 3.75282 2.11401 6.49908 2.11401ZM6.49908 8.429C7.91689 8.429 9.07469 7.36026 9.07469 6.05151C9.07469 4.74277 7.91689 3.674 6.49908 3.674C5.08127 3.674 3.92344 4.74277 3.92344 6.05151C3.92344 7.36026 5.08127 8.429 6.49908 8.429Z" fill="#0A0A0A"/>
<path d="M6.50078 7.62656C5.55845 7.62656 4.79453 6.92141 4.79453 6.05156C4.79453 5.18171 5.55845 4.47656 6.50078 4.47656C7.44312 4.47656 8.20703 5.18171 8.20703 6.05156C8.20703 6.92141 7.44312 7.62656 6.50078 7.62656Z" fill="#0A0A0A"/>
</svg>
