<svg width="17" height="16" viewBox="0 0 17 16" fill="none" xmlns="http://www.w3.org/2000/svg">
<path d="M1.53362 7.43438L7.93362 1.03438C8.0845 0.888657 8.28658 0.808022 8.49634 0.809845C8.7061 0.811667 8.90675 0.895802 9.05507 1.04413C9.2034 1.19246 9.28753 1.39311 9.28936 1.60286C9.29118 1.81262 9.21055 2.0147 9.06482 2.16558L4.03042 7.19998H14.8992C15.1114 7.19998 15.3149 7.28427 15.4649 7.4343C15.6149 7.58433 15.6992 7.78781 15.6992 7.99998C15.6992 8.21216 15.6149 8.41564 15.4649 8.56567C15.3149 8.7157 15.1114 8.79998 14.8992 8.79998H4.03042L9.06482 13.8344C9.14123 13.9082 9.20217 13.9965 9.2441 14.0941C9.28603 14.1917 9.3081 14.2966 9.30902 14.4029C9.30994 14.5091 9.2897 14.6144 9.24948 14.7127C9.20925 14.8111 9.14985 14.9004 9.07473 14.9755C8.99962 15.0506 8.9103 15.11 8.81198 15.1502C8.71367 15.1905 8.60832 15.2107 8.5021 15.2098C8.39587 15.2089 8.2909 15.1868 8.1933 15.1449C8.09569 15.1029 8.00742 15.042 7.93362 14.9656L1.53362 8.56558C1.38364 8.41556 1.29939 8.21211 1.29939 7.99998C1.29939 7.78785 1.38364 7.58441 1.53362 7.43438Z" fill="#0A0A0A"/>
</svg>
