<svg width="114" height="96" viewBox="0 0 114 96" fill="none" xmlns="http://www.w3.org/2000/svg">
<g clip-path="url(#clip0_38_11703)">
<path d="M53.1067 91.4521C53.1305 91.2849 52.9483 91.03 52.7266 91.2052L52.7741 91.7627L53.1147 91.4521H53.1067Z" fill="#F9CF01"/>
<path d="M51.0324 91.3008C50.8344 91.6592 50.6443 92.1928 51.0007 92.5831C51.1195 92.0017 51.27 92.1689 51.365 91.476C51.5868 91.3167 51.864 91.4521 51.8957 91.6512C51.9353 91.4919 52.3393 91.5875 52.3313 91.2211C51.8403 91.0061 51.4363 91.1415 51.1353 91.6353C51.0007 91.5636 51.0403 91.3963 51.0245 91.3008H51.0324Z" fill="#F9CF01"/>
<path d="M25.5996 93.9212L25.758 93.9929C25.7184 93.9531 25.663 93.9292 25.5996 93.9212Z" fill="#F9CF01"/>
<path d="M11.1289 88.768C11.2319 88.8237 11.2952 88.8158 11.3348 88.776C11.2319 88.7361 11.1368 88.7122 11.1289 88.768Z" fill="#F9CF01"/>
<path d="M9.55273 86.6812C9.58442 86.7289 9.60818 86.7688 9.63986 86.8086C9.63194 86.7369 9.60818 86.6812 9.55273 86.6812Z" fill="#F9CF01"/>
<path d="M25.5992 93.9212L25.1953 93.7141C25.1477 93.8814 25.4012 93.8654 25.5992 93.9212Z" fill="#F9CF01"/>
<path d="M47.9903 93.6504C48.0695 93.6026 48.1329 93.5309 48.1804 93.4513C48.1171 93.4911 48.0458 93.5309 47.9824 93.5708C47.9824 93.6026 47.9824 93.6265 47.9903 93.6584V93.6504Z" fill="#F9CF01"/>
<path d="M32.5449 93.6186H32.6717C32.7033 93.5548 32.735 93.4752 32.7667 93.3955L32.5449 93.6186Z" fill="#F9CF01"/>
<path d="M37.8435 93.0689C37.7247 93.0689 37.7326 93.515 37.7168 93.7141C37.7643 93.5229 37.8435 93.4274 37.9386 93.3716C37.9307 93.284 37.899 93.1884 37.8435 93.061V93.0689Z" fill="#F9CF01"/>
<path d="M46.3262 92.2247L46.4608 92.1291C46.4608 92.1291 46.3658 92.1928 46.3262 92.2247Z" fill="#F9CF01"/>
<path d="M28.7506 93.5628C28.7506 93.4991 28.7269 93.4354 28.7031 93.4035C28.7031 93.4593 28.719 93.515 28.7506 93.5628Z" fill="#F9CF01"/>
<path d="M77.1378 63.8859C77.1378 63.8859 77.0903 63.9018 77.0586 63.9098C77.1061 63.9337 77.1457 63.9337 77.1378 63.8859Z" fill="#F9CF01"/>
<path d="M76.2812 70.6082L76.2416 70.5285C76.1545 70.5285 76.0753 70.5285 75.9961 70.5444L76.2812 70.6082Z" fill="#F9CF01"/>
<path d="M7.28711 82.7466C7.28711 82.7466 7.28711 82.7625 7.28711 82.7705C7.39008 82.8422 7.35047 82.7944 7.28711 82.7466Z" fill="#F9CF01"/>
<path d="M17.0446 43.8623C16.3951 43.8623 17.3693 42.9543 16.498 43.0738C16.6565 43.1694 16.3951 44.0455 17.0446 43.8623Z" fill="#F9CF01"/>
<path d="M47.831 93.6345C47.7598 93.6584 47.6885 93.6823 47.6172 93.7061C47.7202 93.6902 47.7914 93.6663 47.831 93.6345Z" fill="#F9CF01"/>
<path d="M16.4973 43.0817L16.4102 43.0977C16.4498 43.0977 16.4656 43.0897 16.4973 43.0817Z" fill="#F9CF01"/>
<path d="M4.21353 72.5675C4.13432 72.5994 4.07888 72.6471 4.02344 72.6949C4.07096 72.6949 4.1264 72.6551 4.21353 72.5675Z" fill="#F9CF01"/>
<path d="M5.32164 80.6996V80.4846C5.29788 80.5722 5.3058 80.6439 5.32164 80.6996Z" fill="#F9CF01"/>
<path d="M3.50781 68.3063C3.54742 68.1948 3.61078 68.163 3.56326 68.0037C3.53949 68.0196 3.52365 68.0276 3.50781 68.0435C3.56326 68.0992 3.58702 68.1789 3.50781 68.2984V68.3063Z" fill="#F9CF01"/>
<path d="M4.03851 63.854C4.03851 63.854 3.96723 63.8938 3.93555 63.9177C3.93555 63.9655 3.93555 64.0133 3.93555 64.0611L4.03851 63.854Z" fill="#F9CF01"/>
<path d="M71.9489 50.2501C71.8855 50.4014 71.7905 50.5209 71.6875 50.6244C71.941 50.4173 72.3528 51.0067 71.9489 50.2501Z" fill="#F9CF01"/>
<path d="M47.919 93.4115C47.919 93.5309 47.9032 93.5947 47.8398 93.6345C47.8874 93.6106 47.9428 93.5947 47.9824 93.5628C47.9824 93.4911 47.9666 93.4354 47.919 93.4035V93.4115Z" fill="#F9CF01"/>
<path d="M0.015625 67.932L0.126512 67.1435C0.0710686 67.3585 0.031466 67.6452 0.015625 67.932Z" fill="#F9CF01"/>
<path d="M44.9414 30.3619L45.1236 30.3142C45.0523 30.3062 44.9889 30.3142 44.9414 30.3619Z" fill="#F9CF01"/>
<path d="M0.308594 64.8018C0.474925 64.6824 0.601653 64.5549 0.680858 64.4116C0.649176 64.3717 0.633335 64.3319 0.585812 64.3C0.490766 64.4673 0.387799 64.6346 0.308594 64.8018Z" fill="#F9CF01"/>
<path d="M74.6901 54.8219C74.4208 54.1369 74.0248 54.7183 73.6605 54.7024C73.1773 53.9617 73.906 54.1688 74.0723 53.7785C73.7238 53.3325 73.0743 53.1572 72.9238 52.7829C73.0031 52.7192 73.0031 52.6316 73.1456 52.6634C72.4803 52.3369 72.4328 51.1103 71.6011 50.7758C71.6249 50.712 71.6566 50.6643 71.6962 50.6324C71.4823 50.8554 71.2209 51.0067 71.0229 51.0784C70.8724 50.7917 70.4289 50.712 70.714 50.4333C70.7932 50.6165 70.9358 50.5607 71.0863 50.5926L70.7853 50.3616C71.1417 49.8359 71.1576 50.6882 71.5219 50.505C71.0704 49.9872 70.3259 49.5173 70.2071 48.9996C70.6269 48.6492 70.9358 49.9554 71.0308 49.135C71.1021 49.3978 71.1576 49.6607 71.2051 49.9315C71.6962 48.9996 71.3635 50.3935 71.9259 49.4775C71.5853 48.466 71.1338 48.5695 70.7774 47.5739C70.4051 47.5182 70.4289 47.8606 70.0566 47.8049C68.8527 46.8172 70.6269 46.1084 69.4467 45.5349C69.0032 45.4792 68.3616 45.7659 68.2349 44.9296L68.8923 44.8101C68.3696 43.926 67.8547 44.8101 67.5933 43.711C67.9022 43.7189 68.2032 44.2526 68.1795 44.0853C68.1874 43.2331 67.625 43.8782 67.3161 43.4561L67.6884 43.0499C67.324 42.6357 66.8963 42.2454 66.4449 41.8552C65.9776 41.4808 65.4944 41.0985 65.0746 40.6764C65.241 40.6206 65.4944 40.6684 65.439 40.3418C64.8528 39.8401 64.2746 39.2666 63.7836 38.6135C63.2846 37.9683 62.7697 37.3232 62.3262 36.686C62.0886 36.6701 61.843 36.6701 61.5896 36.678C61.4866 36.5904 61.5262 36.3594 61.7005 36.3833C61.352 35.8815 61.4866 36.5984 61.154 36.5665C60.8767 36.3913 60.9797 36.0886 61.2252 36.1046C60.1877 35.7382 58.3976 35.093 57.7323 34.1134L57.9858 34.0974C57.3283 33.524 56.6868 34.4877 56.2195 33.739H56.3858C55.6571 33.1815 54.7146 32.9186 53.9067 32.5443C53.075 32.2018 52.283 31.923 51.7127 31.3575C51.3008 31.8832 50.0098 30.6646 49.7009 31.5407C48.7821 30.8717 49.1068 30.7283 47.6732 30.2584C47.2772 30.1708 47.0238 30.7761 46.5406 30.8159L46.5644 30.3221C46.3347 30.4655 46.105 30.6168 45.8753 30.792L45.5585 30.1947L45.0991 30.3141C45.2812 30.346 45.4713 30.5451 45.4397 30.6805C44.7347 30.8876 43.7288 30.3062 43.7051 30.0593C43.1427 30.1867 42.5962 30.4017 42.0576 30.569C42.0814 30.3699 42.3586 30.2823 42.5724 30.1389C41.7091 30.7044 42.3744 29.6371 41.5824 30.1548C41.7012 30.2584 41.5507 30.4495 41.5348 30.5531C41.321 30.4177 40.9804 30.3699 40.6081 30.3779C40.2438 30.3938 39.8636 30.4894 39.5389 30.5929L39.6181 30.2425C39.0082 30.2902 38.3825 30.4097 37.7409 30.561C37.0993 30.7283 36.4499 30.9195 35.7766 31.0389C36.2915 31.1027 36.2835 31.7 35.9113 31.8275L35.6499 31.3496C35.4677 31.708 36.0934 31.469 35.6578 31.9469C35.1588 31.9947 35.2063 31.4451 35.4519 31.2142L34.8895 31.5248C34.8182 31.3814 34.945 31.2699 34.937 31.0708C34.7628 31.4451 33.7727 30.808 33.543 31.4372L33.4717 31.2938C32.1411 31.6044 31.5946 31.9867 30.5332 32.3053C30.6441 32.7354 30.2006 32.7832 30.0026 33.2293C29.1947 33.3487 28.2204 33.293 27.3175 33.6992C26.7552 34.1611 27.27 34.1293 27.0799 34.4877C26.8819 34.1293 25.9869 34.5196 26.3512 34.0576C25.2899 34.5673 24.9889 34.7266 23.785 35.6506C23.9988 35.7302 24.1889 35.7143 24.1651 35.8815C23.9592 36.0647 23.5473 36.001 23.4998 35.8099L23.5473 35.7382C22.9454 36.3913 21.9474 36.5347 21.0207 36.7736C20.5534 36.8851 20.094 36.9966 19.7059 37.1718C19.3257 37.355 19.0247 37.6099 18.8505 37.9683L18.8901 37.8887C18.5812 38.263 18.2644 38.6294 17.9634 39.0038C17.401 39.3144 18.1059 38.5259 17.5832 38.5896C17.1555 39.3064 16.6723 39.625 16.1813 39.9038C15.706 40.1905 15.2387 40.4693 14.8981 41.0189C14.1378 40.8357 13.5041 41.4171 12.8784 42.0702C12.2368 42.7074 11.6903 43.48 10.9379 43.6552L11.1913 43.8065C11.1438 44.2366 10.7795 43.9738 10.5656 44.1092C10.7478 44.2366 11.0012 44.0216 10.9616 44.2765C9.23497 46.5305 6.77961 48.4182 4.99749 50.8554C4.37969 51.7634 5.94003 52.1298 4.68859 52.9581L4.41929 52.3687C3.92822 54.567 2.4154 56.375 2.21739 58.5813C2.1461 58.422 2.00354 58.3662 2.07482 58.1751C1.54415 58.4698 1.55207 59.768 1.84513 59.8557C1.7184 60.1583 1.55207 59.8557 1.34613 59.999C0.981789 60.3734 1.52038 61.2256 1.09268 61.361C1.02139 61.3849 1.00555 61.2097 0.99763 61.1221C1.10852 61.4566 0.625365 62.4522 1.12436 62.277C0.736253 63.0097 1.03723 63.8142 0.657048 64.3956C1.05307 64.8735 0.253101 65.7257 0.918425 65.9328C0.205578 65.7895 0.181816 67.2709 0.514478 67.7966C0.308545 67.6134 0.268942 68.2187 -0.024117 68.0116C-0.0478785 68.5931 0.0550882 69.1267 0.435273 69.0391C-0.412222 70.1064 1.11644 71.1418 0.0788498 71.779C0.324386 72.6312 0.530319 73.4357 0.783776 74.2003C0.894663 74.5826 1.00555 74.9649 1.11644 75.3393C1.23525 75.7136 1.35405 76.08 1.46494 76.4384C0.744173 76.5181 1.09268 74.8056 0.38775 74.9729C0.609524 75.6818 0.981789 76.1995 1.24317 76.7252C1.50454 77.2508 1.72632 77.7765 1.82928 78.4854C1.82928 78.8677 1.48078 78.3579 1.33029 78.2624C1.93225 79.5766 2.0273 81.0262 2.86687 82.1253C2.80351 82.1492 2.67678 82.0457 2.57381 81.9421C2.69262 82.1731 2.7243 82.5395 3.00944 82.3881L2.82727 82.189C3.09657 81.6474 4.15 82.7306 4.38761 82.651C3.36586 82.651 4.69651 83.9015 3.36586 83.8139C3.48467 83.9493 3.73021 84.0608 3.90446 83.9254C3.97574 84.1723 3.90446 84.3077 3.55596 84.1962C4.1896 84.9289 4.31633 84.459 4.72819 85.1918C4.59354 85.2714 4.4589 85.1599 4.25296 85.1838C4.49058 85.2873 4.72819 85.3909 4.94205 85.5502C5.17174 85.7015 5.36976 85.9006 5.52025 86.2192C5.41728 86.2431 5.36976 86.3785 5.24303 86.2033C5.99548 87.1989 7.13603 87.3024 7.80927 88.4494C7.04098 88.6804 7.98353 88.9113 7.63502 89.3972L8.29243 89.7556L8.26866 89.3494C8.49836 89.5644 8.7835 89.6839 9.04488 89.8034C9.32209 89.9069 9.56763 90.0184 9.72604 90.2574L9.21121 90.1777L10.2092 90.7831L9.81317 90.2096C10.4864 90.3291 10.2092 89.5644 10.7478 90.1777C10.6686 90.1538 10.7874 90.2415 10.93 90.4008C11.0804 90.5441 11.2705 90.7432 11.3101 90.9742C11.6666 90.9742 12.023 90.9583 12.324 91.3167C12.324 91.5397 11.92 91.8424 11.92 91.9858C12.4111 91.7229 13.2665 92.5274 13.8209 92.2327C13.6546 92.2884 13.512 92.5672 13.5279 92.6468L13.9239 92.392C14.114 92.6389 14.1378 92.7026 13.9873 92.9097C14.7397 93.3079 14.0506 92.1212 14.8348 92.7982C14.7476 92.7982 14.7635 92.8698 14.5892 92.8619C15.0169 93.1327 15.4922 93.2681 15.9516 93.3796C16.4189 93.4752 16.8703 93.5708 17.2743 93.8097C17.3535 94.4708 16.4664 93.6902 16.601 94.2717C17.2585 94.4548 17.9792 94.4708 18.6762 94.5026C19.3732 94.5504 20.0544 94.5743 20.6643 94.7734L20.4425 94.6619C20.7831 93.8575 21.2821 95.2912 22.0028 94.9805C21.8365 95.0203 21.7177 95.4106 21.7811 95.323C22.6286 95.6018 23.5949 95.4106 24.9255 95.2752L24.7433 95.4743C25.2344 95.7372 26.0819 95.7053 26.6284 95.8407C26.8106 95.6336 27.1195 95.6894 26.9452 95.3628C27.7611 96.0398 28.5927 95.8726 29.3848 95.7133C30.1768 95.5142 30.9293 95.2991 31.6976 95.7929C31.5154 95.8009 31.2698 96 31.4124 95.9921L32.6955 95.7372C32.5767 95.3708 32.5134 95.5221 32.2361 95.2434C32.3866 95.0204 32.7431 94.8372 33.052 94.8212C32.4896 95.092 33.0836 95.4106 33.345 95.6097C33.2975 95.4982 33.3767 95.3708 33.345 95.2593C34.0499 95.8646 33.4084 94.5106 34.343 94.8849L34.3113 95.0841C34.644 94.9566 34.937 94.6858 35.3014 94.7097C35.4915 95.1239 34.9608 94.9327 34.9608 95.2832C35.4756 95.2274 35.9033 94.3832 36.4023 94.7655C36.1964 94.9088 35.8875 94.9407 35.6737 95.0761C36.2281 95.5221 36.2756 95.3867 36.6637 95.4266H36.6241C36.9251 95.4664 37.2261 95.5142 37.5271 95.546L37.2894 95.4425C37.7964 94.2557 38.5805 95.0761 39.3329 94.2318C38.5963 95.0442 39.2537 94.646 39.2616 95.1319C39.4993 95.2274 39.8636 95.323 39.7844 95.4743C40.1329 95.0283 40.521 95.6735 41.0042 95.0124C41.0596 95.1637 41.4398 94.9487 41.416 95.3469C41.9309 95.1319 41.2418 95.1 41.2576 94.9009C41.9784 94.2398 43.309 95.1717 44.3308 94.2079C45.2654 93.6743 45.3367 93.1407 46.1763 92.6389C46.5485 92.7982 46.0654 93.2522 46.0654 93.2522C46.6198 93.3398 46.9921 93.2044 47.4119 92.9017C47.3564 93.061 47.4831 93.1407 47.6732 93.2681C48.0455 93.1168 47.7683 92.6468 48.3306 92.7265C48.299 92.9176 48.2673 93.2123 48.1326 93.4353C48.5445 93.1725 48.9009 92.7583 49.3128 92.4716C49.5187 92.6867 49.1623 92.9495 49.0514 93.1725C49.5346 92.8937 50.3187 92.4955 50.3345 92.0256L49.9623 92.0017C50.1365 91.9141 50.1761 92.3123 50.0652 92.4397C49.7326 92.9097 49.3841 92.5114 49.3128 92.3681L49.6058 92.1689C48.996 91.4123 48.3544 92.7344 47.6732 92.8698L47.7604 92.153L47.2376 92.8778C47.0475 92.7504 46.8574 92.4238 47.1505 92.2327C46.596 92.0415 46.7941 92.5672 46.303 92.3282C46.2475 92.2884 46.2555 92.2486 46.2871 92.2088L45.8832 92.5194C45.9386 92.3601 45.6931 92.0893 45.9941 92.1052C45.0911 91.9539 44.7822 92.9097 44.3625 92.5035L44.4258 92.4477C43.3328 92.9336 44.4258 92.9495 43.6813 93.6982L42.8576 92.6468L42.8417 93.1486C42.7229 93.1486 42.4774 93.1725 42.4853 92.9734C42.1051 93.3876 42.6041 93.1645 42.4061 93.523C41.7487 93.1964 40.8537 94.0247 40.5923 93.2761C40.4497 93.6743 41.1943 93.4672 40.6161 93.8177C40.3072 93.0212 39.927 94.0725 39.3329 93.7778C39.4359 93.3238 39.9587 93.4752 39.3805 93.1805C39.1666 93.9531 38.3349 93.1725 37.9152 93.3637C37.9706 93.9371 36.9805 93.738 36.2519 93.9929C36.2756 93.8017 34.8103 93.8256 34.1054 93.6504L34.1212 93.5548C34.0262 94.1442 33.2975 94.0964 32.7827 94.2318C32.7827 93.8814 32.8777 93.738 33.147 93.5708L32.6559 93.5947C32.553 93.7858 32.4025 93.8894 32.0857 93.969L32.1965 93.5309C31.5471 93.5867 30.8976 94.0885 30.0501 93.8017C30.0026 94.2079 30.7313 94.9327 29.8283 95.2115C29.7966 94.9885 29.7649 94.6141 30.0026 94.5186C29.9234 94.5504 29.7253 94.7018 29.5749 94.6141L29.9313 94.2398C29.5432 94.0805 29.7253 94.5504 29.4164 94.5186C29.4244 94.2079 29.1947 94.2876 29.2422 94.0407C29.3214 94.0168 29.5115 94.1761 29.6303 94.0486C29.2818 93.9929 28.8699 93.7858 28.7432 93.5469C28.767 93.73 28.7353 93.969 28.4818 94.0009C27.8244 94.0009 28.268 93.6185 27.8957 93.4433C27.7294 93.6584 27.3254 93.4115 27.2937 93.8814C27.1037 93.8655 27.0799 93.6424 27.0165 93.515C26.668 93.6982 25.4483 93.4672 25.7888 93.9929L25.876 94.0327C25.876 94.0327 25.8364 94.0327 25.8205 94.0486C24.6641 94.4071 23.5553 93.5548 22.4464 93.5628L22.4702 93.4115C21.789 93.507 21.0286 93.2442 20.49 93.4831C20.2999 93.4433 20.1019 93.1088 20.2286 92.9415C19.7138 92.9575 19.6188 93.0929 18.993 92.6548C19.5475 92.5194 18.8901 92.376 19.5396 92.5911C18.9534 92.2884 18.8901 92.0176 18.1059 92.2406C18.4386 91.93 17.805 91.6034 17.4881 91.6194L17.8208 92.0335C17.4802 91.9778 17.2109 91.8504 16.9337 91.7229L17.2664 91.2769C16.7595 90.7831 16.1654 90.799 15.5714 90.799C14.9853 90.807 14.4546 90.7114 14.2645 90.0105C13.7972 90.1857 14.7635 90.5601 14.3041 90.807C13.7972 90.4565 13.5992 89.5326 13.4645 89.429C12.9497 88.76 12.4349 89.7078 11.825 89.0786C11.8012 89.2936 11.619 89.7875 10.9854 89.5326C10.526 89.1025 10.8666 88.4573 11.2468 88.5529C11.3656 88.6246 11.3893 88.7122 11.3497 88.76C11.5398 88.8158 11.7854 88.9034 11.722 88.5927L11.5557 88.7043C11.4369 88.3697 10.7874 87.9157 11.128 87.7803C10.6686 87.6609 10.7874 87.9078 10.9854 88.1865C10.5498 87.5414 10.1141 87.4139 9.66268 86.7847C9.67852 86.9361 9.61515 87.175 9.52011 87.0954C8.87854 86.1396 8.91815 86.9918 8.32411 86.4741C8.23698 85.9564 8.94191 86.1316 8.2449 85.7174C8.08649 85.2396 8.56172 85.3272 8.79934 85.359C8.07065 85.0723 8.22906 84.1962 8.05481 83.8776L8.38747 84.0687C8.18946 83.9572 8.09441 83.8138 7.99145 83.6784L7.80135 84.0528C7.73007 83.8537 7.63502 83.7023 7.76967 83.6147C7.45285 83.559 7.33404 84.1085 6.82713 83.9094C6.84297 83.559 6.20141 83.2404 6.58951 82.9138C6.89841 83.774 6.97762 82.5793 7.42117 83.1846C7.30236 83.0891 7.21524 82.9377 7.16771 82.7306C7.19939 82.6749 7.27068 82.7067 7.32612 82.7386C7.30236 81.8067 6.61328 82.6988 6.25685 81.8784C6.55783 81.8545 6.65288 81.4642 6.54199 81.3607C6.67664 81.6793 6.18557 81.7191 5.85291 81.4961C5.82122 80.8828 5.4252 80.9943 5.35391 80.6916C5.35391 80.8191 5.36184 80.9385 5.3856 81.058C5.06086 81.058 5.01333 80.7554 4.79948 80.3969C4.99749 80.2934 5.06085 80.6996 5.10838 80.5323C4.4985 80.2536 5.25887 79.3934 4.75196 78.8916C4.86284 78.5491 5.25095 78.7164 5.31431 78.4296C4.78364 77.8243 5.49648 77.5854 5.02125 76.9322C4.71235 77.2269 4.79948 77.2508 4.32425 76.8048C4.49058 77.1951 4.69651 77.5774 4.87868 77.9517L4.15 77.3066C4.23712 77.6809 4.5777 78.0314 4.56978 78.2624C4.17376 77.9677 4.27672 77.9756 4.01535 78.2385C4.45098 77.5933 3.41339 77.3066 3.69061 76.6216L4.60939 76.4464C4.85492 75.4986 3.82525 74.9809 3.92822 73.7782L3.81733 74.1684C3.42923 74.0649 3.67476 73.4596 3.47675 73.1012C3.78565 73.1012 3.8807 72.8622 4.06287 72.679C3.83317 72.7188 4.03119 71.8348 3.39755 71.771L3.77773 71.2294C3.91238 70.2975 2.87479 70.1781 2.96984 69.2541C3.31042 69.5329 3.5322 69.1267 3.77773 69.732C3.77773 69.4294 3.83317 69.1665 3.61932 69.1506C3.80941 68.9833 3.23914 68.2984 3.54804 68.0355C3.42131 67.9001 3.09657 67.8364 3.13617 67.4939C3.19953 67.4621 3.28666 67.5099 3.28666 67.5099C3.13617 67.5019 3.10449 66.9523 2.74806 67.2311C3.2629 66.793 3.3421 66.1479 3.37379 65.5027C3.40547 64.8576 3.50051 64.2283 3.97574 63.9018C3.96782 63.2248 4.08663 62.4283 4.19752 61.8389C4.27672 61.9026 4.34801 61.8787 4.29256 61.9823C4.7678 61.2495 3.54012 61.2495 4.13415 60.4132C4.75988 60.0946 4.24504 60.9787 4.52226 60.7398C5.55985 60.9229 4.69651 59.5928 5.5044 59.2025V59.3618C6.01132 59.0353 5.52817 58.1193 5.91627 57.4105C5.91627 57.4105 5.98756 57.4821 6.05884 57.4742C5.79746 56.7812 6.03508 55.7378 6.28061 54.9892C6.53407 55.3874 6.3123 55.3954 6.74793 55.4511C6.85089 55.1166 6.11428 55.252 6.32814 54.575C6.62912 54.4714 7.02514 54.121 7.43701 54.2723L7.16771 54.8538C7.80927 54.8219 7.53206 54.1051 7.79343 53.8661L7.98353 54.0254C8.41915 53.1493 7.84888 52.7829 8.49044 51.9227H8.26866C8.07857 51.0784 8.83102 51.6917 8.77558 50.951L9.38546 51.166C9.47258 50.7678 9.69436 49.7244 10.0191 49.0872C10.1458 49.6925 9.86069 50.4811 9.7894 51.0386C10.0191 50.7359 10.5181 49.9872 10.3914 49.6368C10.3438 49.7961 10.3518 50.043 10.1854 50.1067C10.13 49.7722 10.1458 49.4377 10.233 49.1191C10.3359 48.8085 10.5181 48.4978 10.7636 48.2031C11.1834 48.6492 11.5557 48.3146 11.9596 47.9005C12.3873 47.5022 12.8467 47.0243 13.3695 47.1518C13.9635 45.8774 15.3654 45.4393 16.4743 44.3959C15.4526 44.0296 16.7911 44.0773 16.11 43.3924C16.3555 43.1136 16.4822 43.0419 16.5456 43.0738L17.7654 42.8508C18.1376 42.9145 17.6228 43.2331 17.7812 43.3844C18.4386 42.9623 18.2802 43.5039 18.8505 43.4083C18.5574 43.1853 18.7792 42.8508 19.2148 42.6994H18.4386C19.0406 41.6401 19.6742 42.8109 20.292 41.7755C20.2524 41.9268 20.2049 42.0702 20.1732 42.2215C20.5455 41.7675 21.8999 41.0985 22.0028 40.1587C22.1454 40.2064 22.3909 40.3737 22.2167 40.5569C23.4206 39.9755 24.482 38.3666 25.6621 38.3427V38.5975C25.8681 38.4303 25.8839 38.0082 26.272 38.1037C26.2958 38.1993 26.272 38.3586 26.3908 38.3267C26.4779 38.1993 26.8423 37.6736 27.2066 37.6577L27.0482 38.0241C28.3789 37.7931 28.6878 36.6541 29.7016 36.1046C29.9313 36.7656 30.9926 36.6462 31.5154 36.5904L31.5312 36.694C33.0203 36.3276 33.8678 35.3877 35.2301 34.7983C35.7529 35.0612 36.4974 34.9656 37.3211 34.87C38.1369 34.7426 39.0082 34.5912 39.7527 34.7187C39.5151 34.6231 39.7131 34.1691 39.9587 34.0656C40.3072 34.1611 40.8299 33.4523 40.8537 34.0974H40.7349C41.0675 34.6709 41.7012 34.4797 42.2239 34.4558L42.2477 33.6116C42.6199 33.8903 43.016 33.9859 43.4358 33.9859C43.8476 33.9859 44.2753 33.962 44.6872 33.8983C45.503 33.7788 46.2792 33.6434 46.5961 34.2647C46.9366 34.0895 47.3406 34.1452 47.697 33.97L47.6178 34.416C48.5049 34.5992 48.9088 34.8222 50.0177 34.9258L49.7247 35.1966C50.3108 35.3399 50.8098 34.1054 51.3959 34.2727L51.3721 34.9736C51.8949 35.1567 52.3939 35.4037 52.8612 35.7063C53.3364 35.9851 53.8354 36.1922 54.469 36.1285C54.4136 36.2081 54.2948 36.3754 54.1205 36.3276C54.5958 36.5506 55.6492 37.6577 55.9423 36.7577C55.7997 37.0285 56.0452 37.1559 56.4016 37.2674C56.7501 37.3869 57.2175 37.4506 57.5501 37.5143L57.2254 37.8329C57.9541 37.6497 58.0808 37.4984 58.754 37.817C58.857 37.9683 58.659 38.1993 58.5481 37.9604C58.857 38.502 59.1501 37.9046 59.5619 38.5179L59.1818 38.5816C59.6253 38.9719 59.6807 38.8206 60.1481 38.7728C60.552 38.8763 60.9163 39.625 60.7104 39.9755C60.9322 39.848 61.3916 39.8321 61.5737 40.1507C61.5025 40.2941 61.344 40.2702 61.2648 40.2622C61.7718 41.1543 62.6668 40.9631 62.8331 41.7516C62.7381 41.8631 62.7143 41.9428 62.7143 42.0145C62.1836 41.441 61.7638 40.9631 61.8272 40.987C61.5421 41.2737 61.9143 41.7755 61.1777 41.8153C61.7242 41.9587 62.841 42.1021 63.0786 42.7233C63.0707 42.7711 63.0549 42.8189 63.0232 42.8747L62.9519 42.8587C63.0153 42.9941 63.1182 43.0658 63.2529 43.1136C63.3242 43.3048 63.3717 43.4322 63.4826 43.5835C63.2687 43.8543 63.8073 44.2446 63.9737 44.5154C64.3063 44.2207 64.5043 44.5951 64.5598 44.0614C64.5598 44.1251 64.4806 44.0455 64.338 43.8862C64.2984 43.8543 64.2588 43.8145 64.2192 43.8065C64.235 43.8065 64.2509 43.8065 64.2667 43.8065C64.1242 43.6552 63.942 43.4481 63.736 43.2171C64.0687 43.2649 64.4014 43.3446 64.4172 43.7747C64.742 43.7269 65.0825 43.695 65.2568 43.695C65.035 44.4358 65.2568 45.3039 65.0192 45.6225C65.7637 46.2836 66.4369 47.4066 67.4508 47.5102C67.6884 47.6934 67.4112 47.9164 67.3557 48.0677C67.1973 47.9721 67.1102 47.8049 66.9676 47.789C67.4349 48.1553 67.8943 49.1589 68.4488 48.9996C68.5596 49.7563 67.7914 48.912 68.3379 49.7244L68.1161 49.6925C68.1715 50.7439 68.8448 51.2457 69.4943 51.8271C70.1675 52.3926 70.7774 53.0457 70.6665 54.2564C70.6665 54.0891 70.6744 54.0095 70.7536 53.9458C71.2289 56.3671 73.0823 58.4538 73.0031 61.0185C73.0506 61.7194 73.4149 61.6796 73.8109 61.9982L73.3912 62.277L74.1198 62.8106C74.7773 63.6947 73.4466 64.8018 74.4842 65.8611L74.7614 65.6222C74.8089 66.0841 75.2762 67.0081 74.8961 67.0081C74.9594 67.0399 75.2525 67.0798 75.1257 67.2948L74.8802 67.3585L75.5297 68.378C75.5139 69.2701 74.5396 68.4417 74.7139 69.6842C74.8961 70.1303 75.6485 70.871 75.7832 70.6719C75.7673 70.4887 75.8624 70.1701 76.1079 70.1143L76.3059 70.5285C77.0425 70.5046 77.8583 70.7515 78.1831 69.5409L77.6049 68.8559L77.9138 68.5453L78.0563 69.1825C78.3177 68.7603 77.9851 68.5771 77.7395 68.3541C77.9138 68.2585 78.0247 68.1231 78.0643 67.9559L77.2247 67.3506C77.4861 67.1992 77.8583 67.5656 77.9059 67.032C77.5098 66.7532 77.3435 67.5019 77.0108 66.9682C77.2643 66.5381 77.5574 66.578 77.1772 66.2196C77.3514 66.116 77.4861 66.1797 77.6049 66.3311C77.296 66.0045 77.2801 65.3594 76.8524 65.2558C77.1613 64.7859 76.4326 64.0213 77.1217 63.8859C76.9316 63.8062 76.4168 63.3681 76.298 63.0336C77.2722 63.4398 76.0049 61.7433 76.8999 61.6637C76.0445 61.4088 76.0921 60.0866 75.4267 59.4096C75.498 59.4335 75.6406 59.4893 75.6247 59.5689C75.5376 59.099 75.7119 58.8919 75.7515 58.5494C75.1416 58.6848 74.7693 58.0317 74.2783 57.7848C74.6505 57.0361 75.0782 57.8724 75.5614 57.514C75.0941 57.7052 74.7535 56.7175 74.4287 57.052C74.6188 56.5025 74.4604 56.6299 74.8644 56.2317C74.1119 56.4308 74.5951 55.8892 74.0169 55.706C74.1436 54.9653 74.6426 55.2839 74.1594 54.7024C74.2466 54.2962 74.7456 54.79 74.7456 54.79L74.6901 54.8219ZM64.9637 40.7719C65.0667 40.8755 65.1538 40.9711 65.2093 41.0268C65.1538 40.979 65.0825 40.9073 64.9558 40.7799L64.9637 40.7719ZM63.9895 39.7206C64.1004 39.856 64.243 40.0153 64.4093 40.1826C64.3301 40.3259 64.1796 40.3896 64.0845 40.2861C64.2113 40.2702 64.045 39.9675 63.9974 39.7206H63.9895ZM63.5776 43.9419C63.3955 43.8225 63.4192 43.711 63.4667 43.6313C63.538 43.703 63.6252 43.7826 63.744 43.8782C63.7598 43.8782 63.7836 43.8703 63.7994 43.8623C63.7202 43.9021 63.641 43.934 63.5697 43.9419H63.5776Z" fill="#F9CF01"/>
<path d="M64.2666 43.8782C64.2666 43.8782 64.3141 43.9021 64.3458 43.926C64.3458 43.8703 64.3458 43.8145 64.3458 43.7588C64.2904 43.7667 64.2428 43.7747 64.1953 43.7827C64.2191 43.8145 64.2428 43.8464 64.2666 43.8703V43.8782Z" fill="#F9CF01"/>
<path d="M25.7895 94.0088L25.7578 93.9929C25.7578 93.9929 25.7974 94.0327 25.8133 94.0566C25.7974 94.0327 25.7974 94.0168 25.7895 94.0009V94.0088Z" fill="#F9CF01"/>
<path d="M46.5958 30.2106L46.5879 30.3221L46.7225 30.2425L46.5958 30.2106Z" fill="#F9CF01"/>
<path d="M33.3848 95.6177C33.3848 95.6177 33.4323 95.6974 33.4957 95.7292C33.4957 95.6974 33.4402 95.6655 33.3848 95.6177Z" fill="#F9CF01"/>
<path d="M36.7109 95.4425L37.1941 95.554C36.9802 95.4823 36.8297 95.4584 36.7109 95.4425Z" fill="#F9CF01"/>
<path d="M39.2852 95.339C39.3089 95.2593 39.3089 95.1956 39.3089 95.1398L39.2931 95.339H39.2852Z" fill="#F9CF01"/>
<path d="M2.60582 81.958C2.60582 81.958 2.57414 81.8943 2.55038 81.8624C2.39197 81.6554 2.47909 81.8067 2.60582 81.958Z" fill="#F9CF01"/>
<path d="M11.3421 90.9822C11.1837 90.9822 11.0332 90.9822 10.8906 90.9503C11.057 91.0937 11.1995 91.1972 11.3421 90.9822Z" fill="#F9CF01"/>
<path d="M10.416 90.6078C10.5427 90.8149 10.7012 90.9105 10.8912 90.9424C10.7487 90.8309 10.6061 90.6556 10.416 90.6078Z" fill="#F9CF01"/>
<path d="M50.2148 92.9973L50.3416 92.9734C50.3416 92.9734 50.3257 92.9177 50.3336 92.9017L50.2148 92.9973Z" fill="#F9CF01"/>
<path d="M50.334 92.8937L50.4528 92.7982C50.3894 92.8221 50.3419 92.8459 50.334 92.8937Z" fill="#F9CF01"/>
<path d="M50.6907 92.5911L50.4531 92.7982C50.5482 92.7663 50.6749 92.7344 50.6907 92.5911Z" fill="#F9CF01"/>
<path d="M46.8652 93.7938V93.961C46.8652 93.961 46.8811 93.8654 46.8652 93.7938Z" fill="#F9CF01"/>
<path d="M45.875 94.0964C46.1205 94.0725 46.5641 94.2716 46.873 94.0964V93.961C46.77 94.2318 46.0334 93.7858 45.875 94.1044V94.0964Z" fill="#F9CF01"/>
<path d="M41.2969 93.0212L42.1523 92.9973C41.978 92.8539 41.7404 92.6628 42.1127 92.5513C40.9801 92.2327 42.3978 92.8938 41.3048 93.0212H41.2969Z" fill="#F9CF01"/>
<path d="M38.6832 93.1884C39.1188 93.053 38.6436 92.9415 38.6515 92.838C38.3902 93.0291 38.3268 93.0769 38.6832 93.1884Z" fill="#F9CF01"/>
<path d="M20.0869 92.7583L20.2215 92.3681C19.873 92.3521 20.1819 92.5194 20.0869 92.7583Z" fill="#F9CF01"/>
<path d="M15.9824 93.7221L16.2359 94.0726L16.521 93.7779L15.9824 93.7221Z" fill="#F9CF01"/>
<path d="M15.1206 90.2255C15.1682 90.2255 15.2236 90.2255 15.279 90.2255C15.089 90.2016 14.9147 90.1538 14.7246 90.114L15.1206 90.2176V90.2255Z" fill="#F9CF01"/>
<path d="M4.28426 64.6982L3.77734 64.7142C3.82487 64.9531 4.37138 65.0885 4.28426 64.6982Z" fill="#F9CF01"/>
<path d="M8.60938 52.1855C8.90243 52.2015 9.24302 51.9784 9.16381 51.6439C8.97372 51.8749 8.64106 52.0183 8.60938 52.1855Z" fill="#F9CF01"/>
<path d="M42.8726 34.193L42.6191 34.3841L43.1023 34.201L42.8726 34.193Z" fill="#F9CF01"/>
<path d="M5.9242 33.277C5.75787 33.293 5.55986 33.5319 5.76579 33.6992L6.28063 33.508L5.9242 33.285V33.277Z" fill="#F9CF01"/>
<path d="M6.24121 35.2523C6.62139 35.324 7.19167 35.324 7.44513 34.87C6.86693 34.9497 6.98574 34.7585 6.32041 34.8859C6.11448 34.7266 6.17784 34.424 6.3521 34.3364C6.19369 34.3523 6.19369 33.9461 5.8531 34.0496C5.75014 34.5753 5.99567 34.9098 6.52635 35.0452C6.49466 35.1966 6.32833 35.2045 6.24121 35.2523Z" fill="#F9CF01"/>
<path d="M18.5341 56.837L18.5183 56.6617C18.5024 56.7175 18.5183 56.7733 18.5341 56.837Z" fill="#F9CF01"/>
<path d="M24.307 71.094C24.2515 70.9905 24.1881 70.9586 24.1406 70.9745C24.2119 71.0621 24.2674 71.1338 24.307 71.094Z" fill="#F9CF01"/>
<path d="M24.6715 73.7543C24.6715 73.6985 24.6556 73.6507 24.6556 73.595C24.6319 73.6667 24.6239 73.7304 24.6715 73.7543Z" fill="#F9CF01"/>
<path d="M18.5332 56.837L18.5649 57.283C18.7312 57.2352 18.5886 57.0361 18.5332 56.837Z" fill="#F9CF01"/>
<path d="M9.37043 37.2116C9.29914 37.1559 9.21994 37.124 9.13281 37.1081C9.19618 37.1559 9.2437 37.1957 9.29914 37.2515C9.3229 37.2355 9.34667 37.2276 9.37043 37.2116Z" fill="#F9CF01"/>
<path d="M15.0802 51.0067L15.0247 50.8952C14.9534 50.8952 14.8742 50.8952 14.7871 50.9032L15.0802 50.9988V51.0067Z" fill="#F9CF01"/>
<path d="M12.4435 46.5464C12.491 46.6579 12.887 46.4588 13.0771 46.3951C12.887 46.4349 12.7682 46.3951 12.6811 46.3314C12.6098 46.3712 12.5306 46.4429 12.4355 46.5384L12.4435 46.5464Z" fill="#F9CF01"/>
<path d="M8.58582 39.2506L8.45117 39.163C8.45117 39.163 8.5383 39.2267 8.58582 39.2506Z" fill="#F9CF01"/>
<path d="M16.7204 54.3361C16.6649 54.3759 16.6253 54.4157 16.6016 54.4476C16.6491 54.4237 16.6887 54.3838 16.7204 54.3361Z" fill="#F9CF01"/>
<path d="M107.322 2.54078C107.322 2.54078 107.354 2.58061 107.362 2.61247C107.362 2.55671 107.362 2.52485 107.322 2.54078Z" fill="#F9CF01"/>
<path d="M113.683 1.40179L113.619 1.46551C113.651 1.54516 113.683 1.62481 113.722 1.69649L113.683 1.40976V1.40179Z" fill="#F9CF01"/>
<path d="M25.6772 78.4615C25.6772 78.4615 25.6772 78.4455 25.6772 78.4376C25.59 78.334 25.6217 78.3977 25.6772 78.4615Z" fill="#F9CF01"/>
<path d="M52.0776 54.1608C51.4519 54.2803 52.2202 53.213 51.3965 53.4918C51.5707 53.5555 51.4757 54.4555 52.0776 54.1608Z" fill="#F9CF01"/>
<path d="M9.40039 37.363C9.44791 37.4187 9.48752 37.4745 9.52712 37.5382C9.4796 37.4506 9.43999 37.3948 9.40039 37.363Z" fill="#F9CF01"/>
<path d="M51.3956 53.4918L51.3164 53.5236C51.3481 53.5077 51.3719 53.5077 51.4035 53.4918H51.3956Z" fill="#F9CF01"/>
<path d="M32.8543 82.197C32.7909 82.1492 32.7196 82.1492 32.6562 82.1571C32.6879 82.2049 32.7355 82.2288 32.8543 82.197Z" fill="#F9CF01"/>
<path d="M27.7285 82.0297L27.776 82.4041C27.7681 82.2288 27.7444 82.1173 27.7285 82.0297Z" fill="#F9CF01"/>
<path d="M35 77.0756C35.0871 76.996 35.1584 76.996 35.1822 76.8367C35.1584 76.8367 35.1347 76.8367 35.1109 76.8446C35.1347 76.9243 35.1267 77.0039 35 77.0756Z" fill="#F9CF01"/>
<path d="M37.2973 73.2764C37.2577 73.2764 37.2181 73.2923 37.1785 73.3003C37.1626 73.3401 37.1389 73.3879 37.123 73.4357L37.2973 73.2843V73.2764Z" fill="#F9CF01"/>
<path d="M95.9492 10.1711C96.0997 10.2189 96.2264 10.2985 96.3452 10.3862C96.1076 10.1631 96.5908 9.69321 95.9492 10.1711Z" fill="#F9CF01"/>
<path d="M9.16406 37.363C9.26703 37.3152 9.33831 37.3152 9.39376 37.363C9.36208 37.3231 9.32247 37.2913 9.29079 37.2515C9.22743 37.2833 9.1799 37.3152 9.16406 37.363Z" fill="#F9CF01"/>
<path d="M32.0625 75.1242L32.4823 74.5348C32.3397 74.6861 32.1892 74.9012 32.0625 75.1242Z" fill="#F9CF01"/>
<path d="M70.5723 30.1229L70.6594 29.9716C70.6039 30.0035 70.5723 30.0513 70.5723 30.1229Z" fill="#F9CF01"/>
<path d="M33.5353 72.6631C33.7412 72.6392 33.8917 72.5675 34.0105 72.4799C33.9947 72.4321 33.9947 72.3923 33.955 72.3445L33.5273 72.6551L33.5353 72.6631Z" fill="#F9CF01"/>
<path d="M99.6706 6.87365C99.0924 7.24003 99.7181 7.53473 99.7815 7.89315C99.1954 8.48254 99.2271 7.74182 98.831 7.63827C98.4904 8.05244 98.4667 8.71352 98.1419 8.90468C98.0627 8.84096 97.9835 8.84893 97.9915 8.70556C97.8093 9.3985 96.6846 9.62151 96.5024 10.4578C96.4311 10.4419 96.3915 10.41 96.3519 10.3861C96.5974 10.5693 96.7796 10.8083 96.8826 10.9994C96.637 11.1826 96.6212 11.6207 96.3123 11.3738C96.4707 11.2782 96.3994 11.1428 96.3994 10.9915L96.2331 11.3101C95.6866 11.0154 96.4865 10.9039 96.2569 10.5693C95.845 11.0711 95.5123 11.8676 95.0292 12.011C94.6411 11.6207 95.8371 11.2224 95.045 11.1906L95.7658 10.9357C94.8232 10.5534 96.1697 10.7286 95.2272 10.2746C94.3401 10.7047 94.4906 11.1269 93.6035 11.557C93.5956 11.9313 93.9124 11.8835 93.9124 12.2499C93.0966 13.4765 92.2491 11.7641 91.8372 12.9428C91.8372 13.3889 92.1461 14.0022 91.3541 14.1296L91.1956 13.4924C90.3957 13.9942 91.2669 14.5199 90.2293 14.7588C90.2293 14.4641 90.7125 14.1615 90.5541 14.1854C89.7541 14.1694 90.3878 14.727 89.9917 15.0217L89.5957 14.6473C88.8353 15.3164 88.1859 16.2881 87.3542 17.0288C87.3067 16.8615 87.3542 16.6146 87.0532 16.6385C86.0948 17.6978 84.6375 18.3987 83.3623 18.9722L83.2434 19.6652C83.1484 19.7368 82.9425 19.6333 82.99 19.482C82.4672 19.6652 83.1484 19.7368 83.0613 20.0315C82.8474 20.2466 82.586 20.0634 82.6494 19.8404C82.1663 20.7324 81.097 22.1422 80.0277 22.3732L80.0911 22.1422C79.3782 22.4767 80.0198 23.4325 79.204 23.544L79.2594 23.3927C77.8417 24.2768 76.709 25.7742 75.2992 26.0529C75.5447 26.722 73.8576 26.8813 74.3804 27.6698C73.3586 27.9247 73.4616 27.63 72.2498 28.2672C71.9567 28.4663 72.2339 29.0636 71.9646 29.4221L71.632 29.0636L71.5211 29.8442L70.8954 29.6132L70.6657 29.9796C70.8082 29.892 71.0696 29.9159 71.1488 30.0354C70.8082 30.6248 69.7469 30.8159 69.5647 30.6486L68.7172 31.9867C68.6143 31.8195 68.7568 31.5965 68.8202 31.3655C68.5509 32.2894 68.3687 31.0787 68.1232 31.923C68.2737 31.9389 68.2816 32.1779 68.3291 32.2575C67.8539 32.2894 67.2282 32.8629 66.848 33.3726L66.7054 33.0461C65.8025 33.747 65.0738 34.8063 64.1471 35.6744C64.5827 35.4753 64.9075 35.9691 64.6778 36.2718L64.2104 36.001C64.258 36.3993 64.6302 35.8736 64.5352 36.5028C64.155 36.7895 63.9015 36.2957 63.9807 35.9851L63.6877 36.5108C63.553 36.4231 63.6006 36.2718 63.4897 36.1045C63.5451 36.5028 62.4046 36.4152 62.5471 37.0603L62.4204 36.9727C61.5095 37.8648 61.2244 38.4064 60.5116 39.1551C60.8125 39.4896 60.4561 39.7046 60.4878 40.1746C59.8462 40.6047 59.0067 40.9631 58.3968 41.656C58.1116 42.2773 58.5394 42.0543 58.5235 42.4525C58.1988 42.2056 57.5889 42.8906 57.7156 42.341C57.0028 43.1853 56.7968 43.4083 56.0761 44.6428C56.2979 44.6428 56.4721 44.5791 56.5117 44.7305C56.385 44.9614 55.9969 45.0331 55.8781 44.8738L55.8939 44.7942C55.2919 46.3553 52.5831 46.65 52.3693 48.1474L52.3851 48.0677L51.8703 49.3341C51.4267 49.7324 51.8703 48.8642 51.403 49.0235C50.999 50.5288 49.8822 50.6244 49.4704 51.7873C47.9734 51.6758 47.5219 54.2723 46.1675 54.7104L46.4289 54.8378C46.4447 55.252 46.0645 55.029 45.8665 55.1644C46.0566 55.2759 46.2784 55.0608 46.2705 55.3077C45.5497 56.4148 44.6705 57.4503 43.6884 58.414C42.7062 59.3778 41.6687 60.3176 40.7816 61.3451C40.14 62.1017 41.6291 62.6672 40.3538 63.2726L40.14 62.6752C39.4509 64.6345 37.7718 66.0045 37.1144 67.916C37.0827 67.7488 36.948 67.6612 37.0589 67.5019C36.5124 67.6293 36.1877 68.7524 36.4411 68.9276C36.2431 69.1586 36.1639 68.832 35.9342 68.8957C35.5223 69.1267 35.7837 70.0427 35.3481 70.0188C35.2768 70.0188 35.3085 69.8515 35.3243 69.7719C35.3322 70.0984 34.6115 70.8152 35.1184 70.8312C34.5481 71.3409 34.5402 72.1215 34.0016 72.4799C34.2154 73.0613 33.1303 73.4197 33.661 73.8817C33.0749 73.4596 32.5205 74.6941 32.5759 75.2676C32.465 75.0207 32.1799 75.4986 32.0135 75.1879C31.7522 75.6499 31.6254 76.1357 31.9898 76.2473C31.372 76.4543 31.2769 76.9641 31.1819 77.4101C31.1581 77.5216 31.1344 77.6331 31.1027 77.7287C31.071 77.8243 31.0235 77.9358 31.0156 77.9199C30.976 77.9438 30.8571 77.9199 30.6433 77.7526C30.8017 78.2624 30.5799 79.2341 30.2552 80.1978C30.2869 79.3854 30.3423 79.242 30.3978 79.0907C30.4532 78.9394 30.5007 78.788 30.4136 78.1668C30.3978 78.4455 30.3582 78.8836 30.2869 79.3376C30.2473 79.5686 30.2077 79.7996 30.1522 80.0146C30.1285 80.1102 30.0968 80.2137 30.073 80.3173C30.0493 80.3969 30.0097 80.5403 30.0017 80.4606C29.978 80.4128 29.9463 80.2934 29.9304 80.1102C29.9304 79.7518 30.0572 79.481 30.1047 79.1942C30.0096 79.3615 29.9463 79.0827 29.8908 78.8916C29.8354 78.6765 29.78 78.5411 29.574 78.5172C29.6215 78.4535 29.6928 78.4216 29.7404 78.3978C29.7008 78.342 29.7641 78.127 29.5265 78.4376C29.5582 78.4376 29.5899 78.4376 29.6215 78.4376C29.4711 78.7482 29.273 78.9314 29.0513 78.9394C28.8295 78.9633 28.5919 78.8279 28.481 78.8836C28.9166 78.7243 28.9008 78.4694 28.9245 78.2703C28.9483 78.0473 29.0354 77.9438 29.6136 77.8004C29.5423 77.7924 29.376 77.7765 29.178 77.8561C29.1859 77.6809 29.273 77.5296 29.5819 77.6889C29.1542 76.9482 28.9166 77.3384 28.6869 76.6136C28.8374 76.5658 28.9404 76.6933 29.1384 76.7092C28.7265 76.4384 28.3226 76.1756 28.2355 75.5225C28.3384 75.5225 28.4335 75.4189 28.4889 75.6021C28.077 74.5746 27.1107 74.0968 26.984 72.8622C27.7523 72.9658 27.0553 72.4002 27.586 72.1374L27.1979 71.5878L27.0157 71.9303C26.8256 71.3887 26.2553 71.0701 26.2632 70.5444L26.6355 70.8551L26.1603 69.8913V70.5365C25.6771 70.1064 25.4791 70.863 25.3761 70.0904C25.487 70.2099 25.1781 69.5568 25.3999 69.1586C25.1227 68.9674 24.8296 68.7683 24.8138 68.3302C24.9484 68.163 25.4554 68.1709 25.5425 68.0594C24.9801 67.9798 24.9326 66.8727 24.3148 66.7373C24.4732 66.801 24.7583 66.6895 24.8059 66.6257L24.3465 66.562C24.3702 66.2673 24.4098 66.2116 24.6554 66.1558C24.4257 65.3992 24.0613 66.6735 23.998 65.6859C24.0534 65.7417 24.1009 65.6859 24.2118 65.8054C24.0059 64.8735 23.2772 64.2204 23.1267 63.3442C23.5782 62.8743 23.5544 63.9894 23.9029 63.5195C23.3327 62.3964 22.2317 61.4247 21.8594 60.2619L21.8911 60.4928C21.0595 60.684 21.899 59.4972 21.2892 59.107C21.408 59.2185 21.7961 59.091 21.6931 59.091C21.4872 58.2707 20.7981 57.6335 20.014 56.6219L20.2753 56.6697C20.2357 56.144 19.8159 55.4591 19.6734 54.9414C19.412 54.8936 19.309 54.6068 19.111 54.9175C19.507 52.8864 17.1071 52.4723 17.3527 50.712C17.4319 50.8634 17.7091 50.9908 17.6457 50.8634L16.9012 49.8678C16.624 50.1306 16.7824 50.1147 16.6477 50.4811C16.3784 50.4492 16.0854 50.2182 15.927 49.9554C16.4101 50.3138 16.4418 49.6686 16.4972 49.358C16.418 49.4456 16.2676 49.4377 16.1804 49.5093C16.4339 48.6332 15.4834 49.7801 15.4359 48.8005L15.626 48.7447C15.3805 48.5058 15.0082 48.3783 14.8815 48.0438C15.1745 47.7013 15.222 48.2429 15.5389 48.0916C15.2696 47.6695 14.3587 47.6456 14.5013 47.0482C14.7072 47.1677 14.8577 47.4305 15.0636 47.558C15.2537 46.881 15.1112 46.8969 15.0003 46.5385V46.5783L14.7864 45.734V45.9889C13.535 46.0128 13.9548 45.0092 12.8934 44.6747C13.9072 45.0013 13.3053 44.5791 13.7409 44.38C13.7409 44.1251 13.6934 43.7747 13.8597 43.7826C13.3211 43.6552 13.7647 43.0578 12.9885 42.8826C13.1073 42.7791 12.7746 42.5162 13.1469 42.3808C12.7667 42.0065 12.9885 42.6277 12.7984 42.6994C11.935 42.3171 12.3469 40.748 11.0717 40.2224C10.2638 39.5852 9.73313 39.7365 8.99652 39.1391C9.02028 38.7409 9.59848 39.0197 9.59848 39.0197C9.49551 38.4781 9.24998 38.1993 8.83811 37.9205C9.00444 37.9205 9.03612 37.7692 9.09156 37.5462C8.83811 37.2594 8.50545 37.6736 8.37872 37.1479C8.56881 37.1081 8.86187 37.0285 9.10741 37.0763C8.7193 36.8055 8.22031 36.6382 7.82428 36.3594C7.95893 36.0966 8.32328 36.3276 8.56089 36.3515C8.1411 36.0169 7.53914 35.4435 7.10352 35.5868L7.19064 35.9373C7.05599 35.8019 7.42034 35.6346 7.56291 35.6983C8.1015 35.8417 7.84012 36.2957 7.72924 36.4072L7.45202 36.2081C6.93718 37.0285 8.38664 37.14 8.72722 37.7134L8.03814 37.8807L8.86187 38.1037C8.80643 38.3267 8.56089 38.6214 8.29951 38.4143C8.29951 38.9878 8.72722 38.6135 8.66386 39.1551C8.6401 39.2268 8.60841 39.2268 8.56089 39.2108L8.98068 39.4657C8.81435 39.4657 8.64802 39.8002 8.56089 39.5135C8.7193 40.4056 9.71729 40.31 9.48759 40.8436L9.41631 40.8118C10.248 41.6162 9.8757 40.6206 10.8341 41.0029L10.1688 42.1419L10.6361 41.9667C10.6836 42.0782 10.7786 42.2932 10.5965 42.3649C11.1034 42.5481 10.7311 42.1817 11.1271 42.2295C11.0559 42.9463 12.133 43.4402 11.5469 43.9658C11.9667 43.9419 11.4994 43.3525 12.038 43.7269C11.4281 44.3163 12.5291 44.2446 12.4815 44.8818C12.0301 44.9774 11.9667 44.4437 11.9192 45.0809C12.6954 44.9614 12.3152 46.0128 12.6637 46.2995C13.1786 46.0128 13.337 46.9925 13.8676 47.5261C13.6775 47.5819 14.2716 48.8722 14.43 49.5651L14.3349 49.597C14.9052 49.4217 15.1587 50.0828 15.5151 50.4651C15.1983 50.6165 15.0399 50.6005 14.7627 50.4412C14.8419 50.5766 14.9211 50.712 15.0003 50.8554C15.2141 50.8634 15.3725 50.951 15.5705 51.1899L15.1349 51.2935C15.4517 51.843 16.1804 52.1855 16.2992 53.0457C16.6794 52.9024 16.9962 51.9386 17.6378 52.5838C17.4556 52.7112 17.1388 52.9183 16.9566 52.759C17.02 52.8147 17.2418 52.9103 17.2259 53.0856L16.7349 52.9501C16.7665 53.3564 17.0992 52.982 17.2101 53.2608C16.9329 53.4041 17.115 53.5634 16.8774 53.6351C16.8141 53.5794 16.8774 53.3484 16.7111 53.3006C16.8141 53.6272 16.8378 54.0732 16.6953 54.2962C16.8378 54.1927 17.0675 54.105 17.218 54.2962C17.5348 54.8537 16.9883 54.6626 17.0121 55.0608C17.2735 55.1006 17.2497 55.5706 17.6695 55.3635C17.7487 55.5308 17.5665 55.6582 17.4873 55.7856C17.8121 55.9927 18.2081 57.1396 18.4932 56.5901V56.5025C18.4932 56.5025 18.5091 56.5264 18.5249 56.5423C19.4041 57.3149 19.2853 58.6689 19.8872 59.5689L19.7447 59.6326C20.1724 60.1424 20.4258 60.8911 20.9169 61.1698C20.9961 61.3451 20.8377 61.6955 20.6397 61.6955C20.9486 62.0938 21.1308 62.0699 21.1862 62.8186C20.7347 62.4761 21.0357 63.0734 20.7981 62.4363C20.9407 63.0655 20.7585 63.3044 21.4159 63.7584C20.9565 63.7027 21.1387 64.3956 21.3604 64.6266L21.4555 64.1009C21.6377 64.3876 21.7248 64.6823 21.804 64.9691L21.2575 65.0248C21.1624 66.4665 23.1742 66.7611 22.5327 68.0913C23 68.2745 22.5168 67.3346 23.0317 67.4621C23.1822 68.0435 22.7069 68.9037 22.7703 69.0789C22.7941 69.9471 23.7683 69.509 23.895 70.3772C24.0297 70.2099 24.4653 69.9312 24.8534 70.4648C24.996 71.0542 24.3702 71.4365 24.1009 71.1338C24.0376 71.0064 24.0693 70.9188 24.1326 70.9029C24.0059 70.7436 23.8396 70.5365 23.7287 70.8312H23.9346C23.8554 71.1816 24.1564 71.9462 23.8079 71.8746C24.1326 72.233 24.1643 71.9463 24.1405 71.5958C24.1485 72.4082 24.5445 72.7188 24.6475 73.5233C24.7029 73.3719 24.8692 73.1888 24.9088 73.3003C25.091 74.4631 25.4158 73.6587 25.7563 74.3755C25.6296 74.8932 25.0593 74.4552 25.5425 75.1162C25.5187 75.634 25.1069 75.3791 24.9009 75.2517C25.4791 75.8092 25.1148 76.5977 25.1861 77.0039L24.9168 76.6933C25.0752 76.8765 25.1385 77.0517 25.194 77.2269L25.4791 76.9004C25.487 77.1313 25.5425 77.3066 25.392 77.3544C25.693 77.4898 25.9306 76.988 26.39 77.3145C26.3028 77.657 26.8652 78.111 26.4217 78.3659C26.2949 77.426 25.9781 78.6208 25.6534 77.896C25.7563 78.0234 25.8118 78.1986 25.8197 78.4296C25.7801 78.4774 25.7088 78.4296 25.6692 78.3818C25.6296 78.6287 25.6534 78.7641 25.7167 78.8438C25.7405 78.8677 25.7959 78.9314 25.8514 78.9792C25.9068 79.027 25.9623 79.0509 26.0256 79.0827C26.2712 79.2022 26.5563 79.2659 26.7781 79.9907C26.4771 79.9589 26.4375 80.6996 26.5642 80.9385C26.3662 80.2536 26.8731 80.3332 27.1979 80.6598C27.3008 81.7828 27.6097 81.4801 27.7285 81.9421L27.6493 81.3129C27.9028 81.1775 27.9978 81.6076 28.2196 82.0297C28.0929 82.3881 27.9662 81.7271 27.9662 82.0616C28.2196 82.0536 28.2355 82.5315 28.2671 83.1926C28.2909 83.8298 28.3463 84.6501 28.5602 84.8015C28.5998 85.6537 28.3226 85.9245 28.3859 86.6493C28.6315 86.8803 28.679 87.3661 28.7344 87.9635C28.7899 88.537 28.8533 89.2219 29.0433 89.5485C29.0671 89.4928 29.0909 89.429 29.1226 89.3574C29.1146 89.2219 29.0988 89.1104 29.0988 89.0069C29.0988 88.6007 29.0988 88.4494 29.1622 88.4095C29.2018 88.2662 29.3047 87.9078 29.4948 87.2626C29.3998 87.4777 29.2968 87.7803 29.2255 87.8679L28.7741 86.936C28.9641 86.936 29.1384 86.8803 29.2968 86.7529C29.1622 86.2272 28.9008 86.2112 28.8295 85.7095C29.1067 85.5502 29.0433 85.6696 29.1067 84.7059C29.083 85.9165 29.281 85.9245 29.4235 85.9803C29.479 85.9564 29.5582 85.6935 29.6215 85.5581C29.6928 85.4227 29.7483 85.359 29.8116 85.4068L29.6453 87.7166C29.97 87.5573 30.3186 86.6254 30.6433 85.7254C30.976 84.8015 31.2532 83.9094 31.7205 83.2882L31.4037 83.543C31.4037 82.7545 31.8868 82.5315 32.0769 81.8306C32.2036 82.2687 32.4254 82.0855 32.6551 82.0616C32.5046 81.8545 33.3521 80.7952 32.9719 80.1819C33.1937 80.0704 33.4155 79.935 33.6689 79.7677C33.9303 79.4013 33.962 79.2739 33.9778 79.0987C33.9937 78.9234 33.962 78.7562 33.9224 78.5889C33.8511 78.2464 33.7798 77.9039 34.0491 77.5455C34.2075 77.9517 34.6036 77.7128 34.5164 78.35C34.6669 78.0951 34.8491 77.888 34.6669 77.7765C34.9204 77.7287 34.7224 76.8446 35.1105 76.757C35.055 76.5738 34.7936 76.3747 34.9837 76.0959C35.055 76.0959 35.1184 76.1756 35.1184 76.1756C34.9837 76.0959 35.2055 75.6101 34.754 75.6897C36.0292 75.3871 36.0451 73.4516 37.1777 73.2127C37.4391 72.6073 37.7718 71.8825 38.0648 71.3728C38.1203 71.4524 38.1915 71.4604 38.1044 71.54C38.7856 71.0144 37.6133 70.6161 38.3975 70.0188C39.0866 69.9073 38.35 70.5763 38.6747 70.4409C39.6014 70.9029 39.1895 69.4373 40.037 69.2541L40.0053 69.4134C40.5598 69.2143 40.338 68.2267 40.837 67.6214C40.837 67.6214 40.8924 67.701 40.9637 67.7169C40.837 66.9762 41.2489 66.0284 41.5815 65.3354C41.7716 65.7576 41.5498 65.7337 41.9696 65.8611C42.1201 65.5505 41.3756 65.5585 41.6766 64.9452C41.9855 64.8974 42.429 64.6186 42.8171 64.8257L42.4607 65.3514C43.1102 65.4231 42.928 64.6744 43.2052 64.4673L43.3795 64.6505C43.8864 63.8221 43.3953 63.4319 44.0448 62.6115L43.831 62.5876C43.6725 61.7513 44.3933 62.4044 44.3616 61.6716L44.9636 61.9185C45.0745 61.5283 45.2962 60.5088 45.6131 59.8955C45.7398 60.4849 45.4467 61.2575 45.3675 61.807C45.5972 61.5123 46.1041 60.7796 45.9853 60.4371C45.9378 60.5964 45.9457 60.8353 45.7794 60.899C45.6685 60.238 45.8507 59.6087 46.318 59.0193C47.1972 59.8795 47.7358 57.6653 48.8288 57.8485C49.3199 56.5502 50.6347 55.9609 51.5455 54.7343C50.4842 54.5431 51.8069 54.3679 51.0149 53.8103C51.197 53.4997 51.3 53.4041 51.3713 53.4201L52.5198 52.982C52.8999 52.982 52.4564 53.3802 52.6465 53.4997C53.2168 52.9581 53.1692 53.5236 53.6999 53.3006C53.3673 53.1493 53.5019 52.767 53.8979 52.5201L53.1534 52.6953C53.4781 51.5324 54.3811 52.5201 54.7217 51.3572V51.8191C54.9514 51.2696 56.0919 50.266 55.9018 49.3341C56.0523 49.3341 56.3375 49.4217 56.2186 49.6447C57.2166 48.7368 57.6285 46.8571 58.7057 46.427L58.8087 46.6659C58.9354 46.4349 58.7928 46.0446 59.1809 45.9809C59.2443 46.0606 59.2839 46.2199 59.371 46.1402C59.4027 45.9889 59.5373 45.3676 59.8621 45.2243V45.6145C60.9868 44.8818 60.7888 43.703 61.4383 42.795C61.9293 43.2888 62.8244 42.7233 63.2679 42.4366L63.3233 42.5162C64.4718 41.5047 64.749 40.2622 65.5886 39.0754C66.7529 39.0197 67.9648 37.2435 69.2875 36.5824C69.042 36.6382 68.9469 36.1603 69.0816 35.9373C69.4221 35.8178 69.4301 34.9576 69.8261 35.4674L69.731 35.539C70.3409 35.8337 70.729 35.2523 71.133 34.9019L70.634 34.2169C72.4636 34.1771 73.0577 31.4372 74.3566 31.7558C74.4754 31.3734 74.7843 31.1026 74.9031 30.7203L75.1804 31.0708C75.9486 30.5371 76.3447 30.2823 77.1526 29.4619L77.1842 29.8601C77.6991 29.4619 76.9783 28.3389 77.4219 27.9247L77.9921 28.3229C78.8476 27.5742 80.1069 27.3034 80.5901 26.1246C80.6376 26.2122 80.7326 26.3875 80.6059 26.5229C81.0336 26.1963 82.491 25.5751 81.7623 24.9777C82.1425 25.4397 82.7049 24.2848 83.0296 23.6954L83.2276 24.1016C83.2831 23.3369 83.2038 23.2015 83.6712 22.6281C83.8375 22.5644 84.0038 22.8113 83.7583 22.867C84.3523 22.6918 83.8533 22.2617 84.5424 22.0148L84.5107 22.3971C84.9939 22.0626 84.8671 21.967 84.9147 21.505C85.0968 21.1307 85.8651 20.9077 86.182 21.1785C86.0948 20.9395 86.1582 20.4776 86.4988 20.3581C86.6255 20.4537 86.5859 20.605 86.5621 20.6767C87.5285 20.3183 87.4176 19.3784 88.2096 19.3147C88.3126 19.4262 88.3839 19.4581 88.4551 19.4581C87.8294 19.92 87.3146 20.2864 87.3384 20.2227C87.5839 20.5492 88.1304 20.2227 88.067 20.9794C88.2809 20.4298 88.566 19.3625 89.1759 19.1554C89.2234 19.1713 89.271 19.1873 89.3264 19.2191L89.3026 19.2908C89.4373 19.243 89.5165 19.1315 89.5719 19.0041C89.77 18.9404 89.8967 18.9085 90.0551 18.797C90.3165 19.028 90.7442 18.5103 91.0056 18.343C90.7204 18.0005 91.0927 17.8094 90.5699 17.7456C90.6254 17.7456 90.5541 17.8253 90.3957 17.9607C90.364 18.0005 90.3244 18.0403 90.3165 18.0802C90.3165 18.0642 90.3165 18.0483 90.3165 18.0324C90.1581 18.1598 89.9442 18.3271 89.7066 18.5182C89.77 18.1837 89.865 17.881 90.2927 17.8731C90.2531 17.5465 90.2214 17.204 90.2214 17.0288C90.9343 17.2757 91.7976 17.0527 92.1144 17.2996C92.7481 16.535 93.849 15.85 93.8569 14.8066C94.0154 14.5597 94.253 14.8225 94.4114 14.8703C94.3322 15.0296 94.1738 15.1332 94.1738 15.2765C94.4906 14.7748 95.449 14.273 95.2193 13.7154C95.9321 13.5402 95.2113 14.3845 95.9321 13.7632V13.9862C97.9756 13.6915 97.5717 11.0233 99.9557 10.8561C99.7973 10.872 99.7181 10.8879 99.6389 10.8242C101.88 9.95604 103.417 7.71792 105.833 7.20021C106.482 6.99312 106.34 6.63471 106.53 6.18071L106.902 6.51523L107.195 5.67893C107.821 4.81873 109.246 5.7984 109.904 4.5081L109.603 4.30898C110.015 4.12579 110.72 3.42488 110.839 3.7833C110.846 3.71162 110.791 3.41692 111.029 3.47267L111.163 3.67976L111.892 2.75584C112.716 2.493 112.272 3.68772 113.357 3.12222C113.706 2.81159 114.126 1.85581 113.904 1.79209C113.737 1.86378 113.421 1.87971 113.286 1.66466L113.587 1.34606C113.31 0.66109 113.238 -0.175216 112.058 -0.111498L111.638 0.64516L111.258 0.44604L111.781 0.119482C111.314 9.74536e-06 111.266 0.366392 111.147 0.669055C111.005 0.533653 110.846 0.469934 110.688 0.477899L110.419 1.44961C110.197 1.24252 110.411 0.788527 109.912 0.89207C109.785 1.34606 110.514 1.29031 110.142 1.76024C109.674 1.64873 109.619 1.35403 109.413 1.81599C109.27 1.68059 109.278 1.52926 109.381 1.37792C109.183 1.76024 108.597 1.95139 108.645 2.38946C108.122 2.2222 107.654 3.11426 107.322 2.493C107.306 2.69212 107.06 3.29745 106.791 3.49657C106.878 2.46114 105.706 4.10986 105.373 3.25762C105.373 4.13375 104.169 4.41252 103.718 5.19307C103.718 5.12139 103.734 4.97006 103.813 4.96209C103.401 5.14528 103.164 5.02581 102.847 5.05767C103.132 5.61521 102.617 6.11699 102.514 6.64267C101.73 6.43559 102.403 5.84619 101.944 5.44795C102.237 5.86212 101.413 6.39576 101.793 6.64267C101.239 6.55506 101.389 6.69046 100.93 6.37187C101.286 7.06481 100.669 6.69842 100.645 7.28782C99.932 7.30375 100.114 6.76214 99.6864 7.32765C99.2904 7.30375 99.6389 6.74621 99.6389 6.74621L99.6706 6.87365ZM87.4334 17.1483C87.5364 17.0607 87.6235 16.981 87.6789 16.9332C87.6314 16.981 87.5601 17.0447 87.4334 17.1562V17.1483ZM86.38 17.9607C86.5225 17.8731 86.681 17.7536 86.8473 17.6262C86.974 17.7217 87.0295 17.881 86.9186 17.9527C86.9186 17.8253 86.6097 17.9527 86.3721 17.9607H86.38ZM90.467 18.7651C90.3402 18.9404 90.2293 18.9085 90.1501 18.8527C90.2214 18.789 90.3085 18.7094 90.4115 18.5899C90.4115 18.574 90.4036 18.5501 90.3957 18.5342C90.4274 18.6138 90.459 18.6934 90.459 18.7651H90.467Z" fill="#F9CF01"/>
<path d="M90.4195 18.0642C90.4195 18.0642 90.4432 18.0164 90.467 17.9846C90.4116 17.9846 90.3561 17.9766 90.3086 17.9846C90.3165 18.0403 90.3244 18.0961 90.3324 18.1439C90.364 18.12 90.3878 18.0961 90.4195 18.0722V18.0642Z" fill="#F9CF01"/>
<path d="M18.5176 56.6379V56.6697C18.5176 56.6697 18.5334 56.614 18.5493 56.5901C18.5413 56.614 18.5255 56.6219 18.5176 56.6379Z" fill="#F9CF01"/>
<path d="M71.5449 28.976L71.6241 29.0557L71.6479 28.9044L71.5449 28.976Z" fill="#F9CF01"/>
<path d="M16.5137 49.4058C16.5137 49.4058 16.5612 49.3341 16.5612 49.2625C16.5374 49.2784 16.5216 49.3341 16.5137 49.4058Z" fill="#F9CF01"/>
<path d="M15.0168 46.5863L14.9297 46.1163C14.9455 46.3314 14.9851 46.4748 15.0168 46.5863Z" fill="#F9CF01"/>
<path d="M13.9401 44.3641C13.8609 44.38 13.8054 44.4039 13.75 44.4278L13.9401 44.3641Z" fill="#F9CF01"/>
<path d="M29.7402 78.4137C29.7402 78.4137 29.7561 78.4216 29.764 78.4137C29.8432 78.3738 29.8036 78.3738 29.7402 78.4137Z" fill="#F9CF01"/>
<path d="M25.3926 69.1904C25.5114 69.278 25.6302 69.3577 25.7252 69.4612C25.6856 69.2541 25.6302 69.1028 25.3926 69.1904Z" fill="#F9CF01"/>
<path d="M32.0216 75.188L32.0612 75.1163L32.0137 75.18L32.0216 75.188Z" fill="#F9CF01"/>
<path d="M25.9147 69.971C25.9305 69.7479 25.8434 69.5966 25.7246 69.4692C25.7563 69.6364 25.788 69.8356 25.9147 69.971Z" fill="#F9CF01"/>
<path d="M8.04654 35.4434L7.9911 35.3399C7.9911 35.3399 7.94358 35.3718 7.92773 35.3718L8.05446 35.4434H8.04654Z" fill="#F9CF01"/>
<path d="M7.92751 35.3718L7.80078 35.3001C7.84038 35.3479 7.87207 35.3877 7.92751 35.3718Z" fill="#F9CF01"/>
<path d="M7.53906 35.1488L7.80044 35.3001C7.745 35.2204 7.68163 35.1249 7.53906 35.1488Z" fill="#F9CF01"/>
<path d="M9.8457 38.1833L9.99619 38.1196C9.99619 38.1196 9.90907 38.1435 9.8457 38.1833Z" fill="#F9CF01"/>
<path d="M10.4476 38.9719C10.3446 38.7568 10.3842 38.2869 10.1149 38.0718L9.99609 38.1196C10.2812 38.1037 10.0991 38.948 10.4476 38.9719Z" fill="#F9CF01"/>
<path d="M11.0801 43.4879L10.7554 42.7233C10.6841 42.9384 10.597 43.2251 10.3594 42.9304C10.4782 44.0773 10.5653 42.5401 11.0801 43.48V43.4879Z" fill="#F9CF01"/>
<path d="M12.2132 45.7579C11.9122 45.4314 11.9993 45.8933 11.9043 45.9252C12.1815 46.0765 12.2528 46.1163 12.2132 45.7579Z" fill="#F9CF01"/>
<path d="M20.5932 61.9743L20.2051 62.1017C20.3952 62.3885 20.3476 62.038 20.5932 61.9743Z" fill="#F9CF01"/>
<path d="M23.9045 64.3717L24.0075 63.9655H23.6035L23.9045 64.3717Z" fill="#F9CF01"/>
<path d="M22.0268 67.3904L21.9238 67.2789L22.2644 67.7408L22.0268 67.3904Z" fill="#F9CF01"/>
<path d="M37.2111 74.1605L36.7359 73.9773C36.6884 74.2162 37.1399 74.5587 37.2111 74.1605Z" fill="#F9CF01"/>
<path d="M44.2207 62.946C44.5058 62.9779 44.8543 62.7787 44.791 62.4442C44.585 62.6672 44.2603 62.7867 44.2207 62.946Z" fill="#F9CF01"/>
<path d="M71.5695 34.3364L71.4824 34.639L71.7596 34.193L71.5695 34.3364Z" fill="#F9CF01"/>
</g>
<defs>
<clipPath id="clip0_38_11703">
<rect width="114" height="96" fill="white"/>
</clipPath>
</defs>
</svg>
