<svg width="70" height="70" viewBox="0 0 70 70" fill="none" xmlns="http://www.w3.org/2000/svg">
<circle cx="35" cy="35" r="35" fill="#F9CF01"/>
<path d="M29.7509 32.165C32.0513 32.165 33.9159 30.3003 33.9159 28C33.9159 25.6998 32.0513 23.835 29.7509 23.835C27.4507 23.835 25.5859 25.6998 25.5859 28C25.5859 30.3003 27.4507 32.165 29.7509 32.165Z" fill="#0A0A0A"/>
<path d="M50.6975 28H49.875V36.0675L49.6475 35.875C48.2825 34.7025 46.0775 34.7025 44.7125 35.875L37.4325 42.1225C36.0675 43.295 33.8625 43.295 32.4975 42.1225L31.9025 41.6325C30.66 40.5475 28.6825 40.4425 27.2825 41.3875L20.7375 45.78C20.3525 44.8 20.125 43.6625 20.125 42.3325V27.6675C20.125 22.7325 22.7325 20.125 27.6675 20.125H42V19.3025C42 18.6025 42.1225 18.0075 42.4025 17.5H27.6675C21.2975 17.5 17.5 21.2975 17.5 27.6675V42.3325C17.5 44.24 17.8325 45.9025 18.48 47.3025C19.985 50.6275 23.205 52.5 27.6675 52.5H42.3325C48.7025 52.5 52.5 48.7025 52.5 42.3325V27.5975C51.9925 27.8775 51.3975 28 50.6975 28Z" fill="#0A0A0A"/>
<path d="M50.6975 15.75H45.5525C44.03 15.75 42.91 16.38 42.4025 17.5C42.1225 18.0075 42 18.6025 42 19.3025V20.125V24.4475C42 26.67 43.33 28 45.5525 28H49.875H50.6975C51.3975 28 51.9925 27.8775 52.5 27.5975C53.62 27.09 54.25 25.97 54.25 24.4475V19.3025C54.25 17.08 52.92 15.75 50.6975 15.75ZM49.525 24.8675C48.965 25.2 48.4225 25.375 48.125 25.375C47.3375 25.375 45.0975 24.29 44.4325 22.19C44.3275 21.875 44.275 21.525 44.275 21.1925C44.275 20.895 44.31 20.5975 44.3975 20.3175C44.625 19.495 45.1675 18.7775 46.0775 18.48C46.4275 18.375 46.795 18.34 47.1275 18.41C47.4775 18.4625 47.81 18.6025 48.1075 18.83C48.6675 18.3925 49.4375 18.2525 50.1725 18.48C51.765 19.005 52.2725 20.8075 51.8175 22.19C51.7475 22.4 51.66 22.61 51.555 22.8025C51.0825 23.7475 50.2775 24.4475 49.525 24.8675Z" fill="#0A0A0A"/>
</svg>
