<svg width="16" height="17" viewBox="0 0 16 17" fill="none" xmlns="http://www.w3.org/2000/svg">
<path d="M8.36926 2.16262C8.27454 2.05901 8.14062 2 8.00025 2C7.85987 2 7.72596 2.05901 7.63123 2.16262L4.96456 5.07928C4.77823 5.28308 4.79239 5.59935 4.99619 5.78568C5.2 5.97201 5.51626 5.95785 5.70259 5.75405L7.50025 3.78787V11.1667C7.50025 11.4428 7.7241 11.6667 8.00025 11.6667C8.27639 11.6667 8.50025 11.4428 8.50025 11.1667V3.78787L10.2979 5.75405C10.4842 5.95785 10.8005 5.97201 11.0043 5.78568C11.2081 5.59935 11.2223 5.28308 11.0359 5.07928L8.36926 2.16262Z" fill="white"/>
<path d="M2.50025 10.5C2.50025 10.2239 2.27639 10 2.00025 10C1.7241 10 1.50024 10.2239 1.50024 10.5V10.5366C1.50023 11.4483 1.50022 12.1832 1.57793 12.7612C1.6586 13.3612 1.8312 13.8665 2.23248 14.2678C2.63376 14.669 3.13901 14.8416 3.73908 14.9223C4.31706 15 5.05194 15 5.96367 15H10.0368C10.9486 15 11.6834 15 12.2614 14.9223C12.8615 14.8416 13.3667 14.669 13.768 14.2678C14.1693 13.8665 14.3419 13.3612 14.4226 12.7612C14.5003 12.1832 14.5003 11.4483 14.5002 10.5366V10.5C14.5002 10.2239 14.2764 10 14.0002 10C13.7241 10 13.5002 10.2239 13.5002 10.5C13.5002 11.4569 13.4992 12.1244 13.4315 12.6279C13.3657 13.1171 13.2454 13.3762 13.0609 13.5607C12.8764 13.7452 12.6174 13.8655 12.1282 13.9312C11.6246 13.9989 10.9572 14 10.0002 14H6.00025C5.0433 14 4.37589 13.9989 3.87233 13.9312C3.38314 13.8655 3.12409 13.7452 2.93959 13.5607C2.75508 13.3762 2.63478 13.1171 2.56901 12.6279C2.50131 12.1244 2.50025 11.4569 2.50025 10.5Z" fill="white"/>
<path d="M8.36926 2.16262C8.27454 2.05901 8.14062 2 8.00025 2C7.85987 2 7.72596 2.05901 7.63123 2.16262L4.96456 5.07928C4.77823 5.28308 4.79239 5.59935 4.99619 5.78568C5.2 5.97201 5.51626 5.95785 5.70259 5.75405L7.50025 3.78787V11.1667C7.50025 11.4428 7.7241 11.6667 8.00025 11.6667C8.27639 11.6667 8.50025 11.4428 8.50025 11.1667V3.78787L10.2979 5.75405C10.4842 5.95785 10.8005 5.97201 11.0043 5.78568C11.2081 5.59935 11.2223 5.28308 11.0359 5.07928L8.36926 2.16262Z" stroke="white" stroke-width="0.5"/>
<path d="M2.50025 10.5C2.50025 10.2239 2.27639 10 2.00025 10C1.7241 10 1.50024 10.2239 1.50024 10.5V10.5366C1.50023 11.4483 1.50022 12.1832 1.57793 12.7612C1.6586 13.3612 1.8312 13.8665 2.23248 14.2678C2.63376 14.669 3.13901 14.8416 3.73908 14.9223C4.31706 15 5.05194 15 5.96367 15H10.0368C10.9486 15 11.6834 15 12.2614 14.9223C12.8615 14.8416 13.3667 14.669 13.768 14.2678C14.1693 13.8665 14.3419 13.3612 14.4226 12.7612C14.5003 12.1832 14.5003 11.4483 14.5002 10.5366V10.5C14.5002 10.2239 14.2764 10 14.0002 10C13.7241 10 13.5002 10.2239 13.5002 10.5C13.5002 11.4569 13.4992 12.1244 13.4315 12.6279C13.3657 13.1171 13.2454 13.3762 13.0609 13.5607C12.8764 13.7452 12.6174 13.8655 12.1282 13.9312C11.6246 13.9989 10.9572 14 10.0002 14H6.00025C5.0433 14 4.37589 13.9989 3.87233 13.9312C3.38314 13.8655 3.12409 13.7452 2.93959 13.5607C2.75508 13.3762 2.63478 13.1171 2.56901 12.6279C2.50131 12.1244 2.50025 11.4569 2.50025 10.5Z" stroke="white" stroke-width="0.5"/>
</svg>
