<svg width="50" height="50" viewBox="0 0 50 50" fill="none" xmlns="http://www.w3.org/2000/svg">
<path d="M37.1094 17.2563C36.4341 14.5569 34.8763 12.1604 32.6833 10.4475C30.4904 8.73458 27.7881 7.80338 25.0055 7.80176C22.2229 7.80014 19.5195 8.72821 17.3246 10.4386C15.1297 12.149 13.5691 14.5436 12.8906 17.2422C9.69036 17.5426 6.72879 19.0642 4.62108 21.491C2.51337 23.9178 1.42154 27.0633 1.57238 30.2741C1.72321 33.4849 3.10512 36.5142 5.43106 38.7327C7.75699 40.9513 10.8482 42.1885 14.0625 42.1875H18.75C19.1644 42.1875 19.5618 42.0229 19.8549 41.7299C20.1479 41.4369 20.3125 41.0394 20.3125 40.625C20.3125 40.2106 20.1479 39.8132 19.8549 39.5202C19.5618 39.2272 19.1644 39.0625 18.75 39.0625H14.0625C12.8314 39.0661 11.6116 38.8272 10.4728 38.3594C9.33396 37.8916 8.29845 37.204 7.42536 36.336C5.66208 34.583 4.66741 32.2013 4.66016 29.7149C4.6529 27.2285 5.63367 24.841 7.38669 23.0778C9.13972 21.3145 11.5214 20.3198 14.0078 20.3125C14.4087 20.3427 14.8066 20.2229 15.1242 19.9763C15.4417 19.7298 15.6564 19.3741 15.7266 18.9782C16.0447 16.747 17.1572 14.7055 18.8596 13.2287C20.562 11.7518 22.74 10.9387 24.9937 10.9387C27.2475 10.9387 29.4255 11.7518 31.1279 13.2287C32.8303 14.7055 33.9428 16.747 34.2609 18.9782C34.3427 19.3603 34.5545 19.7022 34.8603 19.9456C35.166 20.189 35.5468 20.3187 35.9375 20.3125C38.4239 20.3125 40.8085 21.3003 42.5666 23.0584C44.3248 24.8166 45.3125 27.2011 45.3125 29.6875C45.3125 32.1739 44.3248 34.5585 42.5666 36.3167C40.8085 38.0748 38.4239 39.0625 35.9375 39.0625H31.25C30.8356 39.0625 30.4382 39.2272 30.1451 39.5202C29.8521 39.8132 29.6875 40.2106 29.6875 40.625C29.6875 41.0394 29.8521 41.4369 30.1451 41.7299C30.4382 42.0229 30.8356 42.1875 31.25 42.1875H35.9375C39.1283 42.1541 42.1856 40.9017 44.4827 38.6869C46.7799 36.4721 48.1431 33.4626 48.2929 30.2751C48.4427 27.0877 47.3679 23.9636 45.2886 21.543C43.2093 19.1225 40.283 17.5888 37.1094 17.2563Z" fill="#0A0A0A"/>
<path d="M31.7081 30.7921C32.0028 31.0767 32.3975 31.2342 32.8072 31.2307C33.2169 31.2271 33.6088 31.0628 33.8985 30.7731C34.1882 30.4834 34.3525 30.0915 34.3561 29.6818C34.3596 29.2721 34.2021 28.8774 33.9175 28.5827L26.105 20.7702C25.812 20.4773 25.4146 20.3127 25.0003 20.3127C24.586 20.3127 24.1887 20.4773 23.8956 20.7702L16.0831 28.5827C15.7985 28.8774 15.641 29.2721 15.6446 29.6818C15.6482 30.0915 15.8125 30.4834 16.1022 30.7731C16.3919 31.0628 16.7838 31.2271 17.1935 31.2307C17.6031 31.2342 17.9978 31.0767 18.2925 30.7921L23.4378 25.6468V45.3124C23.4378 45.7268 23.6025 46.1242 23.8955 46.4173C24.1885 46.7103 24.5859 46.8749 25.0003 46.8749C25.4147 46.8749 25.8122 46.7103 26.1052 46.4173C26.3982 46.1242 26.5628 45.7268 26.5628 45.3124V25.6468L31.7081 30.7921Z" fill="#0A0A0A"/>
</svg>
