<svg width="197" height="49" viewBox="0 0 197 49" fill="none" xmlns="http://www.w3.org/2000/svg">
<g clip-path="url(#clip0_63_1170)">
<g clip-path="url(#clip1_63_1170)">
<path d="M0.455078 30.1494C0.455078 16.1429 11.8096 4.78845 25.816 4.78845H31.0801V1.43836C31.0801 0.195465 32.5522 -0.460102 33.4759 0.371367L43.0462 8.98465C43.6799 9.55494 43.6799 10.5484 43.0462 11.1187L33.4759 19.732C32.5522 20.5635 31.0801 19.9078 31.0801 18.665V15.3158H26.1842C16.1197 15.3158 7.05017 21.3896 3.21803 30.696C2.61931 32.15 0.455078 31.7219 0.455078 30.1494Z" fill="#D8F87D"/>
<path d="M49.4551 18.8509C49.4551 32.8573 38.1005 44.2118 24.0941 44.2118H18.8301V47.5618C18.8301 48.8047 17.3579 49.4603 16.4342 48.6288L6.86391 40.0155C6.23026 39.4452 6.23026 38.4517 6.86391 37.8814L16.4342 29.2682C17.358 28.4367 18.8301 29.0923 18.8301 30.3351V33.6844H23.7259C33.7905 33.6844 42.86 27.6106 46.6921 18.3042C47.2908 16.8503 49.4551 17.2784 49.4551 18.8509Z" fill="#A59AF7"/>
</g>
</g>
<path d="M80.3169 28.268C80.0222 29.9667 79.1295 31.3013 77.6389 32.272C76.1655 33.2253 74.3369 33.702 72.1529 33.702C70.1249 33.702 68.4869 33.234 67.2389 32.298C66.0082 31.362 65.2715 29.9667 65.0289 28.112L69.1109 27.306C69.5615 28.9007 70.8009 29.698 72.8289 29.698C73.7649 29.698 74.5449 29.568 75.1689 29.308C75.7929 29.048 76.1395 28.6927 76.2089 28.242C76.2435 28.0513 76.2262 27.878 76.1569 27.722C76.1049 27.566 75.9749 27.4273 75.7669 27.306C75.5762 27.1847 75.3855 27.0893 75.1949 27.02C75.0215 26.9333 74.7355 26.8467 74.3369 26.76C73.9555 26.6733 73.6349 26.6127 73.3749 26.578C73.1322 26.526 72.7509 26.4567 72.2309 26.37C72.1442 26.37 72.0749 26.3613 72.0229 26.344C67.7935 25.6507 65.9475 23.796 66.4849 20.78C66.7795 19.0987 67.6549 17.7727 69.1109 16.802C70.5842 15.814 72.4215 15.32 74.6229 15.32C76.6335 15.32 78.2369 15.762 79.4329 16.646C80.6462 17.53 81.3482 18.856 81.5389 20.624L77.5089 21.43C77.2315 20.026 76.0702 19.324 74.0249 19.324C73.0369 19.324 72.2309 19.4627 71.6069 19.74C70.9829 20 70.6362 20.3553 70.5669 20.806C70.4802 21.326 70.7402 21.7073 71.3469 21.95C71.9535 22.1927 73.0455 22.4527 74.6229 22.73C74.6749 22.7473 74.7095 22.756 74.7269 22.756C75.3682 22.8773 75.9489 23.016 76.4689 23.172C77.0062 23.328 77.5522 23.5533 78.1069 23.848C78.6789 24.1427 79.1382 24.4807 79.4849 24.862C79.8315 25.226 80.0915 25.7027 80.2649 26.292C80.4382 26.8813 80.4555 27.54 80.3169 28.268ZM95.5125 21.352L90.4165 33H84.3325L82.7465 15.996H87.0625L88.0245 27.436L87.9725 28.892H88.3365L88.8045 27.436L93.8485 15.996H99.6725L100.816 27.436L100.764 28.892H101.076L101.544 27.436L106.614 15.996H110.904L103.312 33H97.2285L96.1365 21.352L96.2405 19.818H95.9545L95.5125 21.352ZM111.634 25.59H121.904L121.228 29.386H110.984L111.634 25.59ZM117.068 20.884L110.256 33H105.68L115.326 15.996H121.41L125.18 33H120.604L117.952 20.884V19.428H117.588L117.068 20.884ZM126.718 33L129.734 15.996H138.236C140.282 15.996 141.85 16.5507 142.942 17.66C144.052 18.7693 144.459 20.1907 144.164 21.924C143.87 23.588 142.986 24.9313 141.512 25.954C140.039 26.9767 138.271 27.488 136.208 27.488H131.788L130.8 33H126.718ZM132.464 23.692H136.624C137.612 23.692 138.401 23.536 138.99 23.224C139.597 22.8947 139.952 22.4353 140.056 21.846C140.178 21.1873 139.996 20.6847 139.51 20.338C139.042 19.974 138.306 19.792 137.3 19.792H133.14L132.464 23.692ZM143.882 33L146.898 15.996H155.4C157.446 15.996 159.014 16.5507 160.106 17.66C161.216 18.7693 161.623 20.1907 161.328 21.924C161.034 23.588 160.15 24.9313 158.676 25.954C157.203 26.9767 155.435 27.488 153.372 27.488H148.952L147.964 33H143.882ZM149.628 23.692H153.788C154.776 23.692 155.565 23.536 156.154 23.224C156.761 22.8947 157.116 22.4353 157.22 21.846C157.342 21.1873 157.16 20.6847 156.674 20.338C156.206 19.974 155.47 19.792 154.464 19.792H150.304L149.628 23.692ZM164.062 15.996H179.454L178.778 19.818H167.468L166.974 22.6H177.53L176.854 26.422H166.298L165.804 29.178H177.114L176.438 33H161.046L164.062 15.996ZM186.685 25.824H191.105L193.731 33H189.363L186.685 25.824ZM178.261 33L181.277 15.996H189.779C191.825 15.996 193.393 16.5507 194.485 17.66C195.595 18.7693 196.002 20.1907 195.707 21.924C195.413 23.588 194.529 24.9313 193.055 25.954C191.582 26.9767 189.814 27.488 187.751 27.488H183.331L182.343 33H178.261ZM184.007 23.692H188.167C189.155 23.692 189.944 23.536 190.533 23.224C191.14 22.8947 191.495 22.4353 191.599 21.846C191.721 21.1873 191.539 20.6847 191.053 20.338C190.585 19.974 189.849 19.792 188.843 19.792H184.683L184.007 23.692Z" fill="#0A0A0A"/>
<defs>
<clipPath id="clip0_63_1170">
<rect width="49" height="49" fill="white" transform="translate(0.455078)"/>
</clipPath>
<clipPath id="clip1_63_1170">
<rect width="49" height="49" fill="white" transform="translate(0.455078)"/>
</clipPath>
</defs>
</svg>
